M48
; DRILL file {KiCad 9.0.8-9.0.8~ubuntu24.04.1} date 2026-05-05T11:46:57-0500
; FORMAT={-:-/ absolute / inch / decimal}
; #@! TF.CreationDate,2026-05-05T11:46:57-05:00
; #@! TF.GenerationSoftware,Kicad,Pcbnew,9.0.8-9.0.8~ubuntu24.04.1
; #@! TF.FileFunction,Plated,1,4,PTH
FMAT,2
INCH
; #@! TA.AperFunction,Plated,PTH,ViaDrill
T1C0.0118
; #@! TA.AperFunction,Plated,PTH,ComponentDrill
T2C0.0315
; #@! TA.AperFunction,Plated,PTH,ComponentDrill
T3C0.0354
; #@! TA.AperFunction,Plated,PTH,ComponentDrill
T4C0.0394
; #@! TA.AperFunction,Plated,PTH,ComponentDrill
T5C0.0472
; #@! TA.AperFunction,Plated,PTH,ComponentDrill
T6C0.1260
%
G90
G05
T1
X3.3858Y-4.8425
X3.5236Y-4.9409
X4.4685Y-4.252
X4.5173Y-4.4094
X4.5453Y-4.4813
X4.5988Y-4.6527
X4.7239Y-4.2488
X4.7239Y-4.685
X4.8622Y-2.5528
X4.9453Y-2.6028
X5.0095Y-2.6528
X5.0196Y-2.7028
X5.0363Y-2.7559
X5.0394Y-2.8028
X5.0394Y-2.8528
X5.0984Y-2.5528
X5.2921Y-2.7528
X5.3012Y-2.7028
X5.315Y-2.6575
X5.3346Y-4.3709
X5.3944Y-4.3465
X5.6693Y-3.7878
X6.063Y-3.6913
X6.0827Y-3.5913
X6.2654Y-4.5276
X6.2795Y-3.7913
X6.3017Y-4.4488
X6.3239Y-3.8913
X6.4173Y-5.5512
X6.5748Y-3.7514
X7.1638Y-5.4815
X7.1638Y-5.5335
X7.1638Y-5.5866
X7.1638Y-5.6394
X7.165Y-5.4244
X7.1657Y-5.3205
X7.1657Y-5.3701
X7.6142Y-3.2874
T2
X3.1102Y-2.5756
X3.1102Y-2.9756
X3.1102Y-3.1071
X3.1102Y-3.5071
X3.248Y-2.8709
X3.248Y-3.2709
X4.8819Y-5.4331
X4.8819Y-5.5315
X5.0984Y-5.4921
X5.2362Y-5.4921
X5.5117Y-4.5912
X5.5117Y-4.6912
X5.5117Y-4.7912
X5.5118Y-2.6913
X5.5118Y-2.7913
X5.5118Y-2.8913
X5.5118Y-2.9913
X5.5118Y-3.0913
X5.5118Y-3.1913
X5.5118Y-3.2913
X5.5118Y-3.3913
X5.5118Y-3.4913
X5.5118Y-3.5913
X5.5118Y-3.6913
X5.5118Y-3.7913
X5.5118Y-3.8913
X5.5118Y-3.9913
X5.5118Y-4.0913
X5.5118Y-4.1913
X5.5118Y-4.2913
X5.5118Y-4.3913
X5.5118Y-4.4913
X6.4118Y-2.6913
X6.4118Y-2.7913
X6.4118Y-2.8913
X6.4118Y-2.9913
X6.4118Y-3.0913
X6.4118Y-3.1913
X6.4118Y-3.2913
X6.4118Y-3.3913
X6.4118Y-3.4913
X6.4118Y-3.5913
X6.4118Y-3.6913
X6.4118Y-3.7913
X6.4118Y-3.8913
X6.4118Y-3.9913
X6.4118Y-4.0913
X6.4118Y-4.1913
X6.4118Y-4.2913
X6.4118Y-4.3913
X6.4118Y-4.4913
X6.4118Y-4.5913
X6.4118Y-4.6913
X6.4118Y-4.7913
X6.5906Y-2.6575
X6.6701Y-4.9016
X6.7244Y-2.6575
X6.9488Y-2.4803
X6.9488Y-2.8803
X7.0701Y-4.9016
X7.126Y-3.1268
X7.126Y-3.5268
X7.126Y-4.0748
X7.126Y-4.1732
X7.2638Y-3.1268
X7.2638Y-3.5268
T3
X2.824Y-2.8961
X2.824Y-3.1114
X2.824Y-3.3268
X2.924Y-2.8961
X2.924Y-3.1114
X2.924Y-3.3268
T4
X3.0512Y-5.0165
X3.0512Y-5.1165
X3.0512Y-5.2165
X3.0512Y-5.3165
X3.2382Y-5.5547
X3.3382Y-5.5547
X3.4382Y-5.5547
X3.6024Y-3.3461
X3.6024Y-3.4461
X3.6024Y-3.5461
X3.6024Y-3.6461
X3.6024Y-3.7461
X3.6024Y-3.8461
X3.6024Y-3.9461
X3.6024Y-4.0461
X3.6024Y-4.1461
X3.6024Y-4.2461
X3.6024Y-4.3461
X3.6024Y-4.4461
X3.6024Y-4.5461
X3.6024Y-4.6461
X4.3504Y-3.3465
X4.3504Y-3.4465
X4.3504Y-3.5465
X4.3504Y-3.6465
X4.3504Y-3.7465
X4.3504Y-3.8465
X4.3504Y-3.9465
X4.3504Y-4.0465
X4.3504Y-4.1465
X4.3504Y-4.3465
X4.3504Y-4.4465
X4.3504Y-4.5465
X4.3504Y-4.6465
X4.3524Y-4.2465
X4.3535Y-3.3461
X4.3535Y-3.4461
X4.3535Y-3.5461
X4.3535Y-3.6461
X4.3535Y-3.7461
X4.3535Y-3.8461
X4.3535Y-3.9461
X4.3535Y-4.0461
X4.3535Y-4.1461
X4.3535Y-4.2461
X4.3535Y-4.3461
X4.3535Y-4.4461
X4.3535Y-4.5461
X4.3535Y-4.6461
X4.8228Y-3.1593
X4.8228Y-3.3593
X4.8228Y-3.5189
X4.8228Y-3.7189
X4.8228Y-3.8785
X4.8228Y-4.0785
X4.8228Y-4.2382
X4.8228Y-4.4382
X4.8228Y-4.5978
X4.8228Y-4.7978
X4.8228Y-4.9575
X4.8228Y-5.1575
X4.9228Y-3.1593
X4.9228Y-3.3593
X4.9228Y-3.5189
X4.9228Y-3.7189
X4.9228Y-3.8785
X4.9228Y-4.0785
X4.9228Y-4.2382
X4.9228Y-4.4382
X4.9228Y-4.5978
X4.9228Y-4.7978
X4.9228Y-4.9575
X4.9228Y-5.1575
X5.0228Y-3.1593
X5.0228Y-3.3593
X5.0228Y-3.5189
X5.0228Y-3.7189
X5.0228Y-3.8785
X5.0228Y-4.0785
X5.0228Y-4.2382
X5.0228Y-4.4382
X5.0228Y-4.5978
X5.0228Y-4.7978
X5.0228Y-4.9575
X5.0228Y-5.1575
X5.2228Y-3.1593
X5.2228Y-3.3593
X5.2228Y-3.5189
X5.2228Y-3.7189
X5.2228Y-3.8785
X5.2228Y-4.0785
X5.2228Y-4.2382
X5.2228Y-4.4382
X5.2228Y-4.5978
X5.2228Y-4.7978
X5.2228Y-4.9575
X5.2228Y-5.1575
X6.7488Y-5.0787
X6.811Y-2.9732
X6.811Y-3.0732
X6.811Y-3.1732
X6.811Y-3.2732
X6.811Y-3.3732
X6.811Y-3.4732
X6.811Y-3.5732
X6.811Y-3.6732
X6.811Y-3.7732
X6.811Y-3.8732
X6.811Y-3.9732
X6.811Y-4.0732
X6.811Y-4.1732
X6.811Y-4.2732
X6.811Y-4.3732
X6.811Y-4.4732
X6.811Y-4.5732
X6.811Y-4.6732
X6.8488Y-5.0787
X6.9488Y-5.0787
X7.2098Y-2.7559
X7.4067Y-2.7559
T5
X3.1496Y-3.6811
X3.1496Y-3.8189
X3.1496Y-3.9567
X3.1496Y-4.0945
X3.1496Y-4.2323
X3.1496Y-4.3701
X3.1496Y-4.5079
X3.1496Y-4.6457
X3.1496Y-4.7835
X7.3026Y-4.5866
X7.3425Y-5.1878
X7.3425Y-5.3378
X7.3425Y-5.4878
X7.3425Y-5.6378
X7.5979Y-4.5866
T6
X2.7362Y-2.5394
X2.7362Y-5.7874
X7.6969Y-2.5394
X7.6969Y-5.7874
M30
