M48
; DRILL file {KiCad 9.0.7-9.0.7~ubuntu24.04.1} date 2026-02-25T15:01:03-0600
; FORMAT={-:-/ absolute / inch / decimal}
; #@! TF.CreationDate,2026-02-25T15:01:03-06:00
; #@! TF.GenerationSoftware,Kicad,Pcbnew,9.0.7-9.0.7~ubuntu24.04.1
; #@! TF.FileFunction,Plated,1,4,PTH
FMAT,2
INCH
; #@! TA.AperFunction,Plated,PTH,ViaDrill
T1C0.0118
; #@! TA.AperFunction,Plated,PTH,ComponentDrill
T2C0.0315
; #@! TA.AperFunction,Plated,PTH,ComponentDrill
T3C0.0354
; #@! TA.AperFunction,Plated,PTH,ComponentDrill
T4C0.0394
; #@! TA.AperFunction,Plated,PTH,ComponentDrill
T5C0.0433
; #@! TA.AperFunction,Plated,PTH,ComponentDrill
T6C0.0472
; #@! TA.AperFunction,Plated,PTH,ComponentDrill
T7C0.0512
; #@! TA.AperFunction,Plated,PTH,ComponentDrill
T8C0.1260
%
G90
G05
T1
X3.7992Y-5.315
X3.8386Y-5.1378
X4.252Y-3.563
X4.4882Y-4.2913
X4.6516Y-4.2382
X4.6654Y-4.3913
X4.8425Y-4.4891
X5.2953Y-3.3465
X5.374Y-3.8873
X6.1783Y-3.5461
X6.264Y-3.8773
X6.4173Y-5.5512
X6.5354Y-4.5472
X6.6732Y-3.5039
X7.1638Y-5.4815
X7.1638Y-5.5335
X7.1638Y-5.5866
X7.1638Y-5.6394
X7.165Y-5.4244
X7.1657Y-5.3205
X7.1657Y-5.3701
X7.5591Y-3.2283
T2
X3.1102Y-2.5756
X3.1102Y-2.9756
X3.1102Y-3.1071
X3.1102Y-3.5071
X3.248Y-2.8709
X3.248Y-3.2709
X4.5972Y-2.7953
X4.5972Y-3.189
X4.5972Y-3.5827
X4.5988Y-4.7047
X4.6016Y-5.0787
X4.6047Y-3.9764
X4.6909Y-4.8622
X4.6941Y-2.9724
X4.6941Y-3.3465
X4.6941Y-3.7402
X4.6972Y-2.7953
X4.6972Y-3.189
X4.6972Y-3.5827
X4.6984Y-5.2362
X4.6988Y-4.7047
X4.7016Y-4.1339
X4.7016Y-5.0787
X4.7047Y-3.9764
X4.7972Y-2.7953
X4.7972Y-3.189
X4.7972Y-3.5827
X4.7988Y-4.7047
X4.8016Y-5.0787
X4.8047Y-3.9764
X4.8819Y-5.4331
X4.8819Y-5.5315
X5.0909Y-4.8622
X5.0941Y-2.9724
X5.0941Y-3.3465
X5.0941Y-3.7402
X5.0984Y-5.2362
X5.0984Y-5.4921
X5.1016Y-4.1339
X5.1346Y-2.5394
X5.2362Y-5.4921
X5.5117Y-4.5912
X5.5117Y-4.6912
X5.5117Y-4.7912
X5.5118Y-2.6913
X5.5118Y-2.7913
X5.5118Y-2.8913
X5.5118Y-2.9913
X5.5118Y-3.0913
X5.5118Y-3.1913
X5.5118Y-3.2913
X5.5118Y-3.3913
X5.5118Y-3.4913
X5.5118Y-3.5913
X5.5118Y-3.6913
X5.5118Y-3.7913
X5.5118Y-3.8913
X5.5118Y-3.9913
X5.5118Y-4.0913
X5.5118Y-4.1913
X5.5118Y-4.2913
X5.5118Y-4.3913
X5.5118Y-4.4913
X5.5346Y-2.5394
X6.4118Y-2.6913
X6.4118Y-2.7913
X6.4118Y-2.8913
X6.4118Y-2.9913
X6.4118Y-3.0913
X6.4118Y-3.1913
X6.4118Y-3.2913
X6.4118Y-3.3913
X6.4118Y-3.4913
X6.4118Y-3.5913
X6.4118Y-3.6913
X6.4118Y-3.7913
X6.4118Y-3.8913
X6.4118Y-3.9913
X6.4118Y-4.0913
X6.4118Y-4.1913
X6.4118Y-4.2913
X6.4118Y-4.3913
X6.4118Y-4.4913
X6.4118Y-4.5913
X6.4118Y-4.6913
X6.4118Y-4.7913
X6.5906Y-2.6575
X6.6701Y-4.9016
X6.7244Y-2.6575
X7.0701Y-4.9016
X7.126Y-3.1268
X7.126Y-3.5268
X7.2638Y-3.1268
X7.2638Y-3.5268
X7.4213Y-3.6417
X7.5197Y-3.6417
T3
X2.824Y-2.8961
X2.824Y-3.1114
X2.824Y-3.3268
X2.924Y-2.8961
X2.924Y-3.1114
X2.924Y-3.3268
T4
X3.0512Y-5.0165
X3.0512Y-5.1165
X3.0512Y-5.2165
X3.0512Y-5.3165
X3.2382Y-5.5547
X3.3382Y-5.5547
X3.4382Y-5.5547
X4.3504Y-3.3472
X4.3504Y-3.4472
X4.3504Y-3.5472
X4.3504Y-3.6472
X4.3504Y-3.7472
X4.3504Y-3.8472
X4.3504Y-3.9472
X4.3504Y-4.0472
X4.3504Y-4.1472
X4.3504Y-4.2472
X4.3504Y-4.3472
X4.3504Y-4.4472
X4.3504Y-4.5472
X4.3504Y-4.6472
X4.5425Y-2.5394
X4.6425Y-2.5394
X4.7425Y-2.5394
X4.8425Y-2.5394
X4.9425Y-2.5394
X6.7488Y-5.0787
X6.811Y-2.9732
X6.811Y-3.0732
X6.811Y-3.1732
X6.811Y-3.2732
X6.811Y-3.3732
X6.811Y-3.4732
X6.811Y-3.5732
X6.811Y-3.6732
X6.811Y-3.7732
X6.811Y-3.8732
X6.811Y-3.9732
X6.811Y-4.0732
X6.811Y-4.1732
X6.811Y-4.2732
X6.811Y-4.3732
X6.811Y-4.4732
X6.811Y-4.5732
X6.811Y-4.6732
X6.8488Y-5.0787
X6.9488Y-5.0787
X7.2098Y-2.7559
X7.4067Y-2.7559
T5
X4.9559Y-3.189
X4.9559Y-3.5827
X4.9756Y-2.7953
X4.9756Y-3.9764
X4.9756Y-4.7047
X4.9756Y-5.0787
X5.2559Y-3.189
X5.2559Y-3.5827
X5.2756Y-2.7953
X5.2756Y-3.9764
X5.2756Y-4.7047
X5.2756Y-5.0787
T6
X3.1496Y-3.6811
X3.1496Y-3.8189
X3.1496Y-3.9567
X3.1496Y-4.0945
X3.1496Y-4.2323
X3.1496Y-4.3701
X3.1496Y-4.5079
X3.1496Y-4.6457
X3.1496Y-4.7835
X7.3026Y-4.2126
X7.3425Y-5.1878
X7.3425Y-5.3378
X7.3425Y-5.4878
X7.3425Y-5.6378
X7.5979Y-4.2126
T7
X3.4252Y-3.1102
X3.4252Y-3.6024
X3.4289Y-2.626
X3.4289Y-4.1024
X3.4289Y-4.5945
X3.4289Y-5.0866
X3.7252Y-3.1102
X3.7252Y-3.6024
X3.7289Y-2.626
X3.7289Y-4.1024
X3.7289Y-4.5945
X3.7289Y-5.0866
X4.1252Y-3.1102
X4.1252Y-3.4102
X4.1252Y-3.6024
X4.1252Y-3.9024
X4.1289Y-2.626
X4.1289Y-2.926
X4.1289Y-4.1024
X4.1289Y-4.4024
X4.1289Y-4.5945
X4.1289Y-4.8945
X4.1289Y-5.0866
X4.1289Y-5.3866
T8
X2.7362Y-2.5394
X2.7362Y-5.7874
X7.6969Y-2.5394
X7.6969Y-5.7874
M30
