%TF.GenerationSoftware,KiCad,Pcbnew,9.0.8-9.0.8~ubuntu24.04.1*%
%TF.CreationDate,2026-05-06T19:26:59-05:00*%
%TF.ProjectId,ESP32-DevKitC3-Simple-Thermostat-PCB_v3,45535033-322d-4446-9576-4b697443332d,1.2*%
%TF.SameCoordinates,Original*%
%TF.FileFunction,Legend,Bot*%
%TF.FilePolarity,Positive*%
%FSLAX46Y46*%
G04 Gerber Fmt 4.6, Leading zero omitted, Abs format (unit mm)*
G04 Created by KiCad (PCBNEW 9.0.8-9.0.8~ubuntu24.04.1) date 2026-05-06 19:26:59*
%MOMM*%
%LPD*%
G01*
G04 APERTURE LIST*
G04 Aperture macros list*
%AMRoundRect*
0 Rectangle with rounded corners*
0 $1 Rounding radius*
0 $2 $3 $4 $5 $6 $7 $8 $9 X,Y pos of 4 corners*
0 Add a 4 corners polygon primitive as box body*
4,1,4,$2,$3,$4,$5,$6,$7,$8,$9,$2,$3,0*
0 Add four circle primitives for the rounded corners*
1,1,$1+$1,$2,$3*
1,1,$1+$1,$4,$5*
1,1,$1+$1,$6,$7*
1,1,$1+$1,$8,$9*
0 Add four rect primitives between the rounded corners*
20,1,$1+$1,$2,$3,$4,$5,0*
20,1,$1+$1,$4,$5,$6,$7,0*
20,1,$1+$1,$6,$7,$8,$9,0*
20,1,$1+$1,$8,$9,$2,$3,0*%
G04 Aperture macros list end*
%ADD10C,0.150000*%
%ADD11C,0.100000*%
%ADD12C,0.120000*%
%ADD13C,1.600000*%
%ADD14R,2.000000X2.000000*%
%ADD15C,2.000000*%
%ADD16C,6.000000*%
%ADD17R,1.800000X1.800000*%
%ADD18C,1.800000*%
%ADD19RoundRect,0.250001X-0.949999X0.949999X-0.949999X-0.949999X0.949999X-0.949999X0.949999X0.949999X0*%
%ADD20C,2.400000*%
%ADD21R,1.700000X1.700000*%
%ADD22C,1.700000*%
%ADD23RoundRect,0.250000X0.550000X0.550000X-0.550000X0.550000X-0.550000X-0.550000X0.550000X-0.550000X0*%
%ADD24R,2.400000X2.400000*%
%ADD25R,2.000000X1.200000*%
%ADD26O,2.000000X1.200000*%
%ADD27RoundRect,0.250001X-0.949999X-0.949999X0.949999X-0.949999X0.949999X0.949999X-0.949999X0.949999X0*%
%ADD28C,1.500000*%
%ADD29C,3.000000*%
%ADD30R,1.600000X1.600000*%
%ADD31C,3.200000*%
G04 APERTURE END LIST*
D10*
X169742857Y-65054819D02*
X170076190Y-64578628D01*
X170314285Y-65054819D02*
X170314285Y-64054819D01*
X170314285Y-64054819D02*
X169933333Y-64054819D01*
X169933333Y-64054819D02*
X169838095Y-64102438D01*
X169838095Y-64102438D02*
X169790476Y-64150057D01*
X169790476Y-64150057D02*
X169742857Y-64245295D01*
X169742857Y-64245295D02*
X169742857Y-64388152D01*
X169742857Y-64388152D02*
X169790476Y-64483390D01*
X169790476Y-64483390D02*
X169838095Y-64531009D01*
X169838095Y-64531009D02*
X169933333Y-64578628D01*
X169933333Y-64578628D02*
X170314285Y-64578628D01*
X168790476Y-65054819D02*
X169361904Y-65054819D01*
X169076190Y-65054819D02*
X169076190Y-64054819D01*
X169076190Y-64054819D02*
X169171428Y-64197676D01*
X169171428Y-64197676D02*
X169266666Y-64292914D01*
X169266666Y-64292914D02*
X169361904Y-64340533D01*
X168409523Y-64150057D02*
X168361904Y-64102438D01*
X168361904Y-64102438D02*
X168266666Y-64054819D01*
X168266666Y-64054819D02*
X168028571Y-64054819D01*
X168028571Y-64054819D02*
X167933333Y-64102438D01*
X167933333Y-64102438D02*
X167885714Y-64150057D01*
X167885714Y-64150057D02*
X167838095Y-64245295D01*
X167838095Y-64245295D02*
X167838095Y-64340533D01*
X167838095Y-64340533D02*
X167885714Y-64483390D01*
X167885714Y-64483390D02*
X168457142Y-65054819D01*
X168457142Y-65054819D02*
X167838095Y-65054819D01*
X119185714Y-125375180D02*
X119185714Y-126375180D01*
X119185714Y-126375180D02*
X119423809Y-126375180D01*
X119423809Y-126375180D02*
X119566666Y-126327561D01*
X119566666Y-126327561D02*
X119661904Y-126232323D01*
X119661904Y-126232323D02*
X119709523Y-126137085D01*
X119709523Y-126137085D02*
X119757142Y-125946609D01*
X119757142Y-125946609D02*
X119757142Y-125803752D01*
X119757142Y-125803752D02*
X119709523Y-125613276D01*
X119709523Y-125613276D02*
X119661904Y-125518038D01*
X119661904Y-125518038D02*
X119566666Y-125422800D01*
X119566666Y-125422800D02*
X119423809Y-125375180D01*
X119423809Y-125375180D02*
X119185714Y-125375180D01*
X120138095Y-125422800D02*
X120280952Y-125375180D01*
X120280952Y-125375180D02*
X120519047Y-125375180D01*
X120519047Y-125375180D02*
X120614285Y-125422800D01*
X120614285Y-125422800D02*
X120661904Y-125470419D01*
X120661904Y-125470419D02*
X120709523Y-125565657D01*
X120709523Y-125565657D02*
X120709523Y-125660895D01*
X120709523Y-125660895D02*
X120661904Y-125756133D01*
X120661904Y-125756133D02*
X120614285Y-125803752D01*
X120614285Y-125803752D02*
X120519047Y-125851371D01*
X120519047Y-125851371D02*
X120328571Y-125898990D01*
X120328571Y-125898990D02*
X120233333Y-125946609D01*
X120233333Y-125946609D02*
X120185714Y-125994228D01*
X120185714Y-125994228D02*
X120138095Y-126089466D01*
X120138095Y-126089466D02*
X120138095Y-126184704D01*
X120138095Y-126184704D02*
X120185714Y-126279942D01*
X120185714Y-126279942D02*
X120233333Y-126327561D01*
X120233333Y-126327561D02*
X120328571Y-126375180D01*
X120328571Y-126375180D02*
X120566666Y-126375180D01*
X120566666Y-126375180D02*
X120709523Y-126327561D01*
X121090476Y-126279942D02*
X121138095Y-126327561D01*
X121138095Y-126327561D02*
X121233333Y-126375180D01*
X121233333Y-126375180D02*
X121471428Y-126375180D01*
X121471428Y-126375180D02*
X121566666Y-126327561D01*
X121566666Y-126327561D02*
X121614285Y-126279942D01*
X121614285Y-126279942D02*
X121661904Y-126184704D01*
X121661904Y-126184704D02*
X121661904Y-126089466D01*
X121661904Y-126089466D02*
X121614285Y-125946609D01*
X121614285Y-125946609D02*
X121042857Y-125375180D01*
X121042857Y-125375180D02*
X121661904Y-125375180D01*
D11*
X106530075Y-89671764D02*
X106101504Y-89671764D01*
X106315789Y-90421764D02*
X106315789Y-89671764D01*
X106030075Y-90493192D02*
X105458646Y-90493192D01*
X105280074Y-90421764D02*
X105280074Y-89671764D01*
X105280074Y-89671764D02*
X105101503Y-89671764D01*
X105101503Y-89671764D02*
X104994360Y-89707478D01*
X104994360Y-89707478D02*
X104922931Y-89778907D01*
X104922931Y-89778907D02*
X104887217Y-89850335D01*
X104887217Y-89850335D02*
X104851503Y-89993192D01*
X104851503Y-89993192D02*
X104851503Y-90100335D01*
X104851503Y-90100335D02*
X104887217Y-90243192D01*
X104887217Y-90243192D02*
X104922931Y-90314621D01*
X104922931Y-90314621D02*
X104994360Y-90386050D01*
X104994360Y-90386050D02*
X105101503Y-90421764D01*
X105101503Y-90421764D02*
X105280074Y-90421764D01*
X104530074Y-90421764D02*
X104530074Y-89671764D01*
X104172931Y-90421764D02*
X104172931Y-89671764D01*
X104172931Y-89671764D02*
X103744360Y-90421764D01*
X103744360Y-90421764D02*
X103744360Y-89671764D01*
X104422932Y-113210335D02*
X104458646Y-113246050D01*
X104458646Y-113246050D02*
X104565789Y-113281764D01*
X104565789Y-113281764D02*
X104637217Y-113281764D01*
X104637217Y-113281764D02*
X104744360Y-113246050D01*
X104744360Y-113246050D02*
X104815789Y-113174621D01*
X104815789Y-113174621D02*
X104851503Y-113103192D01*
X104851503Y-113103192D02*
X104887217Y-112960335D01*
X104887217Y-112960335D02*
X104887217Y-112853192D01*
X104887217Y-112853192D02*
X104851503Y-112710335D01*
X104851503Y-112710335D02*
X104815789Y-112638907D01*
X104815789Y-112638907D02*
X104744360Y-112567478D01*
X104744360Y-112567478D02*
X104637217Y-112531764D01*
X104637217Y-112531764D02*
X104565789Y-112531764D01*
X104565789Y-112531764D02*
X104458646Y-112567478D01*
X104458646Y-112567478D02*
X104422932Y-112603192D01*
X104137217Y-113246050D02*
X104030075Y-113281764D01*
X104030075Y-113281764D02*
X103851503Y-113281764D01*
X103851503Y-113281764D02*
X103780075Y-113246050D01*
X103780075Y-113246050D02*
X103744360Y-113210335D01*
X103744360Y-113210335D02*
X103708646Y-113138907D01*
X103708646Y-113138907D02*
X103708646Y-113067478D01*
X103708646Y-113067478D02*
X103744360Y-112996050D01*
X103744360Y-112996050D02*
X103780075Y-112960335D01*
X103780075Y-112960335D02*
X103851503Y-112924621D01*
X103851503Y-112924621D02*
X103994360Y-112888907D01*
X103994360Y-112888907D02*
X104065789Y-112853192D01*
X104065789Y-112853192D02*
X104101503Y-112817478D01*
X104101503Y-112817478D02*
X104137217Y-112746050D01*
X104137217Y-112746050D02*
X104137217Y-112674621D01*
X104137217Y-112674621D02*
X104101503Y-112603192D01*
X104101503Y-112603192D02*
X104065789Y-112567478D01*
X104065789Y-112567478D02*
X103994360Y-112531764D01*
X103994360Y-112531764D02*
X103815789Y-112531764D01*
X103815789Y-112531764D02*
X103708646Y-112567478D01*
X105065788Y-100581764D02*
X105422931Y-100581764D01*
X105422931Y-100581764D02*
X105422931Y-99831764D01*
X104815788Y-100188907D02*
X104565788Y-100188907D01*
X104458645Y-100581764D02*
X104815788Y-100581764D01*
X104815788Y-100581764D02*
X104815788Y-99831764D01*
X104815788Y-99831764D02*
X104458645Y-99831764D01*
X104137217Y-100581764D02*
X104137217Y-99831764D01*
X104137217Y-99831764D02*
X103958646Y-99831764D01*
X103958646Y-99831764D02*
X103851503Y-99867478D01*
X103851503Y-99867478D02*
X103780074Y-99938907D01*
X103780074Y-99938907D02*
X103744360Y-100010335D01*
X103744360Y-100010335D02*
X103708646Y-100153192D01*
X103708646Y-100153192D02*
X103708646Y-100260335D01*
X103708646Y-100260335D02*
X103744360Y-100403192D01*
X103744360Y-100403192D02*
X103780074Y-100474621D01*
X103780074Y-100474621D02*
X103851503Y-100546050D01*
X103851503Y-100546050D02*
X103958646Y-100581764D01*
X103958646Y-100581764D02*
X104137217Y-100581764D01*
X106744361Y-94751764D02*
X106315790Y-94751764D01*
X106530075Y-95501764D02*
X106530075Y-94751764D01*
X106244361Y-95573192D02*
X105672932Y-95573192D01*
X105065789Y-95430335D02*
X105101503Y-95466050D01*
X105101503Y-95466050D02*
X105208646Y-95501764D01*
X105208646Y-95501764D02*
X105280074Y-95501764D01*
X105280074Y-95501764D02*
X105387217Y-95466050D01*
X105387217Y-95466050D02*
X105458646Y-95394621D01*
X105458646Y-95394621D02*
X105494360Y-95323192D01*
X105494360Y-95323192D02*
X105530074Y-95180335D01*
X105530074Y-95180335D02*
X105530074Y-95073192D01*
X105530074Y-95073192D02*
X105494360Y-94930335D01*
X105494360Y-94930335D02*
X105458646Y-94858907D01*
X105458646Y-94858907D02*
X105387217Y-94787478D01*
X105387217Y-94787478D02*
X105280074Y-94751764D01*
X105280074Y-94751764D02*
X105208646Y-94751764D01*
X105208646Y-94751764D02*
X105101503Y-94787478D01*
X105101503Y-94787478D02*
X105065789Y-94823192D01*
X104387217Y-95501764D02*
X104744360Y-95501764D01*
X104744360Y-95501764D02*
X104744360Y-94751764D01*
X104137217Y-95501764D02*
X104137217Y-94751764D01*
X103708646Y-95501764D02*
X104030074Y-95073192D01*
X103708646Y-94751764D02*
X104137217Y-95180335D01*
D10*
X139476190Y-127045180D02*
X139476190Y-128045180D01*
X140428570Y-127045180D02*
X139952380Y-127045180D01*
X139952380Y-127045180D02*
X139952380Y-128045180D01*
X140761904Y-127045180D02*
X140761904Y-128045180D01*
X141285713Y-127045180D02*
X141476189Y-127045180D01*
X141476189Y-127045180D02*
X141571427Y-127092800D01*
X141571427Y-127092800D02*
X141619046Y-127140419D01*
X141619046Y-127140419D02*
X141714284Y-127283276D01*
X141714284Y-127283276D02*
X141761903Y-127473752D01*
X141761903Y-127473752D02*
X141761903Y-127854704D01*
X141761903Y-127854704D02*
X141714284Y-127949942D01*
X141714284Y-127949942D02*
X141666665Y-127997561D01*
X141666665Y-127997561D02*
X141571427Y-128045180D01*
X141571427Y-128045180D02*
X141380951Y-128045180D01*
X141380951Y-128045180D02*
X141285713Y-127997561D01*
X141285713Y-127997561D02*
X141238094Y-127949942D01*
X141238094Y-127949942D02*
X141190475Y-127854704D01*
X141190475Y-127854704D02*
X141190475Y-127616609D01*
X141190475Y-127616609D02*
X141238094Y-127521371D01*
X141238094Y-127521371D02*
X141285713Y-127473752D01*
X141285713Y-127473752D02*
X141380951Y-127426133D01*
X141380951Y-127426133D02*
X141571427Y-127426133D01*
X141571427Y-127426133D02*
X141666665Y-127473752D01*
X141666665Y-127473752D02*
X141714284Y-127521371D01*
X141714284Y-127521371D02*
X141761903Y-127616609D01*
X142095237Y-128045180D02*
X142714284Y-128045180D01*
X142714284Y-128045180D02*
X142380951Y-127664228D01*
X142380951Y-127664228D02*
X142523808Y-127664228D01*
X142523808Y-127664228D02*
X142619046Y-127616609D01*
X142619046Y-127616609D02*
X142666665Y-127568990D01*
X142666665Y-127568990D02*
X142714284Y-127473752D01*
X142714284Y-127473752D02*
X142714284Y-127235657D01*
X142714284Y-127235657D02*
X142666665Y-127140419D01*
X142666665Y-127140419D02*
X142619046Y-127092800D01*
X142619046Y-127092800D02*
X142523808Y-127045180D01*
X142523808Y-127045180D02*
X142238094Y-127045180D01*
X142238094Y-127045180D02*
X142142856Y-127092800D01*
X142142856Y-127092800D02*
X142095237Y-127140419D01*
X143571427Y-127711847D02*
X143571427Y-127045180D01*
X143333332Y-128092800D02*
X143095237Y-127378514D01*
X143095237Y-127378514D02*
X143714284Y-127378514D01*
X144619046Y-127045180D02*
X144047618Y-127045180D01*
X144333332Y-127045180D02*
X144333332Y-128045180D01*
X144333332Y-128045180D02*
X144238094Y-127902323D01*
X144238094Y-127902323D02*
X144142856Y-127807085D01*
X144142856Y-127807085D02*
X144047618Y-127759466D01*
X145714285Y-128045180D02*
X146333332Y-128045180D01*
X146333332Y-128045180D02*
X145999999Y-127664228D01*
X145999999Y-127664228D02*
X146142856Y-127664228D01*
X146142856Y-127664228D02*
X146238094Y-127616609D01*
X146238094Y-127616609D02*
X146285713Y-127568990D01*
X146285713Y-127568990D02*
X146333332Y-127473752D01*
X146333332Y-127473752D02*
X146333332Y-127235657D01*
X146333332Y-127235657D02*
X146285713Y-127140419D01*
X146285713Y-127140419D02*
X146238094Y-127092800D01*
X146238094Y-127092800D02*
X146142856Y-127045180D01*
X146142856Y-127045180D02*
X145857142Y-127045180D01*
X145857142Y-127045180D02*
X145761904Y-127092800D01*
X145761904Y-127092800D02*
X145714285Y-127140419D01*
X146761904Y-127140419D02*
X146809523Y-127092800D01*
X146809523Y-127092800D02*
X146761904Y-127045180D01*
X146761904Y-127045180D02*
X146714285Y-127092800D01*
X146714285Y-127092800D02*
X146761904Y-127140419D01*
X146761904Y-127140419D02*
X146761904Y-127045180D01*
X147190475Y-127949942D02*
X147238094Y-127997561D01*
X147238094Y-127997561D02*
X147333332Y-128045180D01*
X147333332Y-128045180D02*
X147571427Y-128045180D01*
X147571427Y-128045180D02*
X147666665Y-127997561D01*
X147666665Y-127997561D02*
X147714284Y-127949942D01*
X147714284Y-127949942D02*
X147761903Y-127854704D01*
X147761903Y-127854704D02*
X147761903Y-127759466D01*
X147761903Y-127759466D02*
X147714284Y-127616609D01*
X147714284Y-127616609D02*
X147142856Y-127045180D01*
X147142856Y-127045180D02*
X147761903Y-127045180D01*
X148190475Y-127045180D02*
X148190475Y-127711847D01*
X148190475Y-128045180D02*
X148142856Y-127997561D01*
X148142856Y-127997561D02*
X148190475Y-127949942D01*
X148190475Y-127949942D02*
X148238094Y-127997561D01*
X148238094Y-127997561D02*
X148190475Y-128045180D01*
X148190475Y-128045180D02*
X148190475Y-127949942D01*
X148666665Y-127711847D02*
X148666665Y-127045180D01*
X148666665Y-127616609D02*
X148714284Y-127664228D01*
X148714284Y-127664228D02*
X148809522Y-127711847D01*
X148809522Y-127711847D02*
X148952379Y-127711847D01*
X148952379Y-127711847D02*
X149047617Y-127664228D01*
X149047617Y-127664228D02*
X149095236Y-127568990D01*
X149095236Y-127568990D02*
X149095236Y-127045180D01*
X150285713Y-127092800D02*
X150428570Y-127045180D01*
X150428570Y-127045180D02*
X150666665Y-127045180D01*
X150666665Y-127045180D02*
X150761903Y-127092800D01*
X150761903Y-127092800D02*
X150809522Y-127140419D01*
X150809522Y-127140419D02*
X150857141Y-127235657D01*
X150857141Y-127235657D02*
X150857141Y-127330895D01*
X150857141Y-127330895D02*
X150809522Y-127426133D01*
X150809522Y-127426133D02*
X150761903Y-127473752D01*
X150761903Y-127473752D02*
X150666665Y-127521371D01*
X150666665Y-127521371D02*
X150476189Y-127568990D01*
X150476189Y-127568990D02*
X150380951Y-127616609D01*
X150380951Y-127616609D02*
X150333332Y-127664228D01*
X150333332Y-127664228D02*
X150285713Y-127759466D01*
X150285713Y-127759466D02*
X150285713Y-127854704D01*
X150285713Y-127854704D02*
X150333332Y-127949942D01*
X150333332Y-127949942D02*
X150380951Y-127997561D01*
X150380951Y-127997561D02*
X150476189Y-128045180D01*
X150476189Y-128045180D02*
X150714284Y-128045180D01*
X150714284Y-128045180D02*
X150857141Y-127997561D01*
X151285713Y-127045180D02*
X151285713Y-128045180D01*
X151285713Y-128045180D02*
X151666665Y-128045180D01*
X151666665Y-128045180D02*
X151761903Y-127997561D01*
X151761903Y-127997561D02*
X151809522Y-127949942D01*
X151809522Y-127949942D02*
X151857141Y-127854704D01*
X151857141Y-127854704D02*
X151857141Y-127711847D01*
X151857141Y-127711847D02*
X151809522Y-127616609D01*
X151809522Y-127616609D02*
X151761903Y-127568990D01*
X151761903Y-127568990D02*
X151666665Y-127521371D01*
X151666665Y-127521371D02*
X151285713Y-127521371D01*
X152285713Y-127045180D02*
X152285713Y-128045180D01*
X153380951Y-128045180D02*
X153952379Y-128045180D01*
X153666665Y-127045180D02*
X153666665Y-128045180D01*
X154428570Y-127045180D02*
X154333332Y-127092800D01*
X154333332Y-127092800D02*
X154285713Y-127140419D01*
X154285713Y-127140419D02*
X154238094Y-127235657D01*
X154238094Y-127235657D02*
X154238094Y-127521371D01*
X154238094Y-127521371D02*
X154285713Y-127616609D01*
X154285713Y-127616609D02*
X154333332Y-127664228D01*
X154333332Y-127664228D02*
X154428570Y-127711847D01*
X154428570Y-127711847D02*
X154571427Y-127711847D01*
X154571427Y-127711847D02*
X154666665Y-127664228D01*
X154666665Y-127664228D02*
X154714284Y-127616609D01*
X154714284Y-127616609D02*
X154761903Y-127521371D01*
X154761903Y-127521371D02*
X154761903Y-127235657D01*
X154761903Y-127235657D02*
X154714284Y-127140419D01*
X154714284Y-127140419D02*
X154666665Y-127092800D01*
X154666665Y-127092800D02*
X154571427Y-127045180D01*
X154571427Y-127045180D02*
X154428570Y-127045180D01*
X155619046Y-127711847D02*
X155619046Y-127045180D01*
X155190475Y-127711847D02*
X155190475Y-127188038D01*
X155190475Y-127188038D02*
X155238094Y-127092800D01*
X155238094Y-127092800D02*
X155333332Y-127045180D01*
X155333332Y-127045180D02*
X155476189Y-127045180D01*
X155476189Y-127045180D02*
X155571427Y-127092800D01*
X155571427Y-127092800D02*
X155619046Y-127140419D01*
X156523808Y-127092800D02*
X156428570Y-127045180D01*
X156428570Y-127045180D02*
X156238094Y-127045180D01*
X156238094Y-127045180D02*
X156142856Y-127092800D01*
X156142856Y-127092800D02*
X156095237Y-127140419D01*
X156095237Y-127140419D02*
X156047618Y-127235657D01*
X156047618Y-127235657D02*
X156047618Y-127521371D01*
X156047618Y-127521371D02*
X156095237Y-127616609D01*
X156095237Y-127616609D02*
X156142856Y-127664228D01*
X156142856Y-127664228D02*
X156238094Y-127711847D01*
X156238094Y-127711847D02*
X156428570Y-127711847D01*
X156428570Y-127711847D02*
X156523808Y-127664228D01*
X156952380Y-127045180D02*
X156952380Y-128045180D01*
X157380951Y-127045180D02*
X157380951Y-127568990D01*
X157380951Y-127568990D02*
X157333332Y-127664228D01*
X157333332Y-127664228D02*
X157238094Y-127711847D01*
X157238094Y-127711847D02*
X157095237Y-127711847D01*
X157095237Y-127711847D02*
X156999999Y-127664228D01*
X156999999Y-127664228D02*
X156952380Y-127616609D01*
X158619047Y-127045180D02*
X158619047Y-128045180D01*
X158619047Y-128045180D02*
X158857142Y-128045180D01*
X158857142Y-128045180D02*
X158999999Y-127997561D01*
X158999999Y-127997561D02*
X159095237Y-127902323D01*
X159095237Y-127902323D02*
X159142856Y-127807085D01*
X159142856Y-127807085D02*
X159190475Y-127616609D01*
X159190475Y-127616609D02*
X159190475Y-127473752D01*
X159190475Y-127473752D02*
X159142856Y-127283276D01*
X159142856Y-127283276D02*
X159095237Y-127188038D01*
X159095237Y-127188038D02*
X158999999Y-127092800D01*
X158999999Y-127092800D02*
X158857142Y-127045180D01*
X158857142Y-127045180D02*
X158619047Y-127045180D01*
X159619047Y-127045180D02*
X159619047Y-127711847D01*
X159619047Y-128045180D02*
X159571428Y-127997561D01*
X159571428Y-127997561D02*
X159619047Y-127949942D01*
X159619047Y-127949942D02*
X159666666Y-127997561D01*
X159666666Y-127997561D02*
X159619047Y-128045180D01*
X159619047Y-128045180D02*
X159619047Y-127949942D01*
X160047618Y-127092800D02*
X160142856Y-127045180D01*
X160142856Y-127045180D02*
X160333332Y-127045180D01*
X160333332Y-127045180D02*
X160428570Y-127092800D01*
X160428570Y-127092800D02*
X160476189Y-127188038D01*
X160476189Y-127188038D02*
X160476189Y-127235657D01*
X160476189Y-127235657D02*
X160428570Y-127330895D01*
X160428570Y-127330895D02*
X160333332Y-127378514D01*
X160333332Y-127378514D02*
X160190475Y-127378514D01*
X160190475Y-127378514D02*
X160095237Y-127426133D01*
X160095237Y-127426133D02*
X160047618Y-127521371D01*
X160047618Y-127521371D02*
X160047618Y-127568990D01*
X160047618Y-127568990D02*
X160095237Y-127664228D01*
X160095237Y-127664228D02*
X160190475Y-127711847D01*
X160190475Y-127711847D02*
X160333332Y-127711847D01*
X160333332Y-127711847D02*
X160428570Y-127664228D01*
X160904761Y-127711847D02*
X160904761Y-126711847D01*
X160904761Y-127664228D02*
X160999999Y-127711847D01*
X160999999Y-127711847D02*
X161190475Y-127711847D01*
X161190475Y-127711847D02*
X161285713Y-127664228D01*
X161285713Y-127664228D02*
X161333332Y-127616609D01*
X161333332Y-127616609D02*
X161380951Y-127521371D01*
X161380951Y-127521371D02*
X161380951Y-127235657D01*
X161380951Y-127235657D02*
X161333332Y-127140419D01*
X161333332Y-127140419D02*
X161285713Y-127092800D01*
X161285713Y-127092800D02*
X161190475Y-127045180D01*
X161190475Y-127045180D02*
X160999999Y-127045180D01*
X160999999Y-127045180D02*
X160904761Y-127092800D01*
X161952380Y-127045180D02*
X161857142Y-127092800D01*
X161857142Y-127092800D02*
X161809523Y-127188038D01*
X161809523Y-127188038D02*
X161809523Y-128045180D01*
X162761904Y-127045180D02*
X162761904Y-127568990D01*
X162761904Y-127568990D02*
X162714285Y-127664228D01*
X162714285Y-127664228D02*
X162619047Y-127711847D01*
X162619047Y-127711847D02*
X162428571Y-127711847D01*
X162428571Y-127711847D02*
X162333333Y-127664228D01*
X162761904Y-127092800D02*
X162666666Y-127045180D01*
X162666666Y-127045180D02*
X162428571Y-127045180D01*
X162428571Y-127045180D02*
X162333333Y-127092800D01*
X162333333Y-127092800D02*
X162285714Y-127188038D01*
X162285714Y-127188038D02*
X162285714Y-127283276D01*
X162285714Y-127283276D02*
X162333333Y-127378514D01*
X162333333Y-127378514D02*
X162428571Y-127426133D01*
X162428571Y-127426133D02*
X162666666Y-127426133D01*
X162666666Y-127426133D02*
X162761904Y-127473752D01*
X163142857Y-127711847D02*
X163380952Y-127045180D01*
X163619047Y-127711847D02*
X163380952Y-127045180D01*
X163380952Y-127045180D02*
X163285714Y-126807085D01*
X163285714Y-126807085D02*
X163238095Y-126759466D01*
X163238095Y-126759466D02*
X163142857Y-126711847D01*
D11*
X106351503Y-110741764D02*
X106601503Y-110384621D01*
X106780074Y-110741764D02*
X106780074Y-109991764D01*
X106780074Y-109991764D02*
X106494360Y-109991764D01*
X106494360Y-109991764D02*
X106422931Y-110027478D01*
X106422931Y-110027478D02*
X106387217Y-110063192D01*
X106387217Y-110063192D02*
X106351503Y-110134621D01*
X106351503Y-110134621D02*
X106351503Y-110241764D01*
X106351503Y-110241764D02*
X106387217Y-110313192D01*
X106387217Y-110313192D02*
X106422931Y-110348907D01*
X106422931Y-110348907D02*
X106494360Y-110384621D01*
X106494360Y-110384621D02*
X106780074Y-110384621D01*
X106030074Y-110348907D02*
X105780074Y-110348907D01*
X105672931Y-110741764D02*
X106030074Y-110741764D01*
X106030074Y-110741764D02*
X106030074Y-109991764D01*
X106030074Y-109991764D02*
X105672931Y-109991764D01*
X105387217Y-110706050D02*
X105280075Y-110741764D01*
X105280075Y-110741764D02*
X105101503Y-110741764D01*
X105101503Y-110741764D02*
X105030075Y-110706050D01*
X105030075Y-110706050D02*
X104994360Y-110670335D01*
X104994360Y-110670335D02*
X104958646Y-110598907D01*
X104958646Y-110598907D02*
X104958646Y-110527478D01*
X104958646Y-110527478D02*
X104994360Y-110456050D01*
X104994360Y-110456050D02*
X105030075Y-110420335D01*
X105030075Y-110420335D02*
X105101503Y-110384621D01*
X105101503Y-110384621D02*
X105244360Y-110348907D01*
X105244360Y-110348907D02*
X105315789Y-110313192D01*
X105315789Y-110313192D02*
X105351503Y-110277478D01*
X105351503Y-110277478D02*
X105387217Y-110206050D01*
X105387217Y-110206050D02*
X105387217Y-110134621D01*
X105387217Y-110134621D02*
X105351503Y-110063192D01*
X105351503Y-110063192D02*
X105315789Y-110027478D01*
X105315789Y-110027478D02*
X105244360Y-109991764D01*
X105244360Y-109991764D02*
X105065789Y-109991764D01*
X105065789Y-109991764D02*
X104958646Y-110027478D01*
X104637217Y-110348907D02*
X104387217Y-110348907D01*
X104280074Y-110741764D02*
X104637217Y-110741764D01*
X104637217Y-110741764D02*
X104637217Y-109991764D01*
X104637217Y-109991764D02*
X104280074Y-109991764D01*
X104065789Y-109991764D02*
X103637218Y-109991764D01*
X103851503Y-110741764D02*
X103851503Y-109991764D01*
X106172932Y-87131764D02*
X105744361Y-87131764D01*
X105958646Y-87881764D02*
X105958646Y-87131764D01*
X105672932Y-87953192D02*
X105101503Y-87953192D01*
X104922931Y-87881764D02*
X104922931Y-87131764D01*
X104922931Y-87131764D02*
X104744360Y-87131764D01*
X104744360Y-87131764D02*
X104637217Y-87167478D01*
X104637217Y-87167478D02*
X104565788Y-87238907D01*
X104565788Y-87238907D02*
X104530074Y-87310335D01*
X104530074Y-87310335D02*
X104494360Y-87453192D01*
X104494360Y-87453192D02*
X104494360Y-87560335D01*
X104494360Y-87560335D02*
X104530074Y-87703192D01*
X104530074Y-87703192D02*
X104565788Y-87774621D01*
X104565788Y-87774621D02*
X104637217Y-87846050D01*
X104637217Y-87846050D02*
X104744360Y-87881764D01*
X104744360Y-87881764D02*
X104922931Y-87881764D01*
X104030074Y-87131764D02*
X103887217Y-87131764D01*
X103887217Y-87131764D02*
X103815788Y-87167478D01*
X103815788Y-87167478D02*
X103744360Y-87238907D01*
X103744360Y-87238907D02*
X103708645Y-87381764D01*
X103708645Y-87381764D02*
X103708645Y-87631764D01*
X103708645Y-87631764D02*
X103744360Y-87774621D01*
X103744360Y-87774621D02*
X103815788Y-87846050D01*
X103815788Y-87846050D02*
X103887217Y-87881764D01*
X103887217Y-87881764D02*
X104030074Y-87881764D01*
X104030074Y-87881764D02*
X104101503Y-87846050D01*
X104101503Y-87846050D02*
X104172931Y-87774621D01*
X104172931Y-87774621D02*
X104208645Y-87631764D01*
X104208645Y-87631764D02*
X104208645Y-87381764D01*
X104208645Y-87381764D02*
X104172931Y-87238907D01*
X104172931Y-87238907D02*
X104101503Y-87167478D01*
X104101503Y-87167478D02*
X104030074Y-87131764D01*
X109387217Y-98006050D02*
X109280075Y-98041764D01*
X109280075Y-98041764D02*
X109101503Y-98041764D01*
X109101503Y-98041764D02*
X109030075Y-98006050D01*
X109030075Y-98006050D02*
X108994360Y-97970335D01*
X108994360Y-97970335D02*
X108958646Y-97898907D01*
X108958646Y-97898907D02*
X108958646Y-97827478D01*
X108958646Y-97827478D02*
X108994360Y-97756050D01*
X108994360Y-97756050D02*
X109030075Y-97720335D01*
X109030075Y-97720335D02*
X109101503Y-97684621D01*
X109101503Y-97684621D02*
X109244360Y-97648907D01*
X109244360Y-97648907D02*
X109315789Y-97613192D01*
X109315789Y-97613192D02*
X109351503Y-97577478D01*
X109351503Y-97577478D02*
X109387217Y-97506050D01*
X109387217Y-97506050D02*
X109387217Y-97434621D01*
X109387217Y-97434621D02*
X109351503Y-97363192D01*
X109351503Y-97363192D02*
X109315789Y-97327478D01*
X109315789Y-97327478D02*
X109244360Y-97291764D01*
X109244360Y-97291764D02*
X109065789Y-97291764D01*
X109065789Y-97291764D02*
X108958646Y-97327478D01*
X108637217Y-98041764D02*
X108637217Y-97291764D01*
X108637217Y-97291764D02*
X108458646Y-97291764D01*
X108458646Y-97291764D02*
X108351503Y-97327478D01*
X108351503Y-97327478D02*
X108280074Y-97398907D01*
X108280074Y-97398907D02*
X108244360Y-97470335D01*
X108244360Y-97470335D02*
X108208646Y-97613192D01*
X108208646Y-97613192D02*
X108208646Y-97720335D01*
X108208646Y-97720335D02*
X108244360Y-97863192D01*
X108244360Y-97863192D02*
X108280074Y-97934621D01*
X108280074Y-97934621D02*
X108351503Y-98006050D01*
X108351503Y-98006050D02*
X108458646Y-98041764D01*
X108458646Y-98041764D02*
X108637217Y-98041764D01*
X107744360Y-97291764D02*
X107601503Y-97291764D01*
X107601503Y-97291764D02*
X107530074Y-97327478D01*
X107530074Y-97327478D02*
X107458646Y-97398907D01*
X107458646Y-97398907D02*
X107422931Y-97541764D01*
X107422931Y-97541764D02*
X107422931Y-97791764D01*
X107422931Y-97791764D02*
X107458646Y-97934621D01*
X107458646Y-97934621D02*
X107530074Y-98006050D01*
X107530074Y-98006050D02*
X107601503Y-98041764D01*
X107601503Y-98041764D02*
X107744360Y-98041764D01*
X107744360Y-98041764D02*
X107815789Y-98006050D01*
X107815789Y-98006050D02*
X107887217Y-97934621D01*
X107887217Y-97934621D02*
X107922931Y-97791764D01*
X107922931Y-97791764D02*
X107922931Y-97541764D01*
X107922931Y-97541764D02*
X107887217Y-97398907D01*
X107887217Y-97398907D02*
X107815789Y-97327478D01*
X107815789Y-97327478D02*
X107744360Y-97291764D01*
X106887217Y-98327478D02*
X106922932Y-98291764D01*
X106922932Y-98291764D02*
X106994360Y-98184621D01*
X106994360Y-98184621D02*
X107030075Y-98113192D01*
X107030075Y-98113192D02*
X107065789Y-98006050D01*
X107065789Y-98006050D02*
X107101503Y-97827478D01*
X107101503Y-97827478D02*
X107101503Y-97684621D01*
X107101503Y-97684621D02*
X107065789Y-97506050D01*
X107065789Y-97506050D02*
X107030075Y-97398907D01*
X107030075Y-97398907D02*
X106994360Y-97327478D01*
X106994360Y-97327478D02*
X106922932Y-97220335D01*
X106922932Y-97220335D02*
X106887217Y-97184621D01*
X106601503Y-98041764D02*
X106601503Y-97291764D01*
X106601503Y-97291764D02*
X106351503Y-97827478D01*
X106351503Y-97827478D02*
X106101503Y-97291764D01*
X106101503Y-97291764D02*
X106101503Y-98041764D01*
X105744360Y-98041764D02*
X105744360Y-97291764D01*
X105422931Y-98006050D02*
X105315789Y-98041764D01*
X105315789Y-98041764D02*
X105137217Y-98041764D01*
X105137217Y-98041764D02*
X105065789Y-98006050D01*
X105065789Y-98006050D02*
X105030074Y-97970335D01*
X105030074Y-97970335D02*
X104994360Y-97898907D01*
X104994360Y-97898907D02*
X104994360Y-97827478D01*
X104994360Y-97827478D02*
X105030074Y-97756050D01*
X105030074Y-97756050D02*
X105065789Y-97720335D01*
X105065789Y-97720335D02*
X105137217Y-97684621D01*
X105137217Y-97684621D02*
X105280074Y-97648907D01*
X105280074Y-97648907D02*
X105351503Y-97613192D01*
X105351503Y-97613192D02*
X105387217Y-97577478D01*
X105387217Y-97577478D02*
X105422931Y-97506050D01*
X105422931Y-97506050D02*
X105422931Y-97434621D01*
X105422931Y-97434621D02*
X105387217Y-97363192D01*
X105387217Y-97363192D02*
X105351503Y-97327478D01*
X105351503Y-97327478D02*
X105280074Y-97291764D01*
X105280074Y-97291764D02*
X105101503Y-97291764D01*
X105101503Y-97291764D02*
X104994360Y-97327478D01*
X104530074Y-97291764D02*
X104387217Y-97291764D01*
X104387217Y-97291764D02*
X104315788Y-97327478D01*
X104315788Y-97327478D02*
X104244360Y-97398907D01*
X104244360Y-97398907D02*
X104208645Y-97541764D01*
X104208645Y-97541764D02*
X104208645Y-97791764D01*
X104208645Y-97791764D02*
X104244360Y-97934621D01*
X104244360Y-97934621D02*
X104315788Y-98006050D01*
X104315788Y-98006050D02*
X104387217Y-98041764D01*
X104387217Y-98041764D02*
X104530074Y-98041764D01*
X104530074Y-98041764D02*
X104601503Y-98006050D01*
X104601503Y-98006050D02*
X104672931Y-97934621D01*
X104672931Y-97934621D02*
X104708645Y-97791764D01*
X104708645Y-97791764D02*
X104708645Y-97541764D01*
X104708645Y-97541764D02*
X104672931Y-97398907D01*
X104672931Y-97398907D02*
X104601503Y-97327478D01*
X104601503Y-97327478D02*
X104530074Y-97291764D01*
X103958646Y-98327478D02*
X103922931Y-98291764D01*
X103922931Y-98291764D02*
X103851503Y-98184621D01*
X103851503Y-98184621D02*
X103815789Y-98113192D01*
X103815789Y-98113192D02*
X103780074Y-98006050D01*
X103780074Y-98006050D02*
X103744360Y-97827478D01*
X103744360Y-97827478D02*
X103744360Y-97684621D01*
X103744360Y-97684621D02*
X103780074Y-97506050D01*
X103780074Y-97506050D02*
X103815789Y-97398907D01*
X103815789Y-97398907D02*
X103851503Y-97327478D01*
X103851503Y-97327478D02*
X103922931Y-97220335D01*
X103922931Y-97220335D02*
X103958646Y-97184621D01*
X108958646Y-105626050D02*
X108851504Y-105661764D01*
X108851504Y-105661764D02*
X108672932Y-105661764D01*
X108672932Y-105661764D02*
X108601504Y-105626050D01*
X108601504Y-105626050D02*
X108565789Y-105590335D01*
X108565789Y-105590335D02*
X108530075Y-105518907D01*
X108530075Y-105518907D02*
X108530075Y-105447478D01*
X108530075Y-105447478D02*
X108565789Y-105376050D01*
X108565789Y-105376050D02*
X108601504Y-105340335D01*
X108601504Y-105340335D02*
X108672932Y-105304621D01*
X108672932Y-105304621D02*
X108815789Y-105268907D01*
X108815789Y-105268907D02*
X108887218Y-105233192D01*
X108887218Y-105233192D02*
X108922932Y-105197478D01*
X108922932Y-105197478D02*
X108958646Y-105126050D01*
X108958646Y-105126050D02*
X108958646Y-105054621D01*
X108958646Y-105054621D02*
X108922932Y-104983192D01*
X108922932Y-104983192D02*
X108887218Y-104947478D01*
X108887218Y-104947478D02*
X108815789Y-104911764D01*
X108815789Y-104911764D02*
X108637218Y-104911764D01*
X108637218Y-104911764D02*
X108530075Y-104947478D01*
X108208646Y-105661764D02*
X108208646Y-104911764D01*
X108208646Y-104911764D02*
X108030075Y-104911764D01*
X108030075Y-104911764D02*
X107922932Y-104947478D01*
X107922932Y-104947478D02*
X107851503Y-105018907D01*
X107851503Y-105018907D02*
X107815789Y-105090335D01*
X107815789Y-105090335D02*
X107780075Y-105233192D01*
X107780075Y-105233192D02*
X107780075Y-105340335D01*
X107780075Y-105340335D02*
X107815789Y-105483192D01*
X107815789Y-105483192D02*
X107851503Y-105554621D01*
X107851503Y-105554621D02*
X107922932Y-105626050D01*
X107922932Y-105626050D02*
X108030075Y-105661764D01*
X108030075Y-105661764D02*
X108208646Y-105661764D01*
X107458646Y-105661764D02*
X107458646Y-104911764D01*
X106887217Y-105947478D02*
X106922932Y-105911764D01*
X106922932Y-105911764D02*
X106994360Y-105804621D01*
X106994360Y-105804621D02*
X107030075Y-105733192D01*
X107030075Y-105733192D02*
X107065789Y-105626050D01*
X107065789Y-105626050D02*
X107101503Y-105447478D01*
X107101503Y-105447478D02*
X107101503Y-105304621D01*
X107101503Y-105304621D02*
X107065789Y-105126050D01*
X107065789Y-105126050D02*
X107030075Y-105018907D01*
X107030075Y-105018907D02*
X106994360Y-104947478D01*
X106994360Y-104947478D02*
X106922932Y-104840335D01*
X106922932Y-104840335D02*
X106887217Y-104804621D01*
X106601503Y-105661764D02*
X106601503Y-104911764D01*
X106601503Y-104911764D02*
X106351503Y-105447478D01*
X106351503Y-105447478D02*
X106101503Y-104911764D01*
X106101503Y-104911764D02*
X106101503Y-105661764D01*
X105601503Y-104911764D02*
X105458646Y-104911764D01*
X105458646Y-104911764D02*
X105387217Y-104947478D01*
X105387217Y-104947478D02*
X105315789Y-105018907D01*
X105315789Y-105018907D02*
X105280074Y-105161764D01*
X105280074Y-105161764D02*
X105280074Y-105411764D01*
X105280074Y-105411764D02*
X105315789Y-105554621D01*
X105315789Y-105554621D02*
X105387217Y-105626050D01*
X105387217Y-105626050D02*
X105458646Y-105661764D01*
X105458646Y-105661764D02*
X105601503Y-105661764D01*
X105601503Y-105661764D02*
X105672932Y-105626050D01*
X105672932Y-105626050D02*
X105744360Y-105554621D01*
X105744360Y-105554621D02*
X105780074Y-105411764D01*
X105780074Y-105411764D02*
X105780074Y-105161764D01*
X105780074Y-105161764D02*
X105744360Y-105018907D01*
X105744360Y-105018907D02*
X105672932Y-104947478D01*
X105672932Y-104947478D02*
X105601503Y-104911764D01*
X104994360Y-105626050D02*
X104887218Y-105661764D01*
X104887218Y-105661764D02*
X104708646Y-105661764D01*
X104708646Y-105661764D02*
X104637218Y-105626050D01*
X104637218Y-105626050D02*
X104601503Y-105590335D01*
X104601503Y-105590335D02*
X104565789Y-105518907D01*
X104565789Y-105518907D02*
X104565789Y-105447478D01*
X104565789Y-105447478D02*
X104601503Y-105376050D01*
X104601503Y-105376050D02*
X104637218Y-105340335D01*
X104637218Y-105340335D02*
X104708646Y-105304621D01*
X104708646Y-105304621D02*
X104851503Y-105268907D01*
X104851503Y-105268907D02*
X104922932Y-105233192D01*
X104922932Y-105233192D02*
X104958646Y-105197478D01*
X104958646Y-105197478D02*
X104994360Y-105126050D01*
X104994360Y-105126050D02*
X104994360Y-105054621D01*
X104994360Y-105054621D02*
X104958646Y-104983192D01*
X104958646Y-104983192D02*
X104922932Y-104947478D01*
X104922932Y-104947478D02*
X104851503Y-104911764D01*
X104851503Y-104911764D02*
X104672932Y-104911764D01*
X104672932Y-104911764D02*
X104565789Y-104947478D01*
X104244360Y-105661764D02*
X104244360Y-104911764D01*
X103958646Y-105947478D02*
X103922931Y-105911764D01*
X103922931Y-105911764D02*
X103851503Y-105804621D01*
X103851503Y-105804621D02*
X103815789Y-105733192D01*
X103815789Y-105733192D02*
X103780074Y-105626050D01*
X103780074Y-105626050D02*
X103744360Y-105447478D01*
X103744360Y-105447478D02*
X103744360Y-105304621D01*
X103744360Y-105304621D02*
X103780074Y-105126050D01*
X103780074Y-105126050D02*
X103815789Y-105018907D01*
X103815789Y-105018907D02*
X103851503Y-104947478D01*
X103851503Y-104947478D02*
X103922931Y-104840335D01*
X103922931Y-104840335D02*
X103958646Y-104804621D01*
X104887217Y-108201764D02*
X104887217Y-107451764D01*
X104887217Y-107451764D02*
X104708646Y-107451764D01*
X104708646Y-107451764D02*
X104601503Y-107487478D01*
X104601503Y-107487478D02*
X104530074Y-107558907D01*
X104530074Y-107558907D02*
X104494360Y-107630335D01*
X104494360Y-107630335D02*
X104458646Y-107773192D01*
X104458646Y-107773192D02*
X104458646Y-107880335D01*
X104458646Y-107880335D02*
X104494360Y-108023192D01*
X104494360Y-108023192D02*
X104530074Y-108094621D01*
X104530074Y-108094621D02*
X104601503Y-108166050D01*
X104601503Y-108166050D02*
X104708646Y-108201764D01*
X104708646Y-108201764D02*
X104887217Y-108201764D01*
X103708646Y-108130335D02*
X103744360Y-108166050D01*
X103744360Y-108166050D02*
X103851503Y-108201764D01*
X103851503Y-108201764D02*
X103922931Y-108201764D01*
X103922931Y-108201764D02*
X104030074Y-108166050D01*
X104030074Y-108166050D02*
X104101503Y-108094621D01*
X104101503Y-108094621D02*
X104137217Y-108023192D01*
X104137217Y-108023192D02*
X104172931Y-107880335D01*
X104172931Y-107880335D02*
X104172931Y-107773192D01*
X104172931Y-107773192D02*
X104137217Y-107630335D01*
X104137217Y-107630335D02*
X104101503Y-107558907D01*
X104101503Y-107558907D02*
X104030074Y-107487478D01*
X104030074Y-107487478D02*
X103922931Y-107451764D01*
X103922931Y-107451764D02*
X103851503Y-107451764D01*
X103851503Y-107451764D02*
X103744360Y-107487478D01*
X103744360Y-107487478D02*
X103708646Y-107523192D01*
X105280074Y-115107478D02*
X105351503Y-115071764D01*
X105351503Y-115071764D02*
X105458645Y-115071764D01*
X105458645Y-115071764D02*
X105565788Y-115107478D01*
X105565788Y-115107478D02*
X105637217Y-115178907D01*
X105637217Y-115178907D02*
X105672931Y-115250335D01*
X105672931Y-115250335D02*
X105708645Y-115393192D01*
X105708645Y-115393192D02*
X105708645Y-115500335D01*
X105708645Y-115500335D02*
X105672931Y-115643192D01*
X105672931Y-115643192D02*
X105637217Y-115714621D01*
X105637217Y-115714621D02*
X105565788Y-115786050D01*
X105565788Y-115786050D02*
X105458645Y-115821764D01*
X105458645Y-115821764D02*
X105387217Y-115821764D01*
X105387217Y-115821764D02*
X105280074Y-115786050D01*
X105280074Y-115786050D02*
X105244360Y-115750335D01*
X105244360Y-115750335D02*
X105244360Y-115500335D01*
X105244360Y-115500335D02*
X105387217Y-115500335D01*
X104922931Y-115821764D02*
X104922931Y-115071764D01*
X104922931Y-115071764D02*
X104494360Y-115821764D01*
X104494360Y-115821764D02*
X104494360Y-115071764D01*
X104137217Y-115821764D02*
X104137217Y-115071764D01*
X104137217Y-115071764D02*
X103958646Y-115071764D01*
X103958646Y-115071764D02*
X103851503Y-115107478D01*
X103851503Y-115107478D02*
X103780074Y-115178907D01*
X103780074Y-115178907D02*
X103744360Y-115250335D01*
X103744360Y-115250335D02*
X103708646Y-115393192D01*
X103708646Y-115393192D02*
X103708646Y-115500335D01*
X103708646Y-115500335D02*
X103744360Y-115643192D01*
X103744360Y-115643192D02*
X103780074Y-115714621D01*
X103780074Y-115714621D02*
X103851503Y-115786050D01*
X103851503Y-115786050D02*
X103958646Y-115821764D01*
X103958646Y-115821764D02*
X104137217Y-115821764D01*
X106101504Y-92211764D02*
X105672933Y-92211764D01*
X105887218Y-92961764D02*
X105887218Y-92211764D01*
X105601504Y-93033192D02*
X105030075Y-93033192D01*
X104422932Y-92890335D02*
X104458646Y-92926050D01*
X104458646Y-92926050D02*
X104565789Y-92961764D01*
X104565789Y-92961764D02*
X104637217Y-92961764D01*
X104637217Y-92961764D02*
X104744360Y-92926050D01*
X104744360Y-92926050D02*
X104815789Y-92854621D01*
X104815789Y-92854621D02*
X104851503Y-92783192D01*
X104851503Y-92783192D02*
X104887217Y-92640335D01*
X104887217Y-92640335D02*
X104887217Y-92533192D01*
X104887217Y-92533192D02*
X104851503Y-92390335D01*
X104851503Y-92390335D02*
X104815789Y-92318907D01*
X104815789Y-92318907D02*
X104744360Y-92247478D01*
X104744360Y-92247478D02*
X104637217Y-92211764D01*
X104637217Y-92211764D02*
X104565789Y-92211764D01*
X104565789Y-92211764D02*
X104458646Y-92247478D01*
X104458646Y-92247478D02*
X104422932Y-92283192D01*
X104137217Y-92926050D02*
X104030075Y-92961764D01*
X104030075Y-92961764D02*
X103851503Y-92961764D01*
X103851503Y-92961764D02*
X103780075Y-92926050D01*
X103780075Y-92926050D02*
X103744360Y-92890335D01*
X103744360Y-92890335D02*
X103708646Y-92818907D01*
X103708646Y-92818907D02*
X103708646Y-92747478D01*
X103708646Y-92747478D02*
X103744360Y-92676050D01*
X103744360Y-92676050D02*
X103780075Y-92640335D01*
X103780075Y-92640335D02*
X103851503Y-92604621D01*
X103851503Y-92604621D02*
X103994360Y-92568907D01*
X103994360Y-92568907D02*
X104065789Y-92533192D01*
X104065789Y-92533192D02*
X104101503Y-92497478D01*
X104101503Y-92497478D02*
X104137217Y-92426050D01*
X104137217Y-92426050D02*
X104137217Y-92354621D01*
X104137217Y-92354621D02*
X104101503Y-92283192D01*
X104101503Y-92283192D02*
X104065789Y-92247478D01*
X104065789Y-92247478D02*
X103994360Y-92211764D01*
X103994360Y-92211764D02*
X103815789Y-92211764D01*
X103815789Y-92211764D02*
X103708646Y-92247478D01*
X105637217Y-117611764D02*
X105387217Y-118361764D01*
X105387217Y-118361764D02*
X105137217Y-117611764D01*
X104458646Y-118290335D02*
X104494360Y-118326050D01*
X104494360Y-118326050D02*
X104601503Y-118361764D01*
X104601503Y-118361764D02*
X104672931Y-118361764D01*
X104672931Y-118361764D02*
X104780074Y-118326050D01*
X104780074Y-118326050D02*
X104851503Y-118254621D01*
X104851503Y-118254621D02*
X104887217Y-118183192D01*
X104887217Y-118183192D02*
X104922931Y-118040335D01*
X104922931Y-118040335D02*
X104922931Y-117933192D01*
X104922931Y-117933192D02*
X104887217Y-117790335D01*
X104887217Y-117790335D02*
X104851503Y-117718907D01*
X104851503Y-117718907D02*
X104780074Y-117647478D01*
X104780074Y-117647478D02*
X104672931Y-117611764D01*
X104672931Y-117611764D02*
X104601503Y-117611764D01*
X104601503Y-117611764D02*
X104494360Y-117647478D01*
X104494360Y-117647478D02*
X104458646Y-117683192D01*
X103708646Y-118290335D02*
X103744360Y-118326050D01*
X103744360Y-118326050D02*
X103851503Y-118361764D01*
X103851503Y-118361764D02*
X103922931Y-118361764D01*
X103922931Y-118361764D02*
X104030074Y-118326050D01*
X104030074Y-118326050D02*
X104101503Y-118254621D01*
X104101503Y-118254621D02*
X104137217Y-118183192D01*
X104137217Y-118183192D02*
X104172931Y-118040335D01*
X104172931Y-118040335D02*
X104172931Y-117933192D01*
X104172931Y-117933192D02*
X104137217Y-117790335D01*
X104137217Y-117790335D02*
X104101503Y-117718907D01*
X104101503Y-117718907D02*
X104030074Y-117647478D01*
X104030074Y-117647478D02*
X103922931Y-117611764D01*
X103922931Y-117611764D02*
X103851503Y-117611764D01*
X103851503Y-117611764D02*
X103744360Y-117647478D01*
X103744360Y-117647478D02*
X103708646Y-117683192D01*
X105637217Y-103086050D02*
X105530075Y-103121764D01*
X105530075Y-103121764D02*
X105351503Y-103121764D01*
X105351503Y-103121764D02*
X105280075Y-103086050D01*
X105280075Y-103086050D02*
X105244360Y-103050335D01*
X105244360Y-103050335D02*
X105208646Y-102978907D01*
X105208646Y-102978907D02*
X105208646Y-102907478D01*
X105208646Y-102907478D02*
X105244360Y-102836050D01*
X105244360Y-102836050D02*
X105280075Y-102800335D01*
X105280075Y-102800335D02*
X105351503Y-102764621D01*
X105351503Y-102764621D02*
X105494360Y-102728907D01*
X105494360Y-102728907D02*
X105565789Y-102693192D01*
X105565789Y-102693192D02*
X105601503Y-102657478D01*
X105601503Y-102657478D02*
X105637217Y-102586050D01*
X105637217Y-102586050D02*
X105637217Y-102514621D01*
X105637217Y-102514621D02*
X105601503Y-102443192D01*
X105601503Y-102443192D02*
X105565789Y-102407478D01*
X105565789Y-102407478D02*
X105494360Y-102371764D01*
X105494360Y-102371764D02*
X105315789Y-102371764D01*
X105315789Y-102371764D02*
X105208646Y-102407478D01*
X104458646Y-103050335D02*
X104494360Y-103086050D01*
X104494360Y-103086050D02*
X104601503Y-103121764D01*
X104601503Y-103121764D02*
X104672931Y-103121764D01*
X104672931Y-103121764D02*
X104780074Y-103086050D01*
X104780074Y-103086050D02*
X104851503Y-103014621D01*
X104851503Y-103014621D02*
X104887217Y-102943192D01*
X104887217Y-102943192D02*
X104922931Y-102800335D01*
X104922931Y-102800335D02*
X104922931Y-102693192D01*
X104922931Y-102693192D02*
X104887217Y-102550335D01*
X104887217Y-102550335D02*
X104851503Y-102478907D01*
X104851503Y-102478907D02*
X104780074Y-102407478D01*
X104780074Y-102407478D02*
X104672931Y-102371764D01*
X104672931Y-102371764D02*
X104601503Y-102371764D01*
X104601503Y-102371764D02*
X104494360Y-102407478D01*
X104494360Y-102407478D02*
X104458646Y-102443192D01*
X104137217Y-103121764D02*
X104137217Y-102371764D01*
X103708646Y-103121764D02*
X104030074Y-102693192D01*
X103708646Y-102371764D02*
X104137217Y-102800335D01*
X106530075Y-84591764D02*
X106101504Y-84591764D01*
X106315789Y-85341764D02*
X106315789Y-84591764D01*
X106030075Y-85413192D02*
X105458646Y-85413192D01*
X105280074Y-85341764D02*
X105280074Y-84591764D01*
X104494360Y-85341764D02*
X104744360Y-84984621D01*
X104922931Y-85341764D02*
X104922931Y-84591764D01*
X104922931Y-84591764D02*
X104637217Y-84591764D01*
X104637217Y-84591764D02*
X104565788Y-84627478D01*
X104565788Y-84627478D02*
X104530074Y-84663192D01*
X104530074Y-84663192D02*
X104494360Y-84734621D01*
X104494360Y-84734621D02*
X104494360Y-84841764D01*
X104494360Y-84841764D02*
X104530074Y-84913192D01*
X104530074Y-84913192D02*
X104565788Y-84948907D01*
X104565788Y-84948907D02*
X104637217Y-84984621D01*
X104637217Y-84984621D02*
X104922931Y-84984621D01*
X103672931Y-85413192D02*
X103744360Y-85377478D01*
X103744360Y-85377478D02*
X103815788Y-85306050D01*
X103815788Y-85306050D02*
X103922931Y-85198907D01*
X103922931Y-85198907D02*
X103994360Y-85163192D01*
X103994360Y-85163192D02*
X104065788Y-85163192D01*
X104030074Y-85341764D02*
X104101503Y-85306050D01*
X104101503Y-85306050D02*
X104172931Y-85234621D01*
X104172931Y-85234621D02*
X104208645Y-85091764D01*
X104208645Y-85091764D02*
X104208645Y-84841764D01*
X104208645Y-84841764D02*
X104172931Y-84698907D01*
X104172931Y-84698907D02*
X104101503Y-84627478D01*
X104101503Y-84627478D02*
X104030074Y-84591764D01*
X104030074Y-84591764D02*
X103887217Y-84591764D01*
X103887217Y-84591764D02*
X103815788Y-84627478D01*
X103815788Y-84627478D02*
X103744360Y-84698907D01*
X103744360Y-84698907D02*
X103708645Y-84841764D01*
X103708645Y-84841764D02*
X103708645Y-85091764D01*
X103708645Y-85091764D02*
X103744360Y-85234621D01*
X103744360Y-85234621D02*
X103815788Y-85306050D01*
X103815788Y-85306050D02*
X103887217Y-85341764D01*
X103887217Y-85341764D02*
X104030074Y-85341764D01*
D10*
X189034819Y-100285714D02*
X188034819Y-100285714D01*
X188034819Y-100285714D02*
X188034819Y-100523809D01*
X188034819Y-100523809D02*
X188082438Y-100666666D01*
X188082438Y-100666666D02*
X188177676Y-100761904D01*
X188177676Y-100761904D02*
X188272914Y-100809523D01*
X188272914Y-100809523D02*
X188463390Y-100857142D01*
X188463390Y-100857142D02*
X188606247Y-100857142D01*
X188606247Y-100857142D02*
X188796723Y-100809523D01*
X188796723Y-100809523D02*
X188891961Y-100761904D01*
X188891961Y-100761904D02*
X188987200Y-100666666D01*
X188987200Y-100666666D02*
X189034819Y-100523809D01*
X189034819Y-100523809D02*
X189034819Y-100285714D01*
X188987200Y-101238095D02*
X189034819Y-101380952D01*
X189034819Y-101380952D02*
X189034819Y-101619047D01*
X189034819Y-101619047D02*
X188987200Y-101714285D01*
X188987200Y-101714285D02*
X188939580Y-101761904D01*
X188939580Y-101761904D02*
X188844342Y-101809523D01*
X188844342Y-101809523D02*
X188749104Y-101809523D01*
X188749104Y-101809523D02*
X188653866Y-101761904D01*
X188653866Y-101761904D02*
X188606247Y-101714285D01*
X188606247Y-101714285D02*
X188558628Y-101619047D01*
X188558628Y-101619047D02*
X188511009Y-101428571D01*
X188511009Y-101428571D02*
X188463390Y-101333333D01*
X188463390Y-101333333D02*
X188415771Y-101285714D01*
X188415771Y-101285714D02*
X188320533Y-101238095D01*
X188320533Y-101238095D02*
X188225295Y-101238095D01*
X188225295Y-101238095D02*
X188130057Y-101285714D01*
X188130057Y-101285714D02*
X188082438Y-101333333D01*
X188082438Y-101333333D02*
X188034819Y-101428571D01*
X188034819Y-101428571D02*
X188034819Y-101666666D01*
X188034819Y-101666666D02*
X188082438Y-101809523D01*
X188034819Y-102142857D02*
X188034819Y-102761904D01*
X188034819Y-102761904D02*
X188415771Y-102428571D01*
X188415771Y-102428571D02*
X188415771Y-102571428D01*
X188415771Y-102571428D02*
X188463390Y-102666666D01*
X188463390Y-102666666D02*
X188511009Y-102714285D01*
X188511009Y-102714285D02*
X188606247Y-102761904D01*
X188606247Y-102761904D02*
X188844342Y-102761904D01*
X188844342Y-102761904D02*
X188939580Y-102714285D01*
X188939580Y-102714285D02*
X188987200Y-102666666D01*
X188987200Y-102666666D02*
X189034819Y-102571428D01*
X189034819Y-102571428D02*
X189034819Y-102285714D01*
X189034819Y-102285714D02*
X188987200Y-102190476D01*
X188987200Y-102190476D02*
X188939580Y-102142857D01*
X163023809Y-125454819D02*
X163023809Y-124454819D01*
X162071429Y-125454819D02*
X162547619Y-125454819D01*
X162547619Y-125454819D02*
X162547619Y-124454819D01*
X161738095Y-125454819D02*
X161738095Y-124454819D01*
X161214286Y-125454819D02*
X161023810Y-125454819D01*
X161023810Y-125454819D02*
X160928572Y-125407200D01*
X160928572Y-125407200D02*
X160880953Y-125359580D01*
X160880953Y-125359580D02*
X160785715Y-125216723D01*
X160785715Y-125216723D02*
X160738096Y-125026247D01*
X160738096Y-125026247D02*
X160738096Y-124645295D01*
X160738096Y-124645295D02*
X160785715Y-124550057D01*
X160785715Y-124550057D02*
X160833334Y-124502438D01*
X160833334Y-124502438D02*
X160928572Y-124454819D01*
X160928572Y-124454819D02*
X161119048Y-124454819D01*
X161119048Y-124454819D02*
X161214286Y-124502438D01*
X161214286Y-124502438D02*
X161261905Y-124550057D01*
X161261905Y-124550057D02*
X161309524Y-124645295D01*
X161309524Y-124645295D02*
X161309524Y-124883390D01*
X161309524Y-124883390D02*
X161261905Y-124978628D01*
X161261905Y-124978628D02*
X161214286Y-125026247D01*
X161214286Y-125026247D02*
X161119048Y-125073866D01*
X161119048Y-125073866D02*
X160928572Y-125073866D01*
X160928572Y-125073866D02*
X160833334Y-125026247D01*
X160833334Y-125026247D02*
X160785715Y-124978628D01*
X160785715Y-124978628D02*
X160738096Y-124883390D01*
X160404762Y-124454819D02*
X159785715Y-124454819D01*
X159785715Y-124454819D02*
X160119048Y-124835771D01*
X160119048Y-124835771D02*
X159976191Y-124835771D01*
X159976191Y-124835771D02*
X159880953Y-124883390D01*
X159880953Y-124883390D02*
X159833334Y-124931009D01*
X159833334Y-124931009D02*
X159785715Y-125026247D01*
X159785715Y-125026247D02*
X159785715Y-125264342D01*
X159785715Y-125264342D02*
X159833334Y-125359580D01*
X159833334Y-125359580D02*
X159880953Y-125407200D01*
X159880953Y-125407200D02*
X159976191Y-125454819D01*
X159976191Y-125454819D02*
X160261905Y-125454819D01*
X160261905Y-125454819D02*
X160357143Y-125407200D01*
X160357143Y-125407200D02*
X160404762Y-125359580D01*
X158928572Y-124788152D02*
X158928572Y-125454819D01*
X159166667Y-124407200D02*
X159404762Y-125121485D01*
X159404762Y-125121485D02*
X158785715Y-125121485D01*
X157880953Y-125454819D02*
X158452381Y-125454819D01*
X158166667Y-125454819D02*
X158166667Y-124454819D01*
X158166667Y-124454819D02*
X158261905Y-124597676D01*
X158261905Y-124597676D02*
X158357143Y-124692914D01*
X158357143Y-124692914D02*
X158452381Y-124740533D01*
X156738095Y-124550057D02*
X156690476Y-124502438D01*
X156690476Y-124502438D02*
X156595238Y-124454819D01*
X156595238Y-124454819D02*
X156357143Y-124454819D01*
X156357143Y-124454819D02*
X156261905Y-124502438D01*
X156261905Y-124502438D02*
X156214286Y-124550057D01*
X156214286Y-124550057D02*
X156166667Y-124645295D01*
X156166667Y-124645295D02*
X156166667Y-124740533D01*
X156166667Y-124740533D02*
X156214286Y-124883390D01*
X156214286Y-124883390D02*
X156785714Y-125454819D01*
X156785714Y-125454819D02*
X156166667Y-125454819D01*
X155738095Y-125359580D02*
X155690476Y-125407200D01*
X155690476Y-125407200D02*
X155738095Y-125454819D01*
X155738095Y-125454819D02*
X155785714Y-125407200D01*
X155785714Y-125407200D02*
X155738095Y-125359580D01*
X155738095Y-125359580D02*
X155738095Y-125454819D01*
X155119048Y-124883390D02*
X155214286Y-124835771D01*
X155214286Y-124835771D02*
X155261905Y-124788152D01*
X155261905Y-124788152D02*
X155309524Y-124692914D01*
X155309524Y-124692914D02*
X155309524Y-124645295D01*
X155309524Y-124645295D02*
X155261905Y-124550057D01*
X155261905Y-124550057D02*
X155214286Y-124502438D01*
X155214286Y-124502438D02*
X155119048Y-124454819D01*
X155119048Y-124454819D02*
X154928572Y-124454819D01*
X154928572Y-124454819D02*
X154833334Y-124502438D01*
X154833334Y-124502438D02*
X154785715Y-124550057D01*
X154785715Y-124550057D02*
X154738096Y-124645295D01*
X154738096Y-124645295D02*
X154738096Y-124692914D01*
X154738096Y-124692914D02*
X154785715Y-124788152D01*
X154785715Y-124788152D02*
X154833334Y-124835771D01*
X154833334Y-124835771D02*
X154928572Y-124883390D01*
X154928572Y-124883390D02*
X155119048Y-124883390D01*
X155119048Y-124883390D02*
X155214286Y-124931009D01*
X155214286Y-124931009D02*
X155261905Y-124978628D01*
X155261905Y-124978628D02*
X155309524Y-125073866D01*
X155309524Y-125073866D02*
X155309524Y-125264342D01*
X155309524Y-125264342D02*
X155261905Y-125359580D01*
X155261905Y-125359580D02*
X155214286Y-125407200D01*
X155214286Y-125407200D02*
X155119048Y-125454819D01*
X155119048Y-125454819D02*
X154928572Y-125454819D01*
X154928572Y-125454819D02*
X154833334Y-125407200D01*
X154833334Y-125407200D02*
X154785715Y-125359580D01*
X154785715Y-125359580D02*
X154738096Y-125264342D01*
X154738096Y-125264342D02*
X154738096Y-125073866D01*
X154738096Y-125073866D02*
X154785715Y-124978628D01*
X154785715Y-124978628D02*
X154833334Y-124931009D01*
X154833334Y-124931009D02*
X154928572Y-124883390D01*
X154309524Y-125454819D02*
X154309524Y-124788152D01*
X154309524Y-124454819D02*
X154357143Y-124502438D01*
X154357143Y-124502438D02*
X154309524Y-124550057D01*
X154309524Y-124550057D02*
X154261905Y-124502438D01*
X154261905Y-124502438D02*
X154309524Y-124454819D01*
X154309524Y-124454819D02*
X154309524Y-124550057D01*
X153833334Y-124788152D02*
X153833334Y-125454819D01*
X153833334Y-124883390D02*
X153785715Y-124835771D01*
X153785715Y-124835771D02*
X153690477Y-124788152D01*
X153690477Y-124788152D02*
X153547620Y-124788152D01*
X153547620Y-124788152D02*
X153452382Y-124835771D01*
X153452382Y-124835771D02*
X153404763Y-124931009D01*
X153404763Y-124931009D02*
X153404763Y-125454819D01*
X152214286Y-125407200D02*
X152071429Y-125454819D01*
X152071429Y-125454819D02*
X151833334Y-125454819D01*
X151833334Y-125454819D02*
X151738096Y-125407200D01*
X151738096Y-125407200D02*
X151690477Y-125359580D01*
X151690477Y-125359580D02*
X151642858Y-125264342D01*
X151642858Y-125264342D02*
X151642858Y-125169104D01*
X151642858Y-125169104D02*
X151690477Y-125073866D01*
X151690477Y-125073866D02*
X151738096Y-125026247D01*
X151738096Y-125026247D02*
X151833334Y-124978628D01*
X151833334Y-124978628D02*
X152023810Y-124931009D01*
X152023810Y-124931009D02*
X152119048Y-124883390D01*
X152119048Y-124883390D02*
X152166667Y-124835771D01*
X152166667Y-124835771D02*
X152214286Y-124740533D01*
X152214286Y-124740533D02*
X152214286Y-124645295D01*
X152214286Y-124645295D02*
X152166667Y-124550057D01*
X152166667Y-124550057D02*
X152119048Y-124502438D01*
X152119048Y-124502438D02*
X152023810Y-124454819D01*
X152023810Y-124454819D02*
X151785715Y-124454819D01*
X151785715Y-124454819D02*
X151642858Y-124502438D01*
X151214286Y-125454819D02*
X151214286Y-124454819D01*
X151214286Y-124454819D02*
X150833334Y-124454819D01*
X150833334Y-124454819D02*
X150738096Y-124502438D01*
X150738096Y-124502438D02*
X150690477Y-124550057D01*
X150690477Y-124550057D02*
X150642858Y-124645295D01*
X150642858Y-124645295D02*
X150642858Y-124788152D01*
X150642858Y-124788152D02*
X150690477Y-124883390D01*
X150690477Y-124883390D02*
X150738096Y-124931009D01*
X150738096Y-124931009D02*
X150833334Y-124978628D01*
X150833334Y-124978628D02*
X151214286Y-124978628D01*
X150214286Y-125454819D02*
X150214286Y-124454819D01*
X149119048Y-124454819D02*
X148547620Y-124454819D01*
X148833334Y-125454819D02*
X148833334Y-124454819D01*
X148071429Y-125454819D02*
X148166667Y-125407200D01*
X148166667Y-125407200D02*
X148214286Y-125359580D01*
X148214286Y-125359580D02*
X148261905Y-125264342D01*
X148261905Y-125264342D02*
X148261905Y-124978628D01*
X148261905Y-124978628D02*
X148214286Y-124883390D01*
X148214286Y-124883390D02*
X148166667Y-124835771D01*
X148166667Y-124835771D02*
X148071429Y-124788152D01*
X148071429Y-124788152D02*
X147928572Y-124788152D01*
X147928572Y-124788152D02*
X147833334Y-124835771D01*
X147833334Y-124835771D02*
X147785715Y-124883390D01*
X147785715Y-124883390D02*
X147738096Y-124978628D01*
X147738096Y-124978628D02*
X147738096Y-125264342D01*
X147738096Y-125264342D02*
X147785715Y-125359580D01*
X147785715Y-125359580D02*
X147833334Y-125407200D01*
X147833334Y-125407200D02*
X147928572Y-125454819D01*
X147928572Y-125454819D02*
X148071429Y-125454819D01*
X146880953Y-124788152D02*
X146880953Y-125454819D01*
X147309524Y-124788152D02*
X147309524Y-125311961D01*
X147309524Y-125311961D02*
X147261905Y-125407200D01*
X147261905Y-125407200D02*
X147166667Y-125454819D01*
X147166667Y-125454819D02*
X147023810Y-125454819D01*
X147023810Y-125454819D02*
X146928572Y-125407200D01*
X146928572Y-125407200D02*
X146880953Y-125359580D01*
X145976191Y-125407200D02*
X146071429Y-125454819D01*
X146071429Y-125454819D02*
X146261905Y-125454819D01*
X146261905Y-125454819D02*
X146357143Y-125407200D01*
X146357143Y-125407200D02*
X146404762Y-125359580D01*
X146404762Y-125359580D02*
X146452381Y-125264342D01*
X146452381Y-125264342D02*
X146452381Y-124978628D01*
X146452381Y-124978628D02*
X146404762Y-124883390D01*
X146404762Y-124883390D02*
X146357143Y-124835771D01*
X146357143Y-124835771D02*
X146261905Y-124788152D01*
X146261905Y-124788152D02*
X146071429Y-124788152D01*
X146071429Y-124788152D02*
X145976191Y-124835771D01*
X145547619Y-125454819D02*
X145547619Y-124454819D01*
X145119048Y-125454819D02*
X145119048Y-124931009D01*
X145119048Y-124931009D02*
X145166667Y-124835771D01*
X145166667Y-124835771D02*
X145261905Y-124788152D01*
X145261905Y-124788152D02*
X145404762Y-124788152D01*
X145404762Y-124788152D02*
X145500000Y-124835771D01*
X145500000Y-124835771D02*
X145547619Y-124883390D01*
X143880952Y-125454819D02*
X143880952Y-124454819D01*
X143880952Y-124454819D02*
X143642857Y-124454819D01*
X143642857Y-124454819D02*
X143500000Y-124502438D01*
X143500000Y-124502438D02*
X143404762Y-124597676D01*
X143404762Y-124597676D02*
X143357143Y-124692914D01*
X143357143Y-124692914D02*
X143309524Y-124883390D01*
X143309524Y-124883390D02*
X143309524Y-125026247D01*
X143309524Y-125026247D02*
X143357143Y-125216723D01*
X143357143Y-125216723D02*
X143404762Y-125311961D01*
X143404762Y-125311961D02*
X143500000Y-125407200D01*
X143500000Y-125407200D02*
X143642857Y-125454819D01*
X143642857Y-125454819D02*
X143880952Y-125454819D01*
X142880952Y-125454819D02*
X142880952Y-124788152D01*
X142880952Y-124454819D02*
X142928571Y-124502438D01*
X142928571Y-124502438D02*
X142880952Y-124550057D01*
X142880952Y-124550057D02*
X142833333Y-124502438D01*
X142833333Y-124502438D02*
X142880952Y-124454819D01*
X142880952Y-124454819D02*
X142880952Y-124550057D01*
X142452381Y-125407200D02*
X142357143Y-125454819D01*
X142357143Y-125454819D02*
X142166667Y-125454819D01*
X142166667Y-125454819D02*
X142071429Y-125407200D01*
X142071429Y-125407200D02*
X142023810Y-125311961D01*
X142023810Y-125311961D02*
X142023810Y-125264342D01*
X142023810Y-125264342D02*
X142071429Y-125169104D01*
X142071429Y-125169104D02*
X142166667Y-125121485D01*
X142166667Y-125121485D02*
X142309524Y-125121485D01*
X142309524Y-125121485D02*
X142404762Y-125073866D01*
X142404762Y-125073866D02*
X142452381Y-124978628D01*
X142452381Y-124978628D02*
X142452381Y-124931009D01*
X142452381Y-124931009D02*
X142404762Y-124835771D01*
X142404762Y-124835771D02*
X142309524Y-124788152D01*
X142309524Y-124788152D02*
X142166667Y-124788152D01*
X142166667Y-124788152D02*
X142071429Y-124835771D01*
X141595238Y-124788152D02*
X141595238Y-125788152D01*
X141595238Y-124835771D02*
X141500000Y-124788152D01*
X141500000Y-124788152D02*
X141309524Y-124788152D01*
X141309524Y-124788152D02*
X141214286Y-124835771D01*
X141214286Y-124835771D02*
X141166667Y-124883390D01*
X141166667Y-124883390D02*
X141119048Y-124978628D01*
X141119048Y-124978628D02*
X141119048Y-125264342D01*
X141119048Y-125264342D02*
X141166667Y-125359580D01*
X141166667Y-125359580D02*
X141214286Y-125407200D01*
X141214286Y-125407200D02*
X141309524Y-125454819D01*
X141309524Y-125454819D02*
X141500000Y-125454819D01*
X141500000Y-125454819D02*
X141595238Y-125407200D01*
X140547619Y-125454819D02*
X140642857Y-125407200D01*
X140642857Y-125407200D02*
X140690476Y-125311961D01*
X140690476Y-125311961D02*
X140690476Y-124454819D01*
X139738095Y-125454819D02*
X139738095Y-124931009D01*
X139738095Y-124931009D02*
X139785714Y-124835771D01*
X139785714Y-124835771D02*
X139880952Y-124788152D01*
X139880952Y-124788152D02*
X140071428Y-124788152D01*
X140071428Y-124788152D02*
X140166666Y-124835771D01*
X139738095Y-125407200D02*
X139833333Y-125454819D01*
X139833333Y-125454819D02*
X140071428Y-125454819D01*
X140071428Y-125454819D02*
X140166666Y-125407200D01*
X140166666Y-125407200D02*
X140214285Y-125311961D01*
X140214285Y-125311961D02*
X140214285Y-125216723D01*
X140214285Y-125216723D02*
X140166666Y-125121485D01*
X140166666Y-125121485D02*
X140071428Y-125073866D01*
X140071428Y-125073866D02*
X139833333Y-125073866D01*
X139833333Y-125073866D02*
X139738095Y-125026247D01*
X139357142Y-124788152D02*
X139119047Y-125454819D01*
X138880952Y-124788152D02*
X139119047Y-125454819D01*
X139119047Y-125454819D02*
X139214285Y-125692914D01*
X139214285Y-125692914D02*
X139261904Y-125740533D01*
X139261904Y-125740533D02*
X139357142Y-125788152D01*
D11*
X115547856Y-100525502D02*
X115857380Y-100525502D01*
X115857380Y-100525502D02*
X115857380Y-99875502D01*
X115331190Y-100185026D02*
X115114523Y-100185026D01*
X115021666Y-100525502D02*
X115331190Y-100525502D01*
X115331190Y-100525502D02*
X115331190Y-99875502D01*
X115331190Y-99875502D02*
X115021666Y-99875502D01*
X114743095Y-100525502D02*
X114743095Y-99875502D01*
X114743095Y-99875502D02*
X114588333Y-99875502D01*
X114588333Y-99875502D02*
X114495476Y-99906454D01*
X114495476Y-99906454D02*
X114433571Y-99968359D01*
X114433571Y-99968359D02*
X114402618Y-100030264D01*
X114402618Y-100030264D02*
X114371666Y-100154073D01*
X114371666Y-100154073D02*
X114371666Y-100246930D01*
X114371666Y-100246930D02*
X114402618Y-100370740D01*
X114402618Y-100370740D02*
X114433571Y-100432645D01*
X114433571Y-100432645D02*
X114495476Y-100494550D01*
X114495476Y-100494550D02*
X114588333Y-100525502D01*
X114588333Y-100525502D02*
X114743095Y-100525502D01*
X116228809Y-87175502D02*
X115857380Y-87175502D01*
X116043094Y-87825502D02*
X116043094Y-87175502D01*
X115795476Y-87887407D02*
X115300237Y-87887407D01*
X115145476Y-87825502D02*
X115145476Y-87175502D01*
X115145476Y-87175502D02*
X114990714Y-87175502D01*
X114990714Y-87175502D02*
X114897857Y-87206454D01*
X114897857Y-87206454D02*
X114835952Y-87268359D01*
X114835952Y-87268359D02*
X114804999Y-87330264D01*
X114804999Y-87330264D02*
X114774047Y-87454073D01*
X114774047Y-87454073D02*
X114774047Y-87546930D01*
X114774047Y-87546930D02*
X114804999Y-87670740D01*
X114804999Y-87670740D02*
X114835952Y-87732645D01*
X114835952Y-87732645D02*
X114897857Y-87794550D01*
X114897857Y-87794550D02*
X114990714Y-87825502D01*
X114990714Y-87825502D02*
X115145476Y-87825502D01*
X114371666Y-87175502D02*
X114247857Y-87175502D01*
X114247857Y-87175502D02*
X114185952Y-87206454D01*
X114185952Y-87206454D02*
X114124047Y-87268359D01*
X114124047Y-87268359D02*
X114093095Y-87392169D01*
X114093095Y-87392169D02*
X114093095Y-87608835D01*
X114093095Y-87608835D02*
X114124047Y-87732645D01*
X114124047Y-87732645D02*
X114185952Y-87794550D01*
X114185952Y-87794550D02*
X114247857Y-87825502D01*
X114247857Y-87825502D02*
X114371666Y-87825502D01*
X114371666Y-87825502D02*
X114433571Y-87794550D01*
X114433571Y-87794550D02*
X114495476Y-87732645D01*
X114495476Y-87732645D02*
X114526428Y-87608835D01*
X114526428Y-87608835D02*
X114526428Y-87392169D01*
X114526428Y-87392169D02*
X114495476Y-87268359D01*
X114495476Y-87268359D02*
X114433571Y-87206454D01*
X114433571Y-87206454D02*
X114371666Y-87175502D01*
X117404999Y-105574550D02*
X117312142Y-105605502D01*
X117312142Y-105605502D02*
X117157380Y-105605502D01*
X117157380Y-105605502D02*
X117095475Y-105574550D01*
X117095475Y-105574550D02*
X117064523Y-105543597D01*
X117064523Y-105543597D02*
X117033570Y-105481692D01*
X117033570Y-105481692D02*
X117033570Y-105419788D01*
X117033570Y-105419788D02*
X117064523Y-105357883D01*
X117064523Y-105357883D02*
X117095475Y-105326930D01*
X117095475Y-105326930D02*
X117157380Y-105295978D01*
X117157380Y-105295978D02*
X117281189Y-105265026D01*
X117281189Y-105265026D02*
X117343094Y-105234073D01*
X117343094Y-105234073D02*
X117374047Y-105203121D01*
X117374047Y-105203121D02*
X117404999Y-105141216D01*
X117404999Y-105141216D02*
X117404999Y-105079311D01*
X117404999Y-105079311D02*
X117374047Y-105017407D01*
X117374047Y-105017407D02*
X117343094Y-104986454D01*
X117343094Y-104986454D02*
X117281189Y-104955502D01*
X117281189Y-104955502D02*
X117126428Y-104955502D01*
X117126428Y-104955502D02*
X117033570Y-104986454D01*
X116754999Y-105605502D02*
X116754999Y-104955502D01*
X116754999Y-104955502D02*
X116600237Y-104955502D01*
X116600237Y-104955502D02*
X116507380Y-104986454D01*
X116507380Y-104986454D02*
X116445475Y-105048359D01*
X116445475Y-105048359D02*
X116414522Y-105110264D01*
X116414522Y-105110264D02*
X116383570Y-105234073D01*
X116383570Y-105234073D02*
X116383570Y-105326930D01*
X116383570Y-105326930D02*
X116414522Y-105450740D01*
X116414522Y-105450740D02*
X116445475Y-105512645D01*
X116445475Y-105512645D02*
X116507380Y-105574550D01*
X116507380Y-105574550D02*
X116600237Y-105605502D01*
X116600237Y-105605502D02*
X116754999Y-105605502D01*
X116104999Y-105605502D02*
X116104999Y-104955502D01*
X115609760Y-105853121D02*
X115640713Y-105822169D01*
X115640713Y-105822169D02*
X115702617Y-105729311D01*
X115702617Y-105729311D02*
X115733570Y-105667407D01*
X115733570Y-105667407D02*
X115764522Y-105574550D01*
X115764522Y-105574550D02*
X115795475Y-105419788D01*
X115795475Y-105419788D02*
X115795475Y-105295978D01*
X115795475Y-105295978D02*
X115764522Y-105141216D01*
X115764522Y-105141216D02*
X115733570Y-105048359D01*
X115733570Y-105048359D02*
X115702617Y-104986454D01*
X115702617Y-104986454D02*
X115640713Y-104893597D01*
X115640713Y-104893597D02*
X115609760Y-104862645D01*
X115362142Y-105605502D02*
X115362142Y-104955502D01*
X115362142Y-104955502D02*
X115145475Y-105419788D01*
X115145475Y-105419788D02*
X114928808Y-104955502D01*
X114928808Y-104955502D02*
X114928808Y-105605502D01*
X114495475Y-104955502D02*
X114371666Y-104955502D01*
X114371666Y-104955502D02*
X114309761Y-104986454D01*
X114309761Y-104986454D02*
X114247856Y-105048359D01*
X114247856Y-105048359D02*
X114216904Y-105172169D01*
X114216904Y-105172169D02*
X114216904Y-105388835D01*
X114216904Y-105388835D02*
X114247856Y-105512645D01*
X114247856Y-105512645D02*
X114309761Y-105574550D01*
X114309761Y-105574550D02*
X114371666Y-105605502D01*
X114371666Y-105605502D02*
X114495475Y-105605502D01*
X114495475Y-105605502D02*
X114557380Y-105574550D01*
X114557380Y-105574550D02*
X114619285Y-105512645D01*
X114619285Y-105512645D02*
X114650237Y-105388835D01*
X114650237Y-105388835D02*
X114650237Y-105172169D01*
X114650237Y-105172169D02*
X114619285Y-105048359D01*
X114619285Y-105048359D02*
X114557380Y-104986454D01*
X114557380Y-104986454D02*
X114495475Y-104955502D01*
X113969285Y-105574550D02*
X113876428Y-105605502D01*
X113876428Y-105605502D02*
X113721666Y-105605502D01*
X113721666Y-105605502D02*
X113659761Y-105574550D01*
X113659761Y-105574550D02*
X113628809Y-105543597D01*
X113628809Y-105543597D02*
X113597856Y-105481692D01*
X113597856Y-105481692D02*
X113597856Y-105419788D01*
X113597856Y-105419788D02*
X113628809Y-105357883D01*
X113628809Y-105357883D02*
X113659761Y-105326930D01*
X113659761Y-105326930D02*
X113721666Y-105295978D01*
X113721666Y-105295978D02*
X113845475Y-105265026D01*
X113845475Y-105265026D02*
X113907380Y-105234073D01*
X113907380Y-105234073D02*
X113938333Y-105203121D01*
X113938333Y-105203121D02*
X113969285Y-105141216D01*
X113969285Y-105141216D02*
X113969285Y-105079311D01*
X113969285Y-105079311D02*
X113938333Y-105017407D01*
X113938333Y-105017407D02*
X113907380Y-104986454D01*
X113907380Y-104986454D02*
X113845475Y-104955502D01*
X113845475Y-104955502D02*
X113690714Y-104955502D01*
X113690714Y-104955502D02*
X113597856Y-104986454D01*
X113319285Y-105605502D02*
X113319285Y-104955502D01*
X113071665Y-105853121D02*
X113040713Y-105822169D01*
X113040713Y-105822169D02*
X112978808Y-105729311D01*
X112978808Y-105729311D02*
X112947856Y-105667407D01*
X112947856Y-105667407D02*
X112916903Y-105574550D01*
X112916903Y-105574550D02*
X112885951Y-105419788D01*
X112885951Y-105419788D02*
X112885951Y-105295978D01*
X112885951Y-105295978D02*
X112916903Y-105141216D01*
X112916903Y-105141216D02*
X112947856Y-105048359D01*
X112947856Y-105048359D02*
X112978808Y-104986454D01*
X112978808Y-104986454D02*
X113040713Y-104893597D01*
X113040713Y-104893597D02*
X113071665Y-104862645D01*
X116197857Y-92255502D02*
X115826428Y-92255502D01*
X116012142Y-92905502D02*
X116012142Y-92255502D01*
X115764524Y-92967407D02*
X115269285Y-92967407D01*
X114743095Y-92843597D02*
X114774047Y-92874550D01*
X114774047Y-92874550D02*
X114866905Y-92905502D01*
X114866905Y-92905502D02*
X114928809Y-92905502D01*
X114928809Y-92905502D02*
X115021666Y-92874550D01*
X115021666Y-92874550D02*
X115083571Y-92812645D01*
X115083571Y-92812645D02*
X115114524Y-92750740D01*
X115114524Y-92750740D02*
X115145476Y-92626930D01*
X115145476Y-92626930D02*
X115145476Y-92534073D01*
X115145476Y-92534073D02*
X115114524Y-92410264D01*
X115114524Y-92410264D02*
X115083571Y-92348359D01*
X115083571Y-92348359D02*
X115021666Y-92286454D01*
X115021666Y-92286454D02*
X114928809Y-92255502D01*
X114928809Y-92255502D02*
X114866905Y-92255502D01*
X114866905Y-92255502D02*
X114774047Y-92286454D01*
X114774047Y-92286454D02*
X114743095Y-92317407D01*
X114495476Y-92874550D02*
X114402619Y-92905502D01*
X114402619Y-92905502D02*
X114247857Y-92905502D01*
X114247857Y-92905502D02*
X114185952Y-92874550D01*
X114185952Y-92874550D02*
X114155000Y-92843597D01*
X114155000Y-92843597D02*
X114124047Y-92781692D01*
X114124047Y-92781692D02*
X114124047Y-92719788D01*
X114124047Y-92719788D02*
X114155000Y-92657883D01*
X114155000Y-92657883D02*
X114185952Y-92626930D01*
X114185952Y-92626930D02*
X114247857Y-92595978D01*
X114247857Y-92595978D02*
X114371666Y-92565026D01*
X114371666Y-92565026D02*
X114433571Y-92534073D01*
X114433571Y-92534073D02*
X114464524Y-92503121D01*
X114464524Y-92503121D02*
X114495476Y-92441216D01*
X114495476Y-92441216D02*
X114495476Y-92379311D01*
X114495476Y-92379311D02*
X114464524Y-92317407D01*
X114464524Y-92317407D02*
X114433571Y-92286454D01*
X114433571Y-92286454D02*
X114371666Y-92255502D01*
X114371666Y-92255502D02*
X114216905Y-92255502D01*
X114216905Y-92255502D02*
X114124047Y-92286454D01*
X116383571Y-84635502D02*
X116012142Y-84635502D01*
X116197856Y-85285502D02*
X116197856Y-84635502D01*
X115950238Y-85347407D02*
X115454999Y-85347407D01*
X115300238Y-85285502D02*
X115300238Y-84635502D01*
X114619285Y-85285502D02*
X114835952Y-84975978D01*
X114990714Y-85285502D02*
X114990714Y-84635502D01*
X114990714Y-84635502D02*
X114743095Y-84635502D01*
X114743095Y-84635502D02*
X114681190Y-84666454D01*
X114681190Y-84666454D02*
X114650237Y-84697407D01*
X114650237Y-84697407D02*
X114619285Y-84759311D01*
X114619285Y-84759311D02*
X114619285Y-84852169D01*
X114619285Y-84852169D02*
X114650237Y-84914073D01*
X114650237Y-84914073D02*
X114681190Y-84945026D01*
X114681190Y-84945026D02*
X114743095Y-84975978D01*
X114743095Y-84975978D02*
X114990714Y-84975978D01*
X113907380Y-85347407D02*
X113969285Y-85316454D01*
X113969285Y-85316454D02*
X114031190Y-85254550D01*
X114031190Y-85254550D02*
X114124047Y-85161692D01*
X114124047Y-85161692D02*
X114185952Y-85130740D01*
X114185952Y-85130740D02*
X114247856Y-85130740D01*
X114216904Y-85285502D02*
X114278809Y-85254550D01*
X114278809Y-85254550D02*
X114340714Y-85192645D01*
X114340714Y-85192645D02*
X114371666Y-85068835D01*
X114371666Y-85068835D02*
X114371666Y-84852169D01*
X114371666Y-84852169D02*
X114340714Y-84728359D01*
X114340714Y-84728359D02*
X114278809Y-84666454D01*
X114278809Y-84666454D02*
X114216904Y-84635502D01*
X114216904Y-84635502D02*
X114093095Y-84635502D01*
X114093095Y-84635502D02*
X114031190Y-84666454D01*
X114031190Y-84666454D02*
X113969285Y-84728359D01*
X113969285Y-84728359D02*
X113938333Y-84852169D01*
X113938333Y-84852169D02*
X113938333Y-85068835D01*
X113938333Y-85068835D02*
X113969285Y-85192645D01*
X113969285Y-85192645D02*
X114031190Y-85254550D01*
X114031190Y-85254550D02*
X114093095Y-85285502D01*
X114093095Y-85285502D02*
X114216904Y-85285502D01*
X116476428Y-94795502D02*
X116104999Y-94795502D01*
X116290713Y-95445502D02*
X116290713Y-94795502D01*
X116043095Y-95507407D02*
X115547856Y-95507407D01*
X115021666Y-95383597D02*
X115052618Y-95414550D01*
X115052618Y-95414550D02*
X115145476Y-95445502D01*
X115145476Y-95445502D02*
X115207380Y-95445502D01*
X115207380Y-95445502D02*
X115300237Y-95414550D01*
X115300237Y-95414550D02*
X115362142Y-95352645D01*
X115362142Y-95352645D02*
X115393095Y-95290740D01*
X115393095Y-95290740D02*
X115424047Y-95166930D01*
X115424047Y-95166930D02*
X115424047Y-95074073D01*
X115424047Y-95074073D02*
X115393095Y-94950264D01*
X115393095Y-94950264D02*
X115362142Y-94888359D01*
X115362142Y-94888359D02*
X115300237Y-94826454D01*
X115300237Y-94826454D02*
X115207380Y-94795502D01*
X115207380Y-94795502D02*
X115145476Y-94795502D01*
X115145476Y-94795502D02*
X115052618Y-94826454D01*
X115052618Y-94826454D02*
X115021666Y-94857407D01*
X114433571Y-95445502D02*
X114743095Y-95445502D01*
X114743095Y-95445502D02*
X114743095Y-94795502D01*
X114216905Y-95445502D02*
X114216905Y-94795502D01*
X113845476Y-95445502D02*
X114124047Y-95074073D01*
X113845476Y-94795502D02*
X114216905Y-95166930D01*
X115996666Y-117655502D02*
X115779999Y-118305502D01*
X115779999Y-118305502D02*
X115563332Y-117655502D01*
X114975237Y-118243597D02*
X115006189Y-118274550D01*
X115006189Y-118274550D02*
X115099047Y-118305502D01*
X115099047Y-118305502D02*
X115160951Y-118305502D01*
X115160951Y-118305502D02*
X115253808Y-118274550D01*
X115253808Y-118274550D02*
X115315713Y-118212645D01*
X115315713Y-118212645D02*
X115346666Y-118150740D01*
X115346666Y-118150740D02*
X115377618Y-118026930D01*
X115377618Y-118026930D02*
X115377618Y-117934073D01*
X115377618Y-117934073D02*
X115346666Y-117810264D01*
X115346666Y-117810264D02*
X115315713Y-117748359D01*
X115315713Y-117748359D02*
X115253808Y-117686454D01*
X115253808Y-117686454D02*
X115160951Y-117655502D01*
X115160951Y-117655502D02*
X115099047Y-117655502D01*
X115099047Y-117655502D02*
X115006189Y-117686454D01*
X115006189Y-117686454D02*
X114975237Y-117717407D01*
X114325237Y-118243597D02*
X114356189Y-118274550D01*
X114356189Y-118274550D02*
X114449047Y-118305502D01*
X114449047Y-118305502D02*
X114510951Y-118305502D01*
X114510951Y-118305502D02*
X114603808Y-118274550D01*
X114603808Y-118274550D02*
X114665713Y-118212645D01*
X114665713Y-118212645D02*
X114696666Y-118150740D01*
X114696666Y-118150740D02*
X114727618Y-118026930D01*
X114727618Y-118026930D02*
X114727618Y-117934073D01*
X114727618Y-117934073D02*
X114696666Y-117810264D01*
X114696666Y-117810264D02*
X114665713Y-117748359D01*
X114665713Y-117748359D02*
X114603808Y-117686454D01*
X114603808Y-117686454D02*
X114510951Y-117655502D01*
X114510951Y-117655502D02*
X114449047Y-117655502D01*
X114449047Y-117655502D02*
X114356189Y-117686454D01*
X114356189Y-117686454D02*
X114325237Y-117717407D01*
X115965714Y-103034550D02*
X115872857Y-103065502D01*
X115872857Y-103065502D02*
X115718095Y-103065502D01*
X115718095Y-103065502D02*
X115656190Y-103034550D01*
X115656190Y-103034550D02*
X115625238Y-103003597D01*
X115625238Y-103003597D02*
X115594285Y-102941692D01*
X115594285Y-102941692D02*
X115594285Y-102879788D01*
X115594285Y-102879788D02*
X115625238Y-102817883D01*
X115625238Y-102817883D02*
X115656190Y-102786930D01*
X115656190Y-102786930D02*
X115718095Y-102755978D01*
X115718095Y-102755978D02*
X115841904Y-102725026D01*
X115841904Y-102725026D02*
X115903809Y-102694073D01*
X115903809Y-102694073D02*
X115934762Y-102663121D01*
X115934762Y-102663121D02*
X115965714Y-102601216D01*
X115965714Y-102601216D02*
X115965714Y-102539311D01*
X115965714Y-102539311D02*
X115934762Y-102477407D01*
X115934762Y-102477407D02*
X115903809Y-102446454D01*
X115903809Y-102446454D02*
X115841904Y-102415502D01*
X115841904Y-102415502D02*
X115687143Y-102415502D01*
X115687143Y-102415502D02*
X115594285Y-102446454D01*
X114944285Y-103003597D02*
X114975237Y-103034550D01*
X114975237Y-103034550D02*
X115068095Y-103065502D01*
X115068095Y-103065502D02*
X115129999Y-103065502D01*
X115129999Y-103065502D02*
X115222856Y-103034550D01*
X115222856Y-103034550D02*
X115284761Y-102972645D01*
X115284761Y-102972645D02*
X115315714Y-102910740D01*
X115315714Y-102910740D02*
X115346666Y-102786930D01*
X115346666Y-102786930D02*
X115346666Y-102694073D01*
X115346666Y-102694073D02*
X115315714Y-102570264D01*
X115315714Y-102570264D02*
X115284761Y-102508359D01*
X115284761Y-102508359D02*
X115222856Y-102446454D01*
X115222856Y-102446454D02*
X115129999Y-102415502D01*
X115129999Y-102415502D02*
X115068095Y-102415502D01*
X115068095Y-102415502D02*
X114975237Y-102446454D01*
X114975237Y-102446454D02*
X114944285Y-102477407D01*
X114665714Y-103065502D02*
X114665714Y-102415502D01*
X114294285Y-103065502D02*
X114572856Y-102694073D01*
X114294285Y-102415502D02*
X114665714Y-102786930D01*
X115625237Y-115146454D02*
X115687142Y-115115502D01*
X115687142Y-115115502D02*
X115779999Y-115115502D01*
X115779999Y-115115502D02*
X115872856Y-115146454D01*
X115872856Y-115146454D02*
X115934761Y-115208359D01*
X115934761Y-115208359D02*
X115965714Y-115270264D01*
X115965714Y-115270264D02*
X115996666Y-115394073D01*
X115996666Y-115394073D02*
X115996666Y-115486930D01*
X115996666Y-115486930D02*
X115965714Y-115610740D01*
X115965714Y-115610740D02*
X115934761Y-115672645D01*
X115934761Y-115672645D02*
X115872856Y-115734550D01*
X115872856Y-115734550D02*
X115779999Y-115765502D01*
X115779999Y-115765502D02*
X115718095Y-115765502D01*
X115718095Y-115765502D02*
X115625237Y-115734550D01*
X115625237Y-115734550D02*
X115594285Y-115703597D01*
X115594285Y-115703597D02*
X115594285Y-115486930D01*
X115594285Y-115486930D02*
X115718095Y-115486930D01*
X115315714Y-115765502D02*
X115315714Y-115115502D01*
X115315714Y-115115502D02*
X114944285Y-115765502D01*
X114944285Y-115765502D02*
X114944285Y-115115502D01*
X114634762Y-115765502D02*
X114634762Y-115115502D01*
X114634762Y-115115502D02*
X114480000Y-115115502D01*
X114480000Y-115115502D02*
X114387143Y-115146454D01*
X114387143Y-115146454D02*
X114325238Y-115208359D01*
X114325238Y-115208359D02*
X114294285Y-115270264D01*
X114294285Y-115270264D02*
X114263333Y-115394073D01*
X114263333Y-115394073D02*
X114263333Y-115486930D01*
X114263333Y-115486930D02*
X114294285Y-115610740D01*
X114294285Y-115610740D02*
X114325238Y-115672645D01*
X114325238Y-115672645D02*
X114387143Y-115734550D01*
X114387143Y-115734550D02*
X114480000Y-115765502D01*
X114480000Y-115765502D02*
X114634762Y-115765502D01*
X116074047Y-110685502D02*
X116290714Y-110375978D01*
X116445476Y-110685502D02*
X116445476Y-110035502D01*
X116445476Y-110035502D02*
X116197857Y-110035502D01*
X116197857Y-110035502D02*
X116135952Y-110066454D01*
X116135952Y-110066454D02*
X116104999Y-110097407D01*
X116104999Y-110097407D02*
X116074047Y-110159311D01*
X116074047Y-110159311D02*
X116074047Y-110252169D01*
X116074047Y-110252169D02*
X116104999Y-110314073D01*
X116104999Y-110314073D02*
X116135952Y-110345026D01*
X116135952Y-110345026D02*
X116197857Y-110375978D01*
X116197857Y-110375978D02*
X116445476Y-110375978D01*
X115795476Y-110345026D02*
X115578809Y-110345026D01*
X115485952Y-110685502D02*
X115795476Y-110685502D01*
X115795476Y-110685502D02*
X115795476Y-110035502D01*
X115795476Y-110035502D02*
X115485952Y-110035502D01*
X115238333Y-110654550D02*
X115145476Y-110685502D01*
X115145476Y-110685502D02*
X114990714Y-110685502D01*
X114990714Y-110685502D02*
X114928809Y-110654550D01*
X114928809Y-110654550D02*
X114897857Y-110623597D01*
X114897857Y-110623597D02*
X114866904Y-110561692D01*
X114866904Y-110561692D02*
X114866904Y-110499788D01*
X114866904Y-110499788D02*
X114897857Y-110437883D01*
X114897857Y-110437883D02*
X114928809Y-110406930D01*
X114928809Y-110406930D02*
X114990714Y-110375978D01*
X114990714Y-110375978D02*
X115114523Y-110345026D01*
X115114523Y-110345026D02*
X115176428Y-110314073D01*
X115176428Y-110314073D02*
X115207381Y-110283121D01*
X115207381Y-110283121D02*
X115238333Y-110221216D01*
X115238333Y-110221216D02*
X115238333Y-110159311D01*
X115238333Y-110159311D02*
X115207381Y-110097407D01*
X115207381Y-110097407D02*
X115176428Y-110066454D01*
X115176428Y-110066454D02*
X115114523Y-110035502D01*
X115114523Y-110035502D02*
X114959762Y-110035502D01*
X114959762Y-110035502D02*
X114866904Y-110066454D01*
X114588333Y-110345026D02*
X114371666Y-110345026D01*
X114278809Y-110685502D02*
X114588333Y-110685502D01*
X114588333Y-110685502D02*
X114588333Y-110035502D01*
X114588333Y-110035502D02*
X114278809Y-110035502D01*
X114093095Y-110035502D02*
X113721666Y-110035502D01*
X113907380Y-110685502D02*
X113907380Y-110035502D01*
X117590713Y-97954550D02*
X117497856Y-97985502D01*
X117497856Y-97985502D02*
X117343094Y-97985502D01*
X117343094Y-97985502D02*
X117281189Y-97954550D01*
X117281189Y-97954550D02*
X117250237Y-97923597D01*
X117250237Y-97923597D02*
X117219284Y-97861692D01*
X117219284Y-97861692D02*
X117219284Y-97799788D01*
X117219284Y-97799788D02*
X117250237Y-97737883D01*
X117250237Y-97737883D02*
X117281189Y-97706930D01*
X117281189Y-97706930D02*
X117343094Y-97675978D01*
X117343094Y-97675978D02*
X117466903Y-97645026D01*
X117466903Y-97645026D02*
X117528808Y-97614073D01*
X117528808Y-97614073D02*
X117559761Y-97583121D01*
X117559761Y-97583121D02*
X117590713Y-97521216D01*
X117590713Y-97521216D02*
X117590713Y-97459311D01*
X117590713Y-97459311D02*
X117559761Y-97397407D01*
X117559761Y-97397407D02*
X117528808Y-97366454D01*
X117528808Y-97366454D02*
X117466903Y-97335502D01*
X117466903Y-97335502D02*
X117312142Y-97335502D01*
X117312142Y-97335502D02*
X117219284Y-97366454D01*
X116940713Y-97985502D02*
X116940713Y-97335502D01*
X116940713Y-97335502D02*
X116785951Y-97335502D01*
X116785951Y-97335502D02*
X116693094Y-97366454D01*
X116693094Y-97366454D02*
X116631189Y-97428359D01*
X116631189Y-97428359D02*
X116600236Y-97490264D01*
X116600236Y-97490264D02*
X116569284Y-97614073D01*
X116569284Y-97614073D02*
X116569284Y-97706930D01*
X116569284Y-97706930D02*
X116600236Y-97830740D01*
X116600236Y-97830740D02*
X116631189Y-97892645D01*
X116631189Y-97892645D02*
X116693094Y-97954550D01*
X116693094Y-97954550D02*
X116785951Y-97985502D01*
X116785951Y-97985502D02*
X116940713Y-97985502D01*
X116166903Y-97335502D02*
X116043094Y-97335502D01*
X116043094Y-97335502D02*
X115981189Y-97366454D01*
X115981189Y-97366454D02*
X115919284Y-97428359D01*
X115919284Y-97428359D02*
X115888332Y-97552169D01*
X115888332Y-97552169D02*
X115888332Y-97768835D01*
X115888332Y-97768835D02*
X115919284Y-97892645D01*
X115919284Y-97892645D02*
X115981189Y-97954550D01*
X115981189Y-97954550D02*
X116043094Y-97985502D01*
X116043094Y-97985502D02*
X116166903Y-97985502D01*
X116166903Y-97985502D02*
X116228808Y-97954550D01*
X116228808Y-97954550D02*
X116290713Y-97892645D01*
X116290713Y-97892645D02*
X116321665Y-97768835D01*
X116321665Y-97768835D02*
X116321665Y-97552169D01*
X116321665Y-97552169D02*
X116290713Y-97428359D01*
X116290713Y-97428359D02*
X116228808Y-97366454D01*
X116228808Y-97366454D02*
X116166903Y-97335502D01*
X115424046Y-98233121D02*
X115454999Y-98202169D01*
X115454999Y-98202169D02*
X115516903Y-98109311D01*
X115516903Y-98109311D02*
X115547856Y-98047407D01*
X115547856Y-98047407D02*
X115578808Y-97954550D01*
X115578808Y-97954550D02*
X115609761Y-97799788D01*
X115609761Y-97799788D02*
X115609761Y-97675978D01*
X115609761Y-97675978D02*
X115578808Y-97521216D01*
X115578808Y-97521216D02*
X115547856Y-97428359D01*
X115547856Y-97428359D02*
X115516903Y-97366454D01*
X115516903Y-97366454D02*
X115454999Y-97273597D01*
X115454999Y-97273597D02*
X115424046Y-97242645D01*
X115176428Y-97985502D02*
X115176428Y-97335502D01*
X115176428Y-97335502D02*
X114959761Y-97799788D01*
X114959761Y-97799788D02*
X114743094Y-97335502D01*
X114743094Y-97335502D02*
X114743094Y-97985502D01*
X114433571Y-97985502D02*
X114433571Y-97335502D01*
X114154999Y-97954550D02*
X114062142Y-97985502D01*
X114062142Y-97985502D02*
X113907380Y-97985502D01*
X113907380Y-97985502D02*
X113845475Y-97954550D01*
X113845475Y-97954550D02*
X113814523Y-97923597D01*
X113814523Y-97923597D02*
X113783570Y-97861692D01*
X113783570Y-97861692D02*
X113783570Y-97799788D01*
X113783570Y-97799788D02*
X113814523Y-97737883D01*
X113814523Y-97737883D02*
X113845475Y-97706930D01*
X113845475Y-97706930D02*
X113907380Y-97675978D01*
X113907380Y-97675978D02*
X114031189Y-97645026D01*
X114031189Y-97645026D02*
X114093094Y-97614073D01*
X114093094Y-97614073D02*
X114124047Y-97583121D01*
X114124047Y-97583121D02*
X114154999Y-97521216D01*
X114154999Y-97521216D02*
X114154999Y-97459311D01*
X114154999Y-97459311D02*
X114124047Y-97397407D01*
X114124047Y-97397407D02*
X114093094Y-97366454D01*
X114093094Y-97366454D02*
X114031189Y-97335502D01*
X114031189Y-97335502D02*
X113876428Y-97335502D01*
X113876428Y-97335502D02*
X113783570Y-97366454D01*
X113381189Y-97335502D02*
X113257380Y-97335502D01*
X113257380Y-97335502D02*
X113195475Y-97366454D01*
X113195475Y-97366454D02*
X113133570Y-97428359D01*
X113133570Y-97428359D02*
X113102618Y-97552169D01*
X113102618Y-97552169D02*
X113102618Y-97768835D01*
X113102618Y-97768835D02*
X113133570Y-97892645D01*
X113133570Y-97892645D02*
X113195475Y-97954550D01*
X113195475Y-97954550D02*
X113257380Y-97985502D01*
X113257380Y-97985502D02*
X113381189Y-97985502D01*
X113381189Y-97985502D02*
X113443094Y-97954550D01*
X113443094Y-97954550D02*
X113504999Y-97892645D01*
X113504999Y-97892645D02*
X113535951Y-97768835D01*
X113535951Y-97768835D02*
X113535951Y-97552169D01*
X113535951Y-97552169D02*
X113504999Y-97428359D01*
X113504999Y-97428359D02*
X113443094Y-97366454D01*
X113443094Y-97366454D02*
X113381189Y-97335502D01*
X112885951Y-98233121D02*
X112854999Y-98202169D01*
X112854999Y-98202169D02*
X112793094Y-98109311D01*
X112793094Y-98109311D02*
X112762142Y-98047407D01*
X112762142Y-98047407D02*
X112731189Y-97954550D01*
X112731189Y-97954550D02*
X112700237Y-97799788D01*
X112700237Y-97799788D02*
X112700237Y-97675978D01*
X112700237Y-97675978D02*
X112731189Y-97521216D01*
X112731189Y-97521216D02*
X112762142Y-97428359D01*
X112762142Y-97428359D02*
X112793094Y-97366454D01*
X112793094Y-97366454D02*
X112854999Y-97273597D01*
X112854999Y-97273597D02*
X112885951Y-97242645D01*
X116383571Y-89715502D02*
X116012142Y-89715502D01*
X116197856Y-90365502D02*
X116197856Y-89715502D01*
X115950238Y-90427407D02*
X115454999Y-90427407D01*
X115300238Y-90365502D02*
X115300238Y-89715502D01*
X115300238Y-89715502D02*
X115145476Y-89715502D01*
X115145476Y-89715502D02*
X115052619Y-89746454D01*
X115052619Y-89746454D02*
X114990714Y-89808359D01*
X114990714Y-89808359D02*
X114959761Y-89870264D01*
X114959761Y-89870264D02*
X114928809Y-89994073D01*
X114928809Y-89994073D02*
X114928809Y-90086930D01*
X114928809Y-90086930D02*
X114959761Y-90210740D01*
X114959761Y-90210740D02*
X114990714Y-90272645D01*
X114990714Y-90272645D02*
X115052619Y-90334550D01*
X115052619Y-90334550D02*
X115145476Y-90365502D01*
X115145476Y-90365502D02*
X115300238Y-90365502D01*
X114650238Y-90365502D02*
X114650238Y-89715502D01*
X114340714Y-90365502D02*
X114340714Y-89715502D01*
X114340714Y-89715502D02*
X113969285Y-90365502D01*
X113969285Y-90365502D02*
X113969285Y-89715502D01*
X115625238Y-108145502D02*
X115625238Y-107495502D01*
X115625238Y-107495502D02*
X115470476Y-107495502D01*
X115470476Y-107495502D02*
X115377619Y-107526454D01*
X115377619Y-107526454D02*
X115315714Y-107588359D01*
X115315714Y-107588359D02*
X115284761Y-107650264D01*
X115284761Y-107650264D02*
X115253809Y-107774073D01*
X115253809Y-107774073D02*
X115253809Y-107866930D01*
X115253809Y-107866930D02*
X115284761Y-107990740D01*
X115284761Y-107990740D02*
X115315714Y-108052645D01*
X115315714Y-108052645D02*
X115377619Y-108114550D01*
X115377619Y-108114550D02*
X115470476Y-108145502D01*
X115470476Y-108145502D02*
X115625238Y-108145502D01*
X114603809Y-108083597D02*
X114634761Y-108114550D01*
X114634761Y-108114550D02*
X114727619Y-108145502D01*
X114727619Y-108145502D02*
X114789523Y-108145502D01*
X114789523Y-108145502D02*
X114882380Y-108114550D01*
X114882380Y-108114550D02*
X114944285Y-108052645D01*
X114944285Y-108052645D02*
X114975238Y-107990740D01*
X114975238Y-107990740D02*
X115006190Y-107866930D01*
X115006190Y-107866930D02*
X115006190Y-107774073D01*
X115006190Y-107774073D02*
X114975238Y-107650264D01*
X114975238Y-107650264D02*
X114944285Y-107588359D01*
X114944285Y-107588359D02*
X114882380Y-107526454D01*
X114882380Y-107526454D02*
X114789523Y-107495502D01*
X114789523Y-107495502D02*
X114727619Y-107495502D01*
X114727619Y-107495502D02*
X114634761Y-107526454D01*
X114634761Y-107526454D02*
X114603809Y-107557407D01*
X115238333Y-113163597D02*
X115269285Y-113194550D01*
X115269285Y-113194550D02*
X115362143Y-113225502D01*
X115362143Y-113225502D02*
X115424047Y-113225502D01*
X115424047Y-113225502D02*
X115516904Y-113194550D01*
X115516904Y-113194550D02*
X115578809Y-113132645D01*
X115578809Y-113132645D02*
X115609762Y-113070740D01*
X115609762Y-113070740D02*
X115640714Y-112946930D01*
X115640714Y-112946930D02*
X115640714Y-112854073D01*
X115640714Y-112854073D02*
X115609762Y-112730264D01*
X115609762Y-112730264D02*
X115578809Y-112668359D01*
X115578809Y-112668359D02*
X115516904Y-112606454D01*
X115516904Y-112606454D02*
X115424047Y-112575502D01*
X115424047Y-112575502D02*
X115362143Y-112575502D01*
X115362143Y-112575502D02*
X115269285Y-112606454D01*
X115269285Y-112606454D02*
X115238333Y-112637407D01*
X114990714Y-113194550D02*
X114897857Y-113225502D01*
X114897857Y-113225502D02*
X114743095Y-113225502D01*
X114743095Y-113225502D02*
X114681190Y-113194550D01*
X114681190Y-113194550D02*
X114650238Y-113163597D01*
X114650238Y-113163597D02*
X114619285Y-113101692D01*
X114619285Y-113101692D02*
X114619285Y-113039788D01*
X114619285Y-113039788D02*
X114650238Y-112977883D01*
X114650238Y-112977883D02*
X114681190Y-112946930D01*
X114681190Y-112946930D02*
X114743095Y-112915978D01*
X114743095Y-112915978D02*
X114866904Y-112885026D01*
X114866904Y-112885026D02*
X114928809Y-112854073D01*
X114928809Y-112854073D02*
X114959762Y-112823121D01*
X114959762Y-112823121D02*
X114990714Y-112761216D01*
X114990714Y-112761216D02*
X114990714Y-112699311D01*
X114990714Y-112699311D02*
X114959762Y-112637407D01*
X114959762Y-112637407D02*
X114928809Y-112606454D01*
X114928809Y-112606454D02*
X114866904Y-112575502D01*
X114866904Y-112575502D02*
X114712143Y-112575502D01*
X114712143Y-112575502D02*
X114619285Y-112606454D01*
D10*
X191954819Y-100285714D02*
X190954819Y-100285714D01*
X190954819Y-100285714D02*
X190954819Y-100523809D01*
X190954819Y-100523809D02*
X191002438Y-100666666D01*
X191002438Y-100666666D02*
X191097676Y-100761904D01*
X191097676Y-100761904D02*
X191192914Y-100809523D01*
X191192914Y-100809523D02*
X191383390Y-100857142D01*
X191383390Y-100857142D02*
X191526247Y-100857142D01*
X191526247Y-100857142D02*
X191716723Y-100809523D01*
X191716723Y-100809523D02*
X191811961Y-100761904D01*
X191811961Y-100761904D02*
X191907200Y-100666666D01*
X191907200Y-100666666D02*
X191954819Y-100523809D01*
X191954819Y-100523809D02*
X191954819Y-100285714D01*
X191907200Y-101238095D02*
X191954819Y-101380952D01*
X191954819Y-101380952D02*
X191954819Y-101619047D01*
X191954819Y-101619047D02*
X191907200Y-101714285D01*
X191907200Y-101714285D02*
X191859580Y-101761904D01*
X191859580Y-101761904D02*
X191764342Y-101809523D01*
X191764342Y-101809523D02*
X191669104Y-101809523D01*
X191669104Y-101809523D02*
X191573866Y-101761904D01*
X191573866Y-101761904D02*
X191526247Y-101714285D01*
X191526247Y-101714285D02*
X191478628Y-101619047D01*
X191478628Y-101619047D02*
X191431009Y-101428571D01*
X191431009Y-101428571D02*
X191383390Y-101333333D01*
X191383390Y-101333333D02*
X191335771Y-101285714D01*
X191335771Y-101285714D02*
X191240533Y-101238095D01*
X191240533Y-101238095D02*
X191145295Y-101238095D01*
X191145295Y-101238095D02*
X191050057Y-101285714D01*
X191050057Y-101285714D02*
X191002438Y-101333333D01*
X191002438Y-101333333D02*
X190954819Y-101428571D01*
X190954819Y-101428571D02*
X190954819Y-101666666D01*
X190954819Y-101666666D02*
X191002438Y-101809523D01*
X191954819Y-102761904D02*
X191954819Y-102190476D01*
X191954819Y-102476190D02*
X190954819Y-102476190D01*
X190954819Y-102476190D02*
X191097676Y-102380952D01*
X191097676Y-102380952D02*
X191192914Y-102285714D01*
X191192914Y-102285714D02*
X191240533Y-102190476D01*
D12*
X96363855Y-116505238D02*
X95563855Y-116505238D01*
X95563855Y-116505238D02*
X95563855Y-116810000D01*
X95563855Y-116810000D02*
X95601950Y-116886190D01*
X95601950Y-116886190D02*
X95640045Y-116924285D01*
X95640045Y-116924285D02*
X95716236Y-116962381D01*
X95716236Y-116962381D02*
X95830521Y-116962381D01*
X95830521Y-116962381D02*
X95906712Y-116924285D01*
X95906712Y-116924285D02*
X95944807Y-116886190D01*
X95944807Y-116886190D02*
X95982902Y-116810000D01*
X95982902Y-116810000D02*
X95982902Y-116505238D01*
X96363855Y-117305238D02*
X95563855Y-117305238D01*
X96363855Y-117686190D02*
X95563855Y-117686190D01*
X95563855Y-117686190D02*
X96363855Y-118143333D01*
X96363855Y-118143333D02*
X95563855Y-118143333D01*
X96363855Y-119552856D02*
X96363855Y-119095713D01*
X96363855Y-119324285D02*
X95563855Y-119324285D01*
X95563855Y-119324285D02*
X95678140Y-119248094D01*
X95678140Y-119248094D02*
X95754331Y-119171904D01*
X95754331Y-119171904D02*
X95792426Y-119095713D01*
D10*
X161428571Y-130407200D02*
X161285714Y-130454819D01*
X161285714Y-130454819D02*
X161047619Y-130454819D01*
X161047619Y-130454819D02*
X160952381Y-130407200D01*
X160952381Y-130407200D02*
X160904762Y-130359580D01*
X160904762Y-130359580D02*
X160857143Y-130264342D01*
X160857143Y-130264342D02*
X160857143Y-130169104D01*
X160857143Y-130169104D02*
X160904762Y-130073866D01*
X160904762Y-130073866D02*
X160952381Y-130026247D01*
X160952381Y-130026247D02*
X161047619Y-129978628D01*
X161047619Y-129978628D02*
X161238095Y-129931009D01*
X161238095Y-129931009D02*
X161333333Y-129883390D01*
X161333333Y-129883390D02*
X161380952Y-129835771D01*
X161380952Y-129835771D02*
X161428571Y-129740533D01*
X161428571Y-129740533D02*
X161428571Y-129645295D01*
X161428571Y-129645295D02*
X161380952Y-129550057D01*
X161380952Y-129550057D02*
X161333333Y-129502438D01*
X161333333Y-129502438D02*
X161238095Y-129454819D01*
X161238095Y-129454819D02*
X161000000Y-129454819D01*
X161000000Y-129454819D02*
X160857143Y-129502438D01*
X160571428Y-129454819D02*
X160000000Y-129454819D01*
X160285714Y-130454819D02*
X160285714Y-129454819D01*
X159761904Y-129454819D02*
X159095238Y-129454819D01*
X159095238Y-129454819D02*
X159523809Y-130454819D01*
X158809523Y-129454819D02*
X158142857Y-129454819D01*
X158142857Y-129454819D02*
X158571428Y-130454819D01*
X157714285Y-130454819D02*
X157523809Y-130454819D01*
X157523809Y-130454819D02*
X157428571Y-130407200D01*
X157428571Y-130407200D02*
X157380952Y-130359580D01*
X157380952Y-130359580D02*
X157285714Y-130216723D01*
X157285714Y-130216723D02*
X157238095Y-130026247D01*
X157238095Y-130026247D02*
X157238095Y-129645295D01*
X157238095Y-129645295D02*
X157285714Y-129550057D01*
X157285714Y-129550057D02*
X157333333Y-129502438D01*
X157333333Y-129502438D02*
X157428571Y-129454819D01*
X157428571Y-129454819D02*
X157619047Y-129454819D01*
X157619047Y-129454819D02*
X157714285Y-129502438D01*
X157714285Y-129502438D02*
X157761904Y-129550057D01*
X157761904Y-129550057D02*
X157809523Y-129645295D01*
X157809523Y-129645295D02*
X157809523Y-129883390D01*
X157809523Y-129883390D02*
X157761904Y-129978628D01*
X157761904Y-129978628D02*
X157714285Y-130026247D01*
X157714285Y-130026247D02*
X157619047Y-130073866D01*
X157619047Y-130073866D02*
X157428571Y-130073866D01*
X157428571Y-130073866D02*
X157333333Y-130026247D01*
X157333333Y-130026247D02*
X157285714Y-129978628D01*
X157285714Y-129978628D02*
X157238095Y-129883390D01*
X156380952Y-129454819D02*
X156571428Y-129454819D01*
X156571428Y-129454819D02*
X156666666Y-129502438D01*
X156666666Y-129502438D02*
X156714285Y-129550057D01*
X156714285Y-129550057D02*
X156809523Y-129692914D01*
X156809523Y-129692914D02*
X156857142Y-129883390D01*
X156857142Y-129883390D02*
X156857142Y-130264342D01*
X156857142Y-130264342D02*
X156809523Y-130359580D01*
X156809523Y-130359580D02*
X156761904Y-130407200D01*
X156761904Y-130407200D02*
X156666666Y-130454819D01*
X156666666Y-130454819D02*
X156476190Y-130454819D01*
X156476190Y-130454819D02*
X156380952Y-130407200D01*
X156380952Y-130407200D02*
X156333333Y-130359580D01*
X156333333Y-130359580D02*
X156285714Y-130264342D01*
X156285714Y-130264342D02*
X156285714Y-130026247D01*
X156285714Y-130026247D02*
X156333333Y-129931009D01*
X156333333Y-129931009D02*
X156380952Y-129883390D01*
X156380952Y-129883390D02*
X156476190Y-129835771D01*
X156476190Y-129835771D02*
X156666666Y-129835771D01*
X156666666Y-129835771D02*
X156761904Y-129883390D01*
X156761904Y-129883390D02*
X156809523Y-129931009D01*
X156809523Y-129931009D02*
X156857142Y-130026247D01*
X155904761Y-130407200D02*
X155761904Y-130454819D01*
X155761904Y-130454819D02*
X155523809Y-130454819D01*
X155523809Y-130454819D02*
X155428571Y-130407200D01*
X155428571Y-130407200D02*
X155380952Y-130359580D01*
X155380952Y-130359580D02*
X155333333Y-130264342D01*
X155333333Y-130264342D02*
X155333333Y-130169104D01*
X155333333Y-130169104D02*
X155380952Y-130073866D01*
X155380952Y-130073866D02*
X155428571Y-130026247D01*
X155428571Y-130026247D02*
X155523809Y-129978628D01*
X155523809Y-129978628D02*
X155714285Y-129931009D01*
X155714285Y-129931009D02*
X155809523Y-129883390D01*
X155809523Y-129883390D02*
X155857142Y-129835771D01*
X155857142Y-129835771D02*
X155904761Y-129740533D01*
X155904761Y-129740533D02*
X155904761Y-129645295D01*
X155904761Y-129645295D02*
X155857142Y-129550057D01*
X155857142Y-129550057D02*
X155809523Y-129502438D01*
X155809523Y-129502438D02*
X155714285Y-129454819D01*
X155714285Y-129454819D02*
X155476190Y-129454819D01*
X155476190Y-129454819D02*
X155333333Y-129502438D01*
X153714285Y-129788152D02*
X153714285Y-130454819D01*
X153952380Y-129407200D02*
X154190475Y-130121485D01*
X154190475Y-130121485D02*
X153571428Y-130121485D01*
X153190475Y-130359580D02*
X153142856Y-130407200D01*
X153142856Y-130407200D02*
X153190475Y-130454819D01*
X153190475Y-130454819D02*
X153238094Y-130407200D01*
X153238094Y-130407200D02*
X153190475Y-130359580D01*
X153190475Y-130359580D02*
X153190475Y-130454819D01*
X152523809Y-129454819D02*
X152428571Y-129454819D01*
X152428571Y-129454819D02*
X152333333Y-129502438D01*
X152333333Y-129502438D02*
X152285714Y-129550057D01*
X152285714Y-129550057D02*
X152238095Y-129645295D01*
X152238095Y-129645295D02*
X152190476Y-129835771D01*
X152190476Y-129835771D02*
X152190476Y-130073866D01*
X152190476Y-130073866D02*
X152238095Y-130264342D01*
X152238095Y-130264342D02*
X152285714Y-130359580D01*
X152285714Y-130359580D02*
X152333333Y-130407200D01*
X152333333Y-130407200D02*
X152428571Y-130454819D01*
X152428571Y-130454819D02*
X152523809Y-130454819D01*
X152523809Y-130454819D02*
X152619047Y-130407200D01*
X152619047Y-130407200D02*
X152666666Y-130359580D01*
X152666666Y-130359580D02*
X152714285Y-130264342D01*
X152714285Y-130264342D02*
X152761904Y-130073866D01*
X152761904Y-130073866D02*
X152761904Y-129835771D01*
X152761904Y-129835771D02*
X152714285Y-129645295D01*
X152714285Y-129645295D02*
X152666666Y-129550057D01*
X152666666Y-129550057D02*
X152619047Y-129502438D01*
X152619047Y-129502438D02*
X152523809Y-129454819D01*
X151761904Y-130454819D02*
X151761904Y-129788152D01*
X151761904Y-129454819D02*
X151809523Y-129502438D01*
X151809523Y-129502438D02*
X151761904Y-129550057D01*
X151761904Y-129550057D02*
X151714285Y-129502438D01*
X151714285Y-129502438D02*
X151761904Y-129454819D01*
X151761904Y-129454819D02*
X151761904Y-129550057D01*
X151285714Y-129788152D02*
X151285714Y-130454819D01*
X151285714Y-129883390D02*
X151238095Y-129835771D01*
X151238095Y-129835771D02*
X151142857Y-129788152D01*
X151142857Y-129788152D02*
X151000000Y-129788152D01*
X151000000Y-129788152D02*
X150904762Y-129835771D01*
X150904762Y-129835771D02*
X150857143Y-129931009D01*
X150857143Y-129931009D02*
X150857143Y-130454819D01*
X149761904Y-129454819D02*
X149190476Y-129454819D01*
X149476190Y-130454819D02*
X149476190Y-129454819D01*
X148714285Y-130454819D02*
X148809523Y-130407200D01*
X148809523Y-130407200D02*
X148857142Y-130359580D01*
X148857142Y-130359580D02*
X148904761Y-130264342D01*
X148904761Y-130264342D02*
X148904761Y-129978628D01*
X148904761Y-129978628D02*
X148857142Y-129883390D01*
X148857142Y-129883390D02*
X148809523Y-129835771D01*
X148809523Y-129835771D02*
X148714285Y-129788152D01*
X148714285Y-129788152D02*
X148571428Y-129788152D01*
X148571428Y-129788152D02*
X148476190Y-129835771D01*
X148476190Y-129835771D02*
X148428571Y-129883390D01*
X148428571Y-129883390D02*
X148380952Y-129978628D01*
X148380952Y-129978628D02*
X148380952Y-130264342D01*
X148380952Y-130264342D02*
X148428571Y-130359580D01*
X148428571Y-130359580D02*
X148476190Y-130407200D01*
X148476190Y-130407200D02*
X148571428Y-130454819D01*
X148571428Y-130454819D02*
X148714285Y-130454819D01*
X147523809Y-129788152D02*
X147523809Y-130454819D01*
X147952380Y-129788152D02*
X147952380Y-130311961D01*
X147952380Y-130311961D02*
X147904761Y-130407200D01*
X147904761Y-130407200D02*
X147809523Y-130454819D01*
X147809523Y-130454819D02*
X147666666Y-130454819D01*
X147666666Y-130454819D02*
X147571428Y-130407200D01*
X147571428Y-130407200D02*
X147523809Y-130359580D01*
X146619047Y-130407200D02*
X146714285Y-130454819D01*
X146714285Y-130454819D02*
X146904761Y-130454819D01*
X146904761Y-130454819D02*
X146999999Y-130407200D01*
X146999999Y-130407200D02*
X147047618Y-130359580D01*
X147047618Y-130359580D02*
X147095237Y-130264342D01*
X147095237Y-130264342D02*
X147095237Y-129978628D01*
X147095237Y-129978628D02*
X147047618Y-129883390D01*
X147047618Y-129883390D02*
X146999999Y-129835771D01*
X146999999Y-129835771D02*
X146904761Y-129788152D01*
X146904761Y-129788152D02*
X146714285Y-129788152D01*
X146714285Y-129788152D02*
X146619047Y-129835771D01*
X146190475Y-130454819D02*
X146190475Y-129454819D01*
X145761904Y-130454819D02*
X145761904Y-129931009D01*
X145761904Y-129931009D02*
X145809523Y-129835771D01*
X145809523Y-129835771D02*
X145904761Y-129788152D01*
X145904761Y-129788152D02*
X146047618Y-129788152D01*
X146047618Y-129788152D02*
X146142856Y-129835771D01*
X146142856Y-129835771D02*
X146190475Y-129883390D01*
X144523808Y-130454819D02*
X144523808Y-129454819D01*
X144523808Y-129454819D02*
X144285713Y-129454819D01*
X144285713Y-129454819D02*
X144142856Y-129502438D01*
X144142856Y-129502438D02*
X144047618Y-129597676D01*
X144047618Y-129597676D02*
X143999999Y-129692914D01*
X143999999Y-129692914D02*
X143952380Y-129883390D01*
X143952380Y-129883390D02*
X143952380Y-130026247D01*
X143952380Y-130026247D02*
X143999999Y-130216723D01*
X143999999Y-130216723D02*
X144047618Y-130311961D01*
X144047618Y-130311961D02*
X144142856Y-130407200D01*
X144142856Y-130407200D02*
X144285713Y-130454819D01*
X144285713Y-130454819D02*
X144523808Y-130454819D01*
X143523808Y-130454819D02*
X143523808Y-129788152D01*
X143523808Y-129454819D02*
X143571427Y-129502438D01*
X143571427Y-129502438D02*
X143523808Y-129550057D01*
X143523808Y-129550057D02*
X143476189Y-129502438D01*
X143476189Y-129502438D02*
X143523808Y-129454819D01*
X143523808Y-129454819D02*
X143523808Y-129550057D01*
X143095237Y-130407200D02*
X142999999Y-130454819D01*
X142999999Y-130454819D02*
X142809523Y-130454819D01*
X142809523Y-130454819D02*
X142714285Y-130407200D01*
X142714285Y-130407200D02*
X142666666Y-130311961D01*
X142666666Y-130311961D02*
X142666666Y-130264342D01*
X142666666Y-130264342D02*
X142714285Y-130169104D01*
X142714285Y-130169104D02*
X142809523Y-130121485D01*
X142809523Y-130121485D02*
X142952380Y-130121485D01*
X142952380Y-130121485D02*
X143047618Y-130073866D01*
X143047618Y-130073866D02*
X143095237Y-129978628D01*
X143095237Y-129978628D02*
X143095237Y-129931009D01*
X143095237Y-129931009D02*
X143047618Y-129835771D01*
X143047618Y-129835771D02*
X142952380Y-129788152D01*
X142952380Y-129788152D02*
X142809523Y-129788152D01*
X142809523Y-129788152D02*
X142714285Y-129835771D01*
X142238094Y-129788152D02*
X142238094Y-130788152D01*
X142238094Y-129835771D02*
X142142856Y-129788152D01*
X142142856Y-129788152D02*
X141952380Y-129788152D01*
X141952380Y-129788152D02*
X141857142Y-129835771D01*
X141857142Y-129835771D02*
X141809523Y-129883390D01*
X141809523Y-129883390D02*
X141761904Y-129978628D01*
X141761904Y-129978628D02*
X141761904Y-130264342D01*
X141761904Y-130264342D02*
X141809523Y-130359580D01*
X141809523Y-130359580D02*
X141857142Y-130407200D01*
X141857142Y-130407200D02*
X141952380Y-130454819D01*
X141952380Y-130454819D02*
X142142856Y-130454819D01*
X142142856Y-130454819D02*
X142238094Y-130407200D01*
X141190475Y-130454819D02*
X141285713Y-130407200D01*
X141285713Y-130407200D02*
X141333332Y-130311961D01*
X141333332Y-130311961D02*
X141333332Y-129454819D01*
X140380951Y-130454819D02*
X140380951Y-129931009D01*
X140380951Y-129931009D02*
X140428570Y-129835771D01*
X140428570Y-129835771D02*
X140523808Y-129788152D01*
X140523808Y-129788152D02*
X140714284Y-129788152D01*
X140714284Y-129788152D02*
X140809522Y-129835771D01*
X140380951Y-130407200D02*
X140476189Y-130454819D01*
X140476189Y-130454819D02*
X140714284Y-130454819D01*
X140714284Y-130454819D02*
X140809522Y-130407200D01*
X140809522Y-130407200D02*
X140857141Y-130311961D01*
X140857141Y-130311961D02*
X140857141Y-130216723D01*
X140857141Y-130216723D02*
X140809522Y-130121485D01*
X140809522Y-130121485D02*
X140714284Y-130073866D01*
X140714284Y-130073866D02*
X140476189Y-130073866D01*
X140476189Y-130073866D02*
X140380951Y-130026247D01*
X139999998Y-129788152D02*
X139761903Y-130454819D01*
X139523808Y-129788152D02*
X139761903Y-130454819D01*
X139761903Y-130454819D02*
X139857141Y-130692914D01*
X139857141Y-130692914D02*
X139904760Y-130740533D01*
X139904760Y-130740533D02*
X139999998Y-130788152D01*
D12*
%TO.C,R12*%
X170650000Y-65350000D02*
X167600000Y-65350000D01*
X170650000Y-69650000D02*
X167600000Y-69650000D01*
X167555487Y-69618249D02*
G75*
G02*
X167600000Y-65350000I1544513J2118249D01*
G01*
X170628234Y-65334475D02*
G75*
G02*
X170650000Y-69650000I-1528234J-2165525D01*
G01*
%TO.C,DS2*%
X108500000Y-129030000D02*
X197800000Y-129030000D01*
X197800000Y-73990000D01*
X108500000Y-73990000D01*
X108500000Y-129030000D01*
%TO.C,DS3*%
X194580000Y-126500000D02*
X108580000Y-126500000D01*
X108580000Y-76500000D01*
X194580000Y-76500000D01*
X194580000Y-126500000D01*
X111580000Y-118010000D02*
G75*
G02*
X109580000Y-118010000I-1000000J0D01*
G01*
X109580000Y-118010000D02*
G75*
G02*
X111580000Y-118010000I1000000J0D01*
G01*
%TO.C,DS1*%
X197500000Y-131940000D02*
X89500000Y-131940000D01*
X89500000Y-71060000D01*
X197500000Y-71060000D01*
X197500000Y-131940000D01*
X92500000Y-118010000D02*
G75*
G02*
X90500000Y-118010000I-1000000J0D01*
G01*
X90500000Y-118010000D02*
G75*
G02*
X92500000Y-118010000I1000000J0D01*
G01*
%TO.C,J5*%
X76170000Y-126090000D02*
X76170000Y-127420000D01*
X76170000Y-128690000D02*
X76170000Y-136370000D01*
X77500000Y-126090000D02*
X76170000Y-126090000D01*
X78830000Y-128690000D02*
X76170000Y-128690000D01*
X78830000Y-128690000D02*
X78830000Y-136370000D01*
X78830000Y-136370000D02*
X76170000Y-136370000D01*
%TD*%
%LPC*%
D13*
%TO.C,R11*%
X79000000Y-89080000D03*
X79000000Y-78920000D03*
%TD*%
D14*
%TO.C,K7*%
X132660000Y-125920000D03*
D15*
X127580000Y-125920000D03*
X125040000Y-125920000D03*
X122500000Y-125920000D03*
X122500000Y-131000000D03*
X125040000Y-131000000D03*
X127580000Y-131000000D03*
X132660000Y-131000000D03*
%TD*%
D14*
%TO.C,K5*%
X132660000Y-116785000D03*
D15*
X127580000Y-116785000D03*
X125040000Y-116785000D03*
X122500000Y-116785000D03*
X122500000Y-121865000D03*
X125040000Y-121865000D03*
X127580000Y-121865000D03*
X132660000Y-121865000D03*
%TD*%
D16*
%TO.C,H3*%
X195500000Y-147000000D03*
%TD*%
D13*
%TO.C,R10*%
X176500000Y-73160000D03*
X176500000Y-63000000D03*
%TD*%
%TO.C,R8*%
X184500000Y-89580000D03*
X184500000Y-79420000D03*
%TD*%
D17*
%TO.C,D10*%
X74270000Y-79030000D03*
D18*
X71730000Y-79030000D03*
%TD*%
D14*
%TO.C,K3*%
X132660000Y-98515000D03*
D15*
X127580000Y-98515000D03*
X125040000Y-98515000D03*
X122500000Y-98515000D03*
X122500000Y-103595000D03*
X125040000Y-103595000D03*
X127580000Y-103595000D03*
X132660000Y-103595000D03*
%TD*%
D19*
%TO.C,J2*%
X80000000Y-93500000D03*
D20*
X80000000Y-97000000D03*
X80000000Y-100500000D03*
X80000000Y-104000000D03*
X80000000Y-107500000D03*
X80000000Y-111000000D03*
X80000000Y-114500000D03*
X80000000Y-118000000D03*
X80000000Y-121500000D03*
%TD*%
D21*
%TO.C,J1*%
X173000000Y-75520000D03*
D22*
X173000000Y-78060000D03*
X173000000Y-80600000D03*
X173000000Y-83140000D03*
X173000000Y-85680000D03*
X173000000Y-88220000D03*
X173000000Y-90760000D03*
X173000000Y-93300000D03*
X173000000Y-95840000D03*
X173000000Y-98380000D03*
X173000000Y-100920000D03*
X173000000Y-103460000D03*
X173000000Y-106000000D03*
X173000000Y-108540000D03*
X173000000Y-111080000D03*
X173000000Y-113620000D03*
X173000000Y-116160000D03*
X173000000Y-118700000D03*
%TD*%
D16*
%TO.C,H2*%
X69500000Y-147000000D03*
%TD*%
D17*
%TO.C,D11*%
X74270000Y-73560000D03*
D18*
X71730000Y-73560000D03*
%TD*%
D13*
%TO.C,C6*%
X181000000Y-103500000D03*
X181000000Y-106000000D03*
%TD*%
%TO.C,R13*%
X82500000Y-83080000D03*
X82500000Y-72920000D03*
%TD*%
%TO.C,R7*%
X169420000Y-124500000D03*
X179580000Y-124500000D03*
%TD*%
D14*
%TO.C,K4*%
X132660000Y-107650000D03*
D15*
X127580000Y-107650000D03*
X125040000Y-107650000D03*
X122500000Y-107650000D03*
X122500000Y-112730000D03*
X125040000Y-112730000D03*
X127580000Y-112730000D03*
X132660000Y-112730000D03*
%TD*%
D14*
%TO.C,BZ1*%
X183129200Y-70000000D03*
D15*
X188129200Y-70000000D03*
%TD*%
D16*
%TO.C,H1*%
X69500000Y-64500000D03*
%TD*%
D14*
%TO.C,K1*%
X132660000Y-80245000D03*
D15*
X127580000Y-80245000D03*
X125040000Y-80245000D03*
X122500000Y-80245000D03*
X122500000Y-85325000D03*
X125040000Y-85325000D03*
X127580000Y-85325000D03*
X132660000Y-85325000D03*
%TD*%
D23*
%TO.C,C8*%
X133000000Y-139500000D03*
D13*
X129500000Y-139500000D03*
%TD*%
D24*
%TO.C,D7*%
X186500000Y-143200000D03*
D20*
X186500000Y-139390000D03*
X186500000Y-135580000D03*
X186500000Y-131770000D03*
%TD*%
D25*
%TO.C,U1*%
X140000000Y-68360000D03*
D26*
X140000000Y-70900000D03*
X140000000Y-73440000D03*
X140000000Y-75980000D03*
X140000000Y-78520000D03*
X140000000Y-81060000D03*
X140000000Y-83600000D03*
X140000000Y-86140000D03*
X140000000Y-88680000D03*
X140000000Y-91220000D03*
X140000000Y-93760000D03*
X140000000Y-96300000D03*
X140000000Y-98840000D03*
X140000000Y-101380000D03*
X140000000Y-103920000D03*
X140000000Y-106460000D03*
X140000000Y-109000000D03*
X140000000Y-111540000D03*
X140000000Y-114080000D03*
X139996320Y-116617280D03*
X139996320Y-119157280D03*
X139996320Y-121697280D03*
X162860000Y-121700000D03*
X162860000Y-119160000D03*
X162860000Y-116620000D03*
X162860000Y-114080000D03*
X162860000Y-111540000D03*
X162860000Y-109000000D03*
X162860000Y-106460000D03*
X162860000Y-103920000D03*
X162860000Y-101380000D03*
X162860000Y-98840000D03*
X162860000Y-96300000D03*
X162860000Y-93760000D03*
X162860000Y-91220000D03*
X162860000Y-88680000D03*
X162860000Y-86140000D03*
X162860000Y-83600000D03*
X162860000Y-81060000D03*
X162860000Y-78520000D03*
X162860000Y-75980000D03*
X162860000Y-73440000D03*
X162860000Y-70900000D03*
X162860000Y-68360000D03*
%TD*%
D21*
%TO.C,J3*%
X171420000Y-129000000D03*
D22*
X173960000Y-129000000D03*
X176500000Y-129000000D03*
%TD*%
D13*
%TO.C,R9*%
X181000000Y-89580000D03*
X181000000Y-79420000D03*
%TD*%
%TO.C,R14*%
X79000000Y-75580000D03*
X79000000Y-65420000D03*
%TD*%
D14*
%TO.C,K2*%
X132660000Y-89380000D03*
D15*
X127580000Y-89380000D03*
X125040000Y-89380000D03*
X122500000Y-89380000D03*
X122500000Y-94460000D03*
X125040000Y-94460000D03*
X127580000Y-94460000D03*
X132660000Y-94460000D03*
%TD*%
D13*
%TO.C,C9*%
X124000000Y-140500000D03*
X124000000Y-138000000D03*
%TD*%
D16*
%TO.C,H4*%
X195500000Y-64500000D03*
%TD*%
D21*
%TO.C,J7*%
X82250000Y-141090000D03*
D22*
X84790000Y-141090000D03*
X87330000Y-141090000D03*
%TD*%
D27*
%TO.C,C5*%
X185487200Y-116500000D03*
D20*
X192987200Y-116500000D03*
%TD*%
D17*
%TO.C,D9*%
X74270000Y-84500000D03*
D18*
X71730000Y-84500000D03*
%TD*%
D28*
%TO.C,R12*%
X170800000Y-67500000D03*
X167400000Y-67500000D03*
%TD*%
D29*
%TO.C,DS2*%
X111500000Y-76990000D03*
X111500000Y-126030000D03*
X194800000Y-77990000D03*
X194800000Y-126030000D03*
D30*
X110500000Y-118020000D03*
D13*
X110500000Y-115480000D03*
X110500000Y-112940000D03*
X110500000Y-110400000D03*
X110550000Y-107860000D03*
X110500000Y-105320000D03*
X110500000Y-102780000D03*
X110500000Y-100240000D03*
X110500000Y-97700000D03*
X110500000Y-95160000D03*
X110500000Y-92620000D03*
X110500000Y-90080000D03*
X110500000Y-87540000D03*
X110500000Y-85000000D03*
%TD*%
D31*
%TO.C,DS3*%
X115500000Y-123500000D03*
X191580000Y-123500000D03*
X115500000Y-79500000D03*
X191580000Y-79500000D03*
D30*
X110580000Y-118010000D03*
D13*
X110580000Y-115470000D03*
X110580000Y-112930000D03*
X110580000Y-110390000D03*
X110580000Y-107850000D03*
X110580000Y-105310000D03*
X110580000Y-102770000D03*
X110580000Y-100230000D03*
X110580000Y-97690000D03*
X110580000Y-95150000D03*
X110580000Y-92610000D03*
X110580000Y-90070000D03*
X110580000Y-87530000D03*
X110580000Y-84990000D03*
%TD*%
D31*
%TO.C,DS1*%
X92500000Y-128940000D03*
X194500000Y-128940000D03*
X92500000Y-74060000D03*
X194500000Y-74060000D03*
D21*
X91500000Y-118010000D03*
D22*
X91500000Y-115470000D03*
X91500000Y-112930000D03*
X91500000Y-110390000D03*
X91500000Y-107850000D03*
X91500000Y-105310000D03*
X91500000Y-102770000D03*
X91500000Y-100230000D03*
X91500000Y-97690000D03*
X91500000Y-95150000D03*
X91500000Y-92610000D03*
X91500000Y-90070000D03*
X91500000Y-87530000D03*
X91500000Y-84990000D03*
%TD*%
D21*
%TO.C,J5*%
X77500000Y-127420000D03*
D22*
X77500000Y-129960000D03*
X77500000Y-132500000D03*
X77500000Y-135040000D03*
%TD*%
%LPD*%
M02*
