%TF.GenerationSoftware,KiCad,Pcbnew,9.0.8-9.0.8~ubuntu24.04.1*%
%TF.CreationDate,2026-05-06T19:26:59-05:00*%
%TF.ProjectId,ESP32-DevKitC3-Simple-Thermostat-PCB_v3,45535033-322d-4446-9576-4b697443332d,1.2*%
%TF.SameCoordinates,Original*%
%TF.FileFunction,Soldermask,Top*%
%TF.FilePolarity,Negative*%
%FSLAX46Y46*%
G04 Gerber Fmt 4.6, Leading zero omitted, Abs format (unit mm)*
G04 Created by KiCad (PCBNEW 9.0.8-9.0.8~ubuntu24.04.1) date 2026-05-06 19:26:59*
%MOMM*%
%LPD*%
G01*
G04 APERTURE LIST*
G04 Aperture macros list*
%AMRoundRect*
0 Rectangle with rounded corners*
0 $1 Rounding radius*
0 $2 $3 $4 $5 $6 $7 $8 $9 X,Y pos of 4 corners*
0 Add a 4 corners polygon primitive as box body*
4,1,4,$2,$3,$4,$5,$6,$7,$8,$9,$2,$3,0*
0 Add four circle primitives for the rounded corners*
1,1,$1+$1,$2,$3*
1,1,$1+$1,$4,$5*
1,1,$1+$1,$6,$7*
1,1,$1+$1,$8,$9*
0 Add four rect primitives between the rounded corners*
20,1,$1+$1,$2,$3,$4,$5,0*
20,1,$1+$1,$4,$5,$6,$7,0*
20,1,$1+$1,$6,$7,$8,$9,0*
20,1,$1+$1,$8,$9,$2,$3,0*%
G04 Aperture macros list end*
%ADD10C,1.600000*%
%ADD11R,2.000000X2.000000*%
%ADD12C,2.000000*%
%ADD13C,6.000000*%
%ADD14R,1.800000X1.800000*%
%ADD15C,1.800000*%
%ADD16RoundRect,0.150000X0.587500X0.150000X-0.587500X0.150000X-0.587500X-0.150000X0.587500X-0.150000X0*%
%ADD17RoundRect,0.250001X-0.949999X0.949999X-0.949999X-0.949999X0.949999X-0.949999X0.949999X0.949999X0*%
%ADD18C,2.400000*%
%ADD19R,2.311400X0.558800*%
%ADD20R,1.700000X1.700000*%
%ADD21C,1.700000*%
%ADD22RoundRect,0.250000X0.550000X0.550000X-0.550000X0.550000X-0.550000X-0.550000X0.550000X-0.550000X0*%
%ADD23R,2.400000X2.400000*%
%ADD24R,2.000000X1.200000*%
%ADD25O,2.000000X1.200000*%
%ADD26RoundRect,0.250000X-2.050000X-0.300000X2.050000X-0.300000X2.050000X0.300000X-2.050000X0.300000X0*%
%ADD27RoundRect,0.250002X-4.449998X-5.149998X4.449998X-5.149998X4.449998X5.149998X-4.449998X5.149998X0*%
%ADD28RoundRect,0.250000X-1.400000X-1.000000X1.400000X-1.000000X1.400000X1.000000X-1.400000X1.000000X0*%
%ADD29R,2.900000X5.400000*%
%ADD30RoundRect,0.250001X-0.949999X-0.949999X0.949999X-0.949999X0.949999X0.949999X-0.949999X0.949999X0*%
%ADD31C,1.500000*%
%ADD32R,1.600000X1.600000*%
G04 APERTURE END LIST*
D10*
%TO.C,R11*%
X79000000Y-89080000D03*
X79000000Y-78920000D03*
%TD*%
D11*
%TO.C,K7*%
X132660000Y-125920000D03*
D12*
X127580000Y-125920000D03*
X125040000Y-125920000D03*
X122500000Y-125920000D03*
X122500000Y-131000000D03*
X125040000Y-131000000D03*
X127580000Y-131000000D03*
X132660000Y-131000000D03*
%TD*%
D11*
%TO.C,K5*%
X132660000Y-116785000D03*
D12*
X127580000Y-116785000D03*
X125040000Y-116785000D03*
X122500000Y-116785000D03*
X122500000Y-121865000D03*
X125040000Y-121865000D03*
X127580000Y-121865000D03*
X132660000Y-121865000D03*
%TD*%
D13*
%TO.C,H3*%
X195500000Y-147000000D03*
%TD*%
D10*
%TO.C,R10*%
X176500000Y-73160000D03*
X176500000Y-63000000D03*
%TD*%
%TO.C,R8*%
X184500000Y-89580000D03*
X184500000Y-79420000D03*
%TD*%
D14*
%TO.C,D10*%
X74270000Y-79030000D03*
D15*
X71730000Y-79030000D03*
%TD*%
D16*
%TO.C,Q7*%
X192000000Y-85450000D03*
X192000000Y-83550000D03*
X190125000Y-84500000D03*
%TD*%
D11*
%TO.C,K3*%
X132660000Y-98515000D03*
D12*
X127580000Y-98515000D03*
X125040000Y-98515000D03*
X122500000Y-98515000D03*
X122500000Y-103595000D03*
X125040000Y-103595000D03*
X127580000Y-103595000D03*
X132660000Y-103595000D03*
%TD*%
D17*
%TO.C,J2*%
X80000000Y-93500000D03*
D18*
X80000000Y-97000000D03*
X80000000Y-100500000D03*
X80000000Y-104000000D03*
X80000000Y-107500000D03*
X80000000Y-111000000D03*
X80000000Y-114500000D03*
X80000000Y-118000000D03*
X80000000Y-121500000D03*
%TD*%
D19*
%TO.C,U3*%
X131042400Y-75000000D03*
X131042400Y-73730000D03*
X131042400Y-72460000D03*
X131042400Y-71190000D03*
X131042400Y-69920000D03*
X131042400Y-68650000D03*
X131042400Y-67380000D03*
X131042400Y-66110000D03*
X131042400Y-64840000D03*
X122000000Y-64840000D03*
X122000000Y-66110000D03*
X122000000Y-67380000D03*
X122000000Y-68650000D03*
X122000000Y-69920000D03*
X122000000Y-71190000D03*
X122000000Y-72460000D03*
X122000000Y-73730000D03*
X122000000Y-75000000D03*
%TD*%
D20*
%TO.C,J1*%
X173000000Y-75520000D03*
D21*
X173000000Y-78060000D03*
X173000000Y-80600000D03*
X173000000Y-83140000D03*
X173000000Y-85680000D03*
X173000000Y-88220000D03*
X173000000Y-90760000D03*
X173000000Y-93300000D03*
X173000000Y-95840000D03*
X173000000Y-98380000D03*
X173000000Y-100920000D03*
X173000000Y-103460000D03*
X173000000Y-106000000D03*
X173000000Y-108540000D03*
X173000000Y-111080000D03*
X173000000Y-113620000D03*
X173000000Y-116160000D03*
X173000000Y-118700000D03*
%TD*%
D13*
%TO.C,H2*%
X69500000Y-147000000D03*
%TD*%
D14*
%TO.C,D11*%
X74270000Y-73560000D03*
D15*
X71730000Y-73560000D03*
%TD*%
D10*
%TO.C,C6*%
X181000000Y-103500000D03*
X181000000Y-106000000D03*
%TD*%
%TO.C,R13*%
X82500000Y-83080000D03*
X82500000Y-72920000D03*
%TD*%
%TO.C,R7*%
X169420000Y-124500000D03*
X179580000Y-124500000D03*
%TD*%
D11*
%TO.C,K4*%
X132660000Y-107650000D03*
D12*
X127580000Y-107650000D03*
X125040000Y-107650000D03*
X122500000Y-107650000D03*
X122500000Y-112730000D03*
X125040000Y-112730000D03*
X127580000Y-112730000D03*
X132660000Y-112730000D03*
%TD*%
D11*
%TO.C,BZ1*%
X183129200Y-70000000D03*
D12*
X188129200Y-70000000D03*
%TD*%
D13*
%TO.C,H1*%
X69500000Y-64500000D03*
%TD*%
D11*
%TO.C,K1*%
X132660000Y-80245000D03*
D12*
X127580000Y-80245000D03*
X125040000Y-80245000D03*
X122500000Y-80245000D03*
X122500000Y-85325000D03*
X125040000Y-85325000D03*
X127580000Y-85325000D03*
X132660000Y-85325000D03*
%TD*%
D22*
%TO.C,C8*%
X133000000Y-139500000D03*
D10*
X129500000Y-139500000D03*
%TD*%
D23*
%TO.C,D7*%
X186500000Y-143200000D03*
D18*
X186500000Y-139390000D03*
X186500000Y-135580000D03*
X186500000Y-131770000D03*
%TD*%
D24*
%TO.C,U1*%
X140000000Y-68360000D03*
D25*
X140000000Y-70900000D03*
X140000000Y-73440000D03*
X140000000Y-75980000D03*
X140000000Y-78520000D03*
X140000000Y-81060000D03*
X140000000Y-83600000D03*
X140000000Y-86140000D03*
X140000000Y-88680000D03*
X140000000Y-91220000D03*
X140000000Y-93760000D03*
X140000000Y-96300000D03*
X140000000Y-98840000D03*
X140000000Y-101380000D03*
X140000000Y-103920000D03*
X140000000Y-106460000D03*
X140000000Y-109000000D03*
X140000000Y-111540000D03*
X140000000Y-114080000D03*
X139996320Y-116617280D03*
X139996320Y-119157280D03*
X139996320Y-121697280D03*
X162860000Y-121700000D03*
X162860000Y-119160000D03*
X162860000Y-116620000D03*
X162860000Y-114080000D03*
X162860000Y-111540000D03*
X162860000Y-109000000D03*
X162860000Y-106460000D03*
X162860000Y-103920000D03*
X162860000Y-101380000D03*
X162860000Y-98840000D03*
X162860000Y-96300000D03*
X162860000Y-93760000D03*
X162860000Y-91220000D03*
X162860000Y-88680000D03*
X162860000Y-86140000D03*
X162860000Y-83600000D03*
X162860000Y-81060000D03*
X162860000Y-78520000D03*
X162860000Y-75980000D03*
X162860000Y-73440000D03*
X162860000Y-70900000D03*
X162860000Y-68360000D03*
%TD*%
D26*
%TO.C,U2*%
X167275000Y-135700000D03*
X167275000Y-137400000D03*
X167275000Y-139100000D03*
D27*
X176425000Y-139100000D03*
D26*
X167275000Y-140800000D03*
X167275000Y-142500000D03*
%TD*%
D20*
%TO.C,J3*%
X171420000Y-129000000D03*
D21*
X173960000Y-129000000D03*
X176500000Y-129000000D03*
%TD*%
D10*
%TO.C,R9*%
X181000000Y-89580000D03*
X181000000Y-79420000D03*
%TD*%
%TO.C,R14*%
X79000000Y-75580000D03*
X79000000Y-65420000D03*
%TD*%
D11*
%TO.C,K2*%
X132660000Y-89380000D03*
D12*
X127580000Y-89380000D03*
X125040000Y-89380000D03*
X122500000Y-89380000D03*
X122500000Y-94460000D03*
X125040000Y-94460000D03*
X127580000Y-94460000D03*
X132660000Y-94460000D03*
%TD*%
D10*
%TO.C,C9*%
X124000000Y-140500000D03*
X124000000Y-138000000D03*
%TD*%
D28*
%TO.C,D8*%
X157000000Y-135600000D03*
X157000000Y-142400000D03*
%TD*%
D13*
%TO.C,H4*%
X195500000Y-64500000D03*
%TD*%
D20*
%TO.C,J7*%
X82250000Y-141090000D03*
D21*
X84790000Y-141090000D03*
X87330000Y-141090000D03*
%TD*%
D29*
%TO.C,L1*%
X139300000Y-138500000D03*
X149000000Y-138500000D03*
%TD*%
D30*
%TO.C,C5*%
X185487200Y-116500000D03*
D18*
X192987200Y-116500000D03*
%TD*%
D14*
%TO.C,D9*%
X74270000Y-84500000D03*
D15*
X71730000Y-84500000D03*
%TD*%
D31*
%TO.C,R12*%
X170800000Y-67500000D03*
X167400000Y-67500000D03*
%TD*%
D32*
%TO.C,DS2*%
X110500000Y-118020000D03*
D10*
X110500000Y-115480000D03*
X110500000Y-112940000D03*
X110500000Y-110400000D03*
X110550000Y-107860000D03*
X110500000Y-105320000D03*
X110500000Y-102780000D03*
X110500000Y-100240000D03*
X110500000Y-97700000D03*
X110500000Y-95160000D03*
X110500000Y-92620000D03*
X110500000Y-90080000D03*
X110500000Y-87540000D03*
X110500000Y-85000000D03*
%TD*%
D32*
%TO.C,DS3*%
X110580000Y-118010000D03*
D10*
X110580000Y-115470000D03*
X110580000Y-112930000D03*
X110580000Y-110390000D03*
X110580000Y-107850000D03*
X110580000Y-105310000D03*
X110580000Y-102770000D03*
X110580000Y-100230000D03*
X110580000Y-97690000D03*
X110580000Y-95150000D03*
X110580000Y-92610000D03*
X110580000Y-90070000D03*
X110580000Y-87530000D03*
X110580000Y-84990000D03*
%TD*%
D20*
%TO.C,DS1*%
X91500000Y-118010000D03*
D21*
X91500000Y-115470000D03*
X91500000Y-112930000D03*
X91500000Y-110390000D03*
X91500000Y-107850000D03*
X91500000Y-105310000D03*
X91500000Y-102770000D03*
X91500000Y-100230000D03*
X91500000Y-97690000D03*
X91500000Y-95150000D03*
X91500000Y-92610000D03*
X91500000Y-90070000D03*
X91500000Y-87530000D03*
X91500000Y-84990000D03*
%TD*%
D20*
%TO.C,J5*%
X77500000Y-127420000D03*
D21*
X77500000Y-129960000D03*
X77500000Y-132500000D03*
X77500000Y-135040000D03*
%TD*%
M02*
