%TF.GenerationSoftware,KiCad,Pcbnew,9.0.8-9.0.8~ubuntu24.04.1*%
%TF.CreationDate,2026-05-15T17:35:01-05:00*%
%TF.ProjectId,ESP32-DevKitC3-Simple-Thermostat-PCB_v3,45535033-322d-4446-9576-4b697443332d,1.2*%
%TF.SameCoordinates,Original*%
%TF.FileFunction,Copper,L1,Top*%
%TF.FilePolarity,Positive*%
%FSLAX46Y46*%
G04 Gerber Fmt 4.6, Leading zero omitted, Abs format (unit mm)*
G04 Created by KiCad (PCBNEW 9.0.8-9.0.8~ubuntu24.04.1) date 2026-05-15 17:35:01*
%MOMM*%
%LPD*%
G01*
G04 APERTURE LIST*
G04 Aperture macros list*
%AMRoundRect*
0 Rectangle with rounded corners*
0 $1 Rounding radius*
0 $2 $3 $4 $5 $6 $7 $8 $9 X,Y pos of 4 corners*
0 Add a 4 corners polygon primitive as box body*
4,1,4,$2,$3,$4,$5,$6,$7,$8,$9,$2,$3,0*
0 Add four circle primitives for the rounded corners*
1,1,$1+$1,$2,$3*
1,1,$1+$1,$4,$5*
1,1,$1+$1,$6,$7*
1,1,$1+$1,$8,$9*
0 Add four rect primitives between the rounded corners*
20,1,$1+$1,$2,$3,$4,$5,0*
20,1,$1+$1,$4,$5,$6,$7,0*
20,1,$1+$1,$6,$7,$8,$9,0*
20,1,$1+$1,$8,$9,$2,$3,0*%
G04 Aperture macros list end*
%TA.AperFunction,NonConductor*%
%ADD10C,0.100000*%
%TD*%
%TA.AperFunction,ComponentPad*%
%ADD11C,1.600000*%
%TD*%
%TA.AperFunction,ComponentPad*%
%ADD12R,2.000000X2.000000*%
%TD*%
%TA.AperFunction,ComponentPad*%
%ADD13C,2.000000*%
%TD*%
%TA.AperFunction,ComponentPad*%
%ADD14C,6.000000*%
%TD*%
%TA.AperFunction,ComponentPad*%
%ADD15R,1.800000X1.800000*%
%TD*%
%TA.AperFunction,ComponentPad*%
%ADD16C,1.800000*%
%TD*%
%TA.AperFunction,SMDPad,CuDef*%
%ADD17RoundRect,0.150000X0.587500X0.150000X-0.587500X0.150000X-0.587500X-0.150000X0.587500X-0.150000X0*%
%TD*%
%TA.AperFunction,ComponentPad*%
%ADD18RoundRect,0.250001X-0.949999X0.949999X-0.949999X-0.949999X0.949999X-0.949999X0.949999X0.949999X0*%
%TD*%
%TA.AperFunction,ComponentPad*%
%ADD19C,2.400000*%
%TD*%
%TA.AperFunction,SMDPad,CuDef*%
%ADD20R,2.311400X0.558800*%
%TD*%
%TA.AperFunction,ComponentPad*%
%ADD21R,1.700000X1.700000*%
%TD*%
%TA.AperFunction,ComponentPad*%
%ADD22C,1.700000*%
%TD*%
%TA.AperFunction,ComponentPad*%
%ADD23RoundRect,0.250000X0.550000X0.550000X-0.550000X0.550000X-0.550000X-0.550000X0.550000X-0.550000X0*%
%TD*%
%TA.AperFunction,ComponentPad*%
%ADD24R,2.400000X2.400000*%
%TD*%
%TA.AperFunction,ComponentPad*%
%ADD25R,2.000000X1.200000*%
%TD*%
%TA.AperFunction,ComponentPad*%
%ADD26O,2.000000X1.200000*%
%TD*%
%TA.AperFunction,SMDPad,CuDef*%
%ADD27RoundRect,0.250000X-2.050000X-0.300000X2.050000X-0.300000X2.050000X0.300000X-2.050000X0.300000X0*%
%TD*%
%TA.AperFunction,SMDPad,CuDef*%
%ADD28RoundRect,0.250002X-4.449998X-5.149998X4.449998X-5.149998X4.449998X5.149998X-4.449998X5.149998X0*%
%TD*%
%TA.AperFunction,SMDPad,CuDef*%
%ADD29RoundRect,0.250000X-1.400000X-1.000000X1.400000X-1.000000X1.400000X1.000000X-1.400000X1.000000X0*%
%TD*%
%TA.AperFunction,SMDPad,CuDef*%
%ADD30R,2.900000X5.400000*%
%TD*%
%TA.AperFunction,ComponentPad*%
%ADD31RoundRect,0.250001X-0.949999X-0.949999X0.949999X-0.949999X0.949999X0.949999X-0.949999X0.949999X0*%
%TD*%
%TA.AperFunction,ComponentPad*%
%ADD32C,1.500000*%
%TD*%
%TA.AperFunction,ComponentPad*%
%ADD33R,1.600000X1.600000*%
%TD*%
%TA.AperFunction,ViaPad*%
%ADD34C,0.600000*%
%TD*%
%TA.AperFunction,Conductor*%
%ADD35C,0.500000*%
%TD*%
%TA.AperFunction,Conductor*%
%ADD36C,0.200000*%
%TD*%
%TA.AperFunction,Conductor*%
%ADD37C,1.000000*%
%TD*%
G04 APERTURE END LIST*
D10*
X71000000Y-64500000D02*
G75*
G02*
X67837722Y-64500000I-1581139J0D01*
G01*
X67837722Y-64500000D02*
G75*
G02*
X71000000Y-64500000I1581139J0D01*
G01*
X71581139Y-146918861D02*
G75*
G02*
X68418861Y-146918861I-1581139J0D01*
G01*
X68418861Y-146918861D02*
G75*
G02*
X71581139Y-146918861I1581139J0D01*
G01*
X197081139Y-64918861D02*
G75*
G02*
X193918861Y-64918861I-1581139J0D01*
G01*
X193918861Y-64918861D02*
G75*
G02*
X197081139Y-64918861I1581139J0D01*
G01*
X197581139Y-146918861D02*
G75*
G02*
X194418861Y-146918861I-1581139J0D01*
G01*
X194418861Y-146918861D02*
G75*
G02*
X197581139Y-146918861I1581139J0D01*
G01*
D11*
%TO.P,R11,1*%
%TO.N,Net-(D9-Pad2)*%
X79000000Y-89080000D03*
%TO.P,R11,2*%
%TO.N,LED_FAN*%
X79000000Y-78920000D03*
%TD*%
D12*
%TO.P,K7,1*%
%TO.N,+5V*%
X132660000Y-125920000D03*
D13*
%TO.P,K7,3*%
%TO.N,unconnected-(K7-Pad3)*%
X127580000Y-125920000D03*
%TO.P,K7,4*%
%TO.N,RLY-C*%
X125040000Y-125920000D03*
%TO.P,K7,5*%
%TO.N,G*%
X122500000Y-125920000D03*
%TO.P,K7,8*%
%TO.N,unconnected-(K7-Pad8)*%
X122500000Y-131000000D03*
%TO.P,K7,9*%
%TO.N,unconnected-(K7-Pad9)*%
X125040000Y-131000000D03*
%TO.P,K7,10*%
%TO.N,unconnected-(K7-Pad10)*%
X127580000Y-131000000D03*
%TO.P,K7,12*%
%TO.N,Net-(U3-O8)*%
X132660000Y-131000000D03*
%TD*%
D12*
%TO.P,K5,1*%
%TO.N,+5V*%
X132660000Y-116785000D03*
D13*
%TO.P,K5,3*%
%TO.N,unconnected-(K5-Pad3)*%
X127580000Y-116785000D03*
%TO.P,K5,4*%
%TO.N,RLY-C*%
X125040000Y-116785000D03*
%TO.P,K5,5*%
%TO.N,PUMP*%
X122500000Y-116785000D03*
%TO.P,K5,8*%
%TO.N,unconnected-(K5-Pad8)*%
X122500000Y-121865000D03*
%TO.P,K5,9*%
%TO.N,unconnected-(K5-Pad9)*%
X125040000Y-121865000D03*
%TO.P,K5,10*%
%TO.N,unconnected-(K5-Pad10)*%
X127580000Y-121865000D03*
%TO.P,K5,12*%
%TO.N,Net-(U3-O3)*%
X132660000Y-121865000D03*
%TD*%
D14*
%TO.P,H3,1*%
%TO.N,GND*%
X195500000Y-147000000D03*
%TD*%
D11*
%TO.P,R10,1*%
%TO.N,GND*%
X176500000Y-73160000D03*
%TO.P,R10,2*%
%TO.N,LIGHT_SENS*%
X176500000Y-63000000D03*
%TD*%
%TO.P,R8,1*%
%TO.N,BUZZER*%
X184500000Y-89580000D03*
%TO.P,R8,2*%
%TO.N,Net-(Q7-G)*%
X184500000Y-79420000D03*
%TD*%
D15*
%TO.P,D10,1*%
%TO.N,GND*%
X74270000Y-79030000D03*
D16*
%TO.P,D10,2*%
%TO.N,Net-(D10-Pad2)*%
X71730000Y-79030000D03*
%TD*%
D17*
%TO.P,Q7,1,G*%
%TO.N,Net-(Q7-G)*%
X192000000Y-85450000D03*
%TO.P,Q7,2,S*%
%TO.N,GND*%
X192000000Y-83550000D03*
%TO.P,Q7,3,D*%
%TO.N,Net-(BZ1-+)*%
X190125000Y-84500000D03*
%TD*%
D12*
%TO.P,K3,1*%
%TO.N,+5V*%
X132660000Y-98515000D03*
D13*
%TO.P,K3,3*%
%TO.N,unconnected-(K3-Pad3)*%
X127580000Y-98515000D03*
%TO.P,K3,4*%
%TO.N,RLY-C*%
X125040000Y-98515000D03*
%TO.P,K3,5*%
%TO.N,W2*%
X122500000Y-98515000D03*
%TO.P,K3,8*%
%TO.N,unconnected-(K3-Pad8)*%
X122500000Y-103595000D03*
%TO.P,K3,9*%
%TO.N,unconnected-(K3-Pad9)*%
X125040000Y-103595000D03*
%TO.P,K3,10*%
%TO.N,unconnected-(K3-Pad10)*%
X127580000Y-103595000D03*
%TO.P,K3,12*%
%TO.N,Net-(U3-O5)*%
X132660000Y-103595000D03*
%TD*%
D18*
%TO.P,J2,1,G*%
%TO.N,G*%
X80000000Y-93500000D03*
D19*
%TO.P,J2,2,W*%
%TO.N,W*%
X80000000Y-97000000D03*
%TO.P,J2,3,Y*%
%TO.N,Y*%
X80000000Y-100500000D03*
%TO.P,J2,4,W2*%
%TO.N,W2*%
X80000000Y-104000000D03*
%TO.P,J2,5,Y2*%
%TO.N,Y2*%
X80000000Y-107500000D03*
%TO.P,J2,6,PUMP*%
%TO.N,PUMP*%
X80000000Y-111000000D03*
%TO.P,J2,7*%
%TO.N,RLY-C*%
X80000000Y-114500000D03*
%TO.P,J2,8,VAC-C*%
%TO.N,VAC-C*%
X80000000Y-118000000D03*
%TO.P,J2,9,VAC-R*%
%TO.N,VAC-R*%
X80000000Y-121500000D03*
%TD*%
D20*
%TO.P,U3,1,I1*%
%TO.N,unconnected-(U3-I1-Pad1)*%
X131042400Y-75000000D03*
%TO.P,U3,2,I2*%
%TO.N,unconnected-(U3-I2-Pad2)*%
X131042400Y-73730000D03*
%TO.P,U3,3,I3*%
%TO.N,PUMP_40*%
X131042400Y-72460000D03*
%TO.P,U3,4,I4*%
%TO.N,COOL-STAGE2_Y2_39*%
X131042400Y-71190000D03*
%TO.P,U3,5,I5*%
%TO.N,HEAT{slash}REV_W2_7*%
X131042400Y-69920000D03*
%TO.P,U3,6,I6*%
%TO.N,COOL_Y_6*%
X131042400Y-68650000D03*
%TO.P,U3,7,I7*%
%TO.N,HEAT_W_5*%
X131042400Y-67380000D03*
%TO.P,U3,8,I8*%
%TO.N,FAN_G_4*%
X131042400Y-66110000D03*
%TO.P,U3,9,GND*%
%TO.N,GND*%
X131042400Y-64840000D03*
%TO.P,U3,10,COM*%
%TO.N,+5V*%
X122000000Y-64840000D03*
%TO.P,U3,11,O8*%
%TO.N,Net-(U3-O8)*%
X122000000Y-66110000D03*
%TO.P,U3,12,O7*%
%TO.N,Net-(U3-O7)*%
X122000000Y-67380000D03*
%TO.P,U3,13,O6*%
%TO.N,Net-(U3-O6)*%
X122000000Y-68650000D03*
%TO.P,U3,14,O5*%
%TO.N,Net-(U3-O5)*%
X122000000Y-69920000D03*
%TO.P,U3,15,O4*%
%TO.N,Net-(U3-O4)*%
X122000000Y-71190000D03*
%TO.P,U3,16,O3*%
%TO.N,Net-(U3-O3)*%
X122000000Y-72460000D03*
%TO.P,U3,17,O2*%
%TO.N,unconnected-(U3-O2-Pad17)*%
X122000000Y-73730000D03*
%TO.P,U3,18,O1*%
%TO.N,unconnected-(U3-O1-Pad18)*%
X122000000Y-75000000D03*
%TD*%
D21*
%TO.P,J1,1*%
%TO.N,FAN_G_4*%
X173000000Y-75520000D03*
D22*
%TO.P,J1,2*%
%TO.N,+5V*%
X173000000Y-78060000D03*
%TO.P,J1,3*%
%TO.N,GND*%
X173000000Y-80600000D03*
%TO.P,J1,4*%
%TO.N,HEAT_W_5*%
X173000000Y-83140000D03*
%TO.P,J1,5*%
%TO.N,+5V*%
X173000000Y-85680000D03*
%TO.P,J1,6*%
%TO.N,GND*%
X173000000Y-88220000D03*
%TO.P,J1,7*%
%TO.N,COOL_Y_6*%
X173000000Y-90760000D03*
%TO.P,J1,8*%
%TO.N,+5V*%
X173000000Y-93300000D03*
%TO.P,J1,9*%
%TO.N,GND*%
X173000000Y-95840000D03*
%TO.P,J1,10*%
%TO.N,HEAT{slash}REV_W2_7*%
X173000000Y-98380000D03*
%TO.P,J1,11*%
%TO.N,+5V*%
X173000000Y-100920000D03*
%TO.P,J1,12*%
%TO.N,GND*%
X173000000Y-103460000D03*
%TO.P,J1,13*%
%TO.N,COOL-STAGE2_Y2_39*%
X173000000Y-106000000D03*
%TO.P,J1,14*%
%TO.N,+5V*%
X173000000Y-108540000D03*
%TO.P,J1,15*%
%TO.N,GND*%
X173000000Y-111080000D03*
%TO.P,J1,16*%
%TO.N,PUMP_40*%
X173000000Y-113620000D03*
%TO.P,J1,17*%
%TO.N,+5V*%
X173000000Y-116160000D03*
%TO.P,J1,18*%
%TO.N,GND*%
X173000000Y-118700000D03*
%TD*%
D14*
%TO.P,H2,1*%
%TO.N,GND*%
X69500000Y-147000000D03*
%TD*%
D15*
%TO.P,D11,1*%
%TO.N,GND*%
X74270000Y-73560000D03*
D16*
%TO.P,D11,2*%
%TO.N,Net-(D11-Pad2)*%
X71730000Y-73560000D03*
%TD*%
D11*
%TO.P,C6,1*%
%TO.N,GND*%
X181000000Y-103500000D03*
%TO.P,C6,2*%
%TO.N,Net-(D7-+)*%
X181000000Y-106000000D03*
%TD*%
%TO.P,R13,1*%
%TO.N,Net-(D10-Pad2)*%
X82500000Y-83080000D03*
%TO.P,R13,2*%
%TO.N,LED_HEAT*%
X82500000Y-72920000D03*
%TD*%
%TO.P,R7,1*%
%TO.N,DS18B20_41*%
X169420000Y-124500000D03*
%TO.P,R7,2*%
%TO.N,3.3V*%
X179580000Y-124500000D03*
%TD*%
D12*
%TO.P,K4,1*%
%TO.N,+5V*%
X132660000Y-107650000D03*
D13*
%TO.P,K4,3*%
%TO.N,unconnected-(K4-Pad3)*%
X127580000Y-107650000D03*
%TO.P,K4,4*%
%TO.N,RLY-C*%
X125040000Y-107650000D03*
%TO.P,K4,5*%
%TO.N,Y2*%
X122500000Y-107650000D03*
%TO.P,K4,8*%
%TO.N,unconnected-(K4-Pad8)*%
X122500000Y-112730000D03*
%TO.P,K4,9*%
%TO.N,unconnected-(K4-Pad9)*%
X125040000Y-112730000D03*
%TO.P,K4,10*%
%TO.N,unconnected-(K4-Pad10)*%
X127580000Y-112730000D03*
%TO.P,K4,12*%
%TO.N,Net-(U3-O4)*%
X132660000Y-112730000D03*
%TD*%
D12*
%TO.P,BZ1,1,+*%
%TO.N,+5V*%
X183129200Y-70000000D03*
D13*
%TO.P,BZ1,2,-*%
%TO.N,Net-(BZ1-+)*%
X188129200Y-70000000D03*
%TD*%
D14*
%TO.P,H1,1*%
%TO.N,GND*%
X69500000Y-64500000D03*
%TD*%
D12*
%TO.P,K1,1*%
%TO.N,+5V*%
X132660000Y-80245000D03*
D13*
%TO.P,K1,3*%
%TO.N,unconnected-(K1-Pad3)*%
X127580000Y-80245000D03*
%TO.P,K1,4*%
%TO.N,RLY-C*%
X125040000Y-80245000D03*
%TO.P,K1,5*%
%TO.N,W*%
X122500000Y-80245000D03*
%TO.P,K1,8*%
%TO.N,unconnected-(K1-Pad8)*%
X122500000Y-85325000D03*
%TO.P,K1,9*%
%TO.N,unconnected-(K1-Pad9)*%
X125040000Y-85325000D03*
%TO.P,K1,10*%
%TO.N,unconnected-(K1-Pad10)*%
X127580000Y-85325000D03*
%TO.P,K1,12*%
%TO.N,Net-(U3-O7)*%
X132660000Y-85325000D03*
%TD*%
D23*
%TO.P,C8,1*%
%TO.N,+5V*%
X133000000Y-139500000D03*
D11*
%TO.P,C8,2*%
%TO.N,GND*%
X129500000Y-139500000D03*
%TD*%
D24*
%TO.P,D7,1,+*%
%TO.N,Net-(D7-+)*%
X186500000Y-143200000D03*
D19*
%TO.P,D7,2,1*%
%TO.N,VAC-R*%
X186500000Y-139390000D03*
%TO.P,D7,3,2*%
%TO.N,VAC-C*%
X186500000Y-135580000D03*
%TO.P,D7,4,-*%
%TO.N,GND*%
X186500000Y-131770000D03*
%TD*%
D25*
%TO.P,U1,1,3V3*%
%TO.N,3.3V*%
X140000000Y-68360000D03*
D26*
%TO.P,U1,2,3V3*%
X140000000Y-70900000D03*
%TO.P,U1,3,CHIP_PU*%
%TO.N,unconnected-(U1-CHIP_PU-Pad3)*%
X140000000Y-73440000D03*
%TO.P,U1,4,GPIO4/ADC1_CH3*%
%TO.N,FAN_G_4*%
X140000000Y-75980000D03*
%TO.P,U1,5,GPIO5/ADC1_CH4*%
%TO.N,HEAT_W_5*%
X140000000Y-78520000D03*
%TO.P,U1,6,GPIO6/ADC1_CH5*%
%TO.N,COOL_Y_6*%
X140000000Y-81060000D03*
%TO.P,U1,7,GPIO7/ADC1_CH6*%
%TO.N,HEAT{slash}REV_W2_7*%
X140000000Y-83600000D03*
%TO.P,U1,8,GPIO15/ADC2_CH4/32K_P*%
%TO.N,unconnected-(U1-GPIO15{slash}ADC2_CH4{slash}32K_P-Pad8)*%
X140000000Y-86140000D03*
%TO.P,U1,9,GPIO16/ADC2_CH5/32K_N*%
%TO.N,unconnected-(U1-GPIO16{slash}ADC2_CH5{slash}32K_N-Pad9)*%
X140000000Y-88680000D03*
%TO.P,U1,10,GPIO17/ADC2_CH6*%
%TO.N,BUZZER*%
X140000000Y-91220000D03*
%TO.P,U1,11,GPIO18/ADC2_CH7*%
%TO.N,unconnected-(U1-GPIO18{slash}ADC2_CH7-Pad11)*%
X140000000Y-93760000D03*
%TO.P,U1,12,GPIO8/ADC1_CH7*%
%TO.N,LIGHT_SENS*%
X140000000Y-96300000D03*
%TO.P,U1,13,GPIO3/ADC1_CH2*%
%TO.N,unconnected-(U1-GPIO3{slash}ADC1_CH2-Pad13)*%
X140000000Y-98840000D03*
%TO.P,U1,14,GPIO46*%
%TO.N,unconnected-(U1-GPIO46-Pad14)*%
X140000000Y-101380000D03*
%TO.P,U1,15,GPIO9/ADC1_CH8*%
%TO.N,CS_9*%
X140000000Y-103920000D03*
%TO.P,U1,16,GPIO10/ADC1_CH9*%
%TO.N,TFT_REST*%
X140000000Y-106460000D03*
%TO.P,U1,17,GPIO11/ADC2_CH0*%
%TO.N,DC_11*%
X140000000Y-109000000D03*
%TO.P,U1,18,GPIO12/ADC2_CH1*%
%TO.N,MOSI_12*%
X140000000Y-111540000D03*
%TO.P,U1,19,GPIO13/ADC2_CH2*%
%TO.N,SCK_13*%
X140000000Y-114080000D03*
%TO.P,U1,20,GPIO14/ADC2_CH3*%
%TO.N,TFT_LED*%
X139996320Y-116617280D03*
%TO.P,U1,21,5V*%
%TO.N,+5V*%
X139996320Y-119157280D03*
%TO.P,U1,22,GND*%
%TO.N,GND*%
X139996320Y-121697280D03*
%TO.P,U1,23,GND*%
X162860000Y-121700000D03*
%TO.P,U1,24,GND*%
X162860000Y-119160000D03*
%TO.P,U1,25,GPIO19/USB_D-*%
%TO.N,unconnected-(U1-GPIO19{slash}USB_D--Pad25)*%
X162860000Y-116620000D03*
%TO.P,U1,26,GPIO20/USB_D+*%
%TO.N,unconnected-(U1-GPIO20{slash}USB_D+-Pad26)*%
X162860000Y-114080000D03*
%TO.P,U1,27,GPIO21*%
%TO.N,MISO_21*%
X162860000Y-111540000D03*
%TO.P,U1,28,GPIO47*%
%TO.N,T_CS_47*%
X162860000Y-109000000D03*
%TO.P,U1,29,GPIO48*%
%TO.N,TOUCH_IRQ*%
X162860000Y-106460000D03*
%TO.P,U1,30,GPIO45*%
%TO.N,unconnected-(U1-GPIO45-Pad30)*%
X162860000Y-103920000D03*
%TO.P,U1,31,GPIO0*%
%TO.N,unconnected-(U1-GPIO0-Pad31)*%
X162860000Y-101380000D03*
%TO.P,U1,32,GPIO35*%
%TO.N,SCL*%
X162860000Y-98840000D03*
%TO.P,U1,33,GPIO36*%
%TO.N,SDA*%
X162860000Y-96300000D03*
%TO.P,U1,34,GPIO37*%
%TO.N,LED_FAN*%
X162860000Y-93760000D03*
%TO.P,U1,35,GPIO38*%
%TO.N,LED_HEAT*%
X162860000Y-91220000D03*
%TO.P,U1,36,GPIO39/MTCK*%
%TO.N,COOL-STAGE2_Y2_39*%
X162860000Y-88680000D03*
%TO.P,U1,37,GPIO40/MTDO*%
%TO.N,PUMP_40*%
X162860000Y-86140000D03*
%TO.P,U1,38,GPIO41/MTDI*%
%TO.N,DS18B20_41*%
X162860000Y-83600000D03*
%TO.P,U1,39,GPIO42/MTMS*%
%TO.N,unconnected-(U1-GPIO42{slash}MTMS-Pad39)*%
X162860000Y-81060000D03*
%TO.P,U1,40,GPIO2/ADC1_CH1*%
%TO.N,LED_COOL*%
X162860000Y-78520000D03*
%TO.P,U1,41,GPIO1/ADC1_CH0*%
%TO.N,unconnected-(U1-GPIO1{slash}ADC1_CH0-Pad41)*%
X162860000Y-75980000D03*
%TO.P,U1,42,GPIO44/U0RXD*%
%TO.N,unconnected-(U1-GPIO44{slash}U0RXD-Pad42)*%
X162860000Y-73440000D03*
%TO.P,U1,43,GPIO43/U0TXD*%
%TO.N,unconnected-(U1-GPIO43{slash}U0TXD-Pad43)*%
X162860000Y-70900000D03*
%TO.P,U1,44,GND*%
%TO.N,GND*%
X162860000Y-68360000D03*
%TD*%
D27*
%TO.P,U2,1,VIN*%
%TO.N,Net-(D7-+)*%
X167275000Y-135700000D03*
%TO.P,U2,2,OUT*%
%TO.N,Net-(D8-K)*%
X167275000Y-137400000D03*
%TO.P,U2,3,GND*%
%TO.N,GND*%
X167275000Y-139100000D03*
D28*
X176425000Y-139100000D03*
D27*
%TO.P,U2,4,FB*%
%TO.N,+5V*%
X167275000Y-140800000D03*
%TO.P,U2,5,~{ON}/OFF*%
%TO.N,GND*%
X167275000Y-142500000D03*
%TD*%
D21*
%TO.P,J3,1*%
%TO.N,DS18B20_41*%
X171420000Y-129000000D03*
D22*
%TO.P,J3,2*%
%TO.N,3.3V*%
X173960000Y-129000000D03*
%TO.P,J3,3*%
%TO.N,GND*%
X176500000Y-129000000D03*
%TD*%
D11*
%TO.P,R9,1*%
%TO.N,Net-(BZ1-+)*%
X181000000Y-89580000D03*
%TO.P,R9,2*%
%TO.N,+5V*%
X181000000Y-79420000D03*
%TD*%
%TO.P,R14,1*%
%TO.N,Net-(D11-Pad2)*%
X79000000Y-75580000D03*
%TO.P,R14,2*%
%TO.N,LED_COOL*%
X79000000Y-65420000D03*
%TD*%
D12*
%TO.P,K2,1*%
%TO.N,+5V*%
X132660000Y-89380000D03*
D13*
%TO.P,K2,3*%
%TO.N,unconnected-(K2-Pad3)*%
X127580000Y-89380000D03*
%TO.P,K2,4*%
%TO.N,RLY-C*%
X125040000Y-89380000D03*
%TO.P,K2,5*%
%TO.N,Y*%
X122500000Y-89380000D03*
%TO.P,K2,8*%
%TO.N,unconnected-(K2-Pad8)*%
X122500000Y-94460000D03*
%TO.P,K2,9*%
%TO.N,unconnected-(K2-Pad9)*%
X125040000Y-94460000D03*
%TO.P,K2,10*%
%TO.N,unconnected-(K2-Pad10)*%
X127580000Y-94460000D03*
%TO.P,K2,12*%
%TO.N,Net-(U3-O6)*%
X132660000Y-94460000D03*
%TD*%
D11*
%TO.P,C9,1*%
%TO.N,+5V*%
X124000000Y-140500000D03*
%TO.P,C9,2*%
%TO.N,GND*%
X124000000Y-138000000D03*
%TD*%
D29*
%TO.P,D8,1,K*%
%TO.N,Net-(D8-K)*%
X157000000Y-135600000D03*
%TO.P,D8,2,A*%
%TO.N,GND*%
X157000000Y-142400000D03*
%TD*%
D14*
%TO.P,H4,1*%
%TO.N,GND*%
X195500000Y-64500000D03*
%TD*%
D21*
%TO.P,J7,1*%
%TO.N,+5V*%
X82250000Y-141090000D03*
D22*
%TO.P,J7,2*%
%TO.N,Net-(J5-Pad1)*%
X84790000Y-141090000D03*
%TO.P,J7,3*%
%TO.N,3.3V*%
X87330000Y-141090000D03*
%TD*%
D30*
%TO.P,L1,1,1*%
%TO.N,+5V*%
X139300000Y-138500000D03*
%TO.P,L1,2,2*%
%TO.N,Net-(D8-K)*%
X149000000Y-138500000D03*
%TD*%
D31*
%TO.P,C5,1*%
%TO.N,Net-(D7-+)*%
X185487200Y-116500000D03*
D19*
%TO.P,C5,2*%
%TO.N,GND*%
X192987200Y-116500000D03*
%TD*%
D15*
%TO.P,D9,1*%
%TO.N,GND*%
X74270000Y-84500000D03*
D16*
%TO.P,D9,2*%
%TO.N,Net-(D9-Pad2)*%
X71730000Y-84500000D03*
%TD*%
D32*
%TO.P,R12,1*%
%TO.N,3.3V*%
X170800000Y-67500000D03*
%TO.P,R12,2*%
%TO.N,LIGHT_SENS*%
X167400000Y-67500000D03*
%TD*%
D33*
%TO.P,DS2,1,VCC*%
%TO.N,+5V*%
X110500000Y-118020000D03*
D11*
%TO.P,DS2,2,GND*%
%TO.N,GND*%
X110500000Y-115480000D03*
%TO.P,DS2,3,CS*%
%TO.N,CS_9*%
X110500000Y-112940000D03*
%TO.P,DS2,4,RESET*%
%TO.N,TFT_REST*%
X110500000Y-110400000D03*
%TO.P,DS2,5,DC*%
%TO.N,DC_11*%
X110550000Y-107860000D03*
%TO.P,DS2,6,SDI(MOSI)*%
%TO.N,MOSI_12*%
X110500000Y-105320000D03*
%TO.P,DS2,7,SCK*%
%TO.N,SCK_13*%
X110500000Y-102780000D03*
%TO.P,DS2,8,LED*%
%TO.N,TFT_LED*%
X110500000Y-100240000D03*
%TO.P,DS2,9,SDO(MISO)*%
%TO.N,MISO_21*%
X110500000Y-97700000D03*
%TO.P,DS2,10,T_CLK*%
%TO.N,SCK_13*%
X110500000Y-95160000D03*
%TO.P,DS2,11,T_CS*%
%TO.N,T_CS_47*%
X110500000Y-92620000D03*
%TO.P,DS2,12,T_DIN*%
%TO.N,MOSI_12*%
X110500000Y-90080000D03*
%TO.P,DS2,13,T_DO*%
%TO.N,MISO_21*%
X110500000Y-87540000D03*
%TO.P,DS2,14,T_IRQ*%
%TO.N,TOUCH_IRQ*%
X110500000Y-85000000D03*
%TD*%
D33*
%TO.P,DS3,1,VCC*%
%TO.N,unconnected-(DS3-VCC-Pad1)*%
X110580000Y-118010000D03*
D11*
%TO.P,DS3,2,GND*%
%TO.N,unconnected-(DS3-GND-Pad2)*%
X110580000Y-115470000D03*
%TO.P,DS3,3,CS*%
%TO.N,CS_9*%
X110580000Y-112930000D03*
%TO.P,DS3,4,RESET*%
%TO.N,TFT_REST*%
X110580000Y-110390000D03*
%TO.P,DS3,5,DC*%
%TO.N,DC_11*%
X110580000Y-107850000D03*
%TO.P,DS3,6,SDI(MOSI)*%
%TO.N,MOSI_12*%
X110580000Y-105310000D03*
%TO.P,DS3,7,SCK*%
%TO.N,SCK_13*%
X110580000Y-102770000D03*
%TO.P,DS3,8,LED*%
%TO.N,TFT_LED*%
X110580000Y-100230000D03*
%TO.P,DS3,9,SDO(MISO)*%
%TO.N,unconnected-(DS3-SDO(MISO)-Pad9)*%
X110580000Y-97690000D03*
%TO.P,DS3,10,T_CLK*%
%TO.N,unconnected-(DS3-T_CLK-Pad10)*%
X110580000Y-95150000D03*
%TO.P,DS3,11,T_CS*%
%TO.N,unconnected-(DS3-T_CS-Pad11)*%
X110580000Y-92610000D03*
%TO.P,DS3,12,T_DIN*%
%TO.N,unconnected-(DS3-T_DIN-Pad12)*%
X110580000Y-90070000D03*
%TO.P,DS3,13,T_DO*%
%TO.N,unconnected-(DS3-T_DO-Pad13)*%
X110580000Y-87530000D03*
%TO.P,DS3,14,T_IRQ*%
%TO.N,unconnected-(DS3-T_IRQ-Pad14)*%
X110580000Y-84990000D03*
%TD*%
D21*
%TO.P,DS1,1,VCC*%
%TO.N,+5V*%
X91500000Y-118010000D03*
D22*
%TO.P,DS1,2,GND*%
%TO.N,GND*%
X91500000Y-115470000D03*
%TO.P,DS1,3,CS*%
%TO.N,CS_9*%
X91500000Y-112930000D03*
%TO.P,DS1,4,RESET*%
%TO.N,TFT_REST*%
X91500000Y-110390000D03*
%TO.P,DS1,5,DC*%
%TO.N,DC_11*%
X91500000Y-107850000D03*
%TO.P,DS1,6,SDI(MOSI)*%
%TO.N,MOSI_12*%
X91500000Y-105310000D03*
%TO.P,DS1,7,SCK*%
%TO.N,SCK_13*%
X91500000Y-102770000D03*
%TO.P,DS1,8,LED*%
%TO.N,TFT_LED*%
X91500000Y-100230000D03*
%TO.P,DS1,9,SDO(MISO)*%
%TO.N,MISO_21*%
X91500000Y-97690000D03*
%TO.P,DS1,10,T_CLK*%
%TO.N,SCK_13*%
X91500000Y-95150000D03*
%TO.P,DS1,11,T_CS*%
%TO.N,T_CS_47*%
X91500000Y-92610000D03*
%TO.P,DS1,12,T_DIN*%
%TO.N,MOSI_12*%
X91500000Y-90070000D03*
%TO.P,DS1,13,T_DO*%
%TO.N,MISO_21*%
X91500000Y-87530000D03*
%TO.P,DS1,14,T_IRQ*%
%TO.N,TOUCH_IRQ*%
X91500000Y-84990000D03*
%TD*%
D21*
%TO.P,J5,1*%
%TO.N,Net-(J5-Pad1)*%
X77500000Y-127420000D03*
D22*
%TO.P,J5,2*%
%TO.N,GND*%
X77500000Y-129960000D03*
%TO.P,J5,3*%
%TO.N,SCL*%
X77500000Y-132500000D03*
%TO.P,J5,4*%
%TO.N,SDA*%
X77500000Y-135040000D03*
%TD*%
D34*
%TO.N,GND*%
X181990000Y-137780000D03*
X181960000Y-139230000D03*
X193400000Y-83500000D03*
X129500000Y-64840000D03*
X182010000Y-135140000D03*
X181960000Y-140550000D03*
X181960000Y-141900000D03*
X181960000Y-143240000D03*
X182010000Y-136400000D03*
%TO.N,+5V*%
X123500000Y-64840000D03*
X163000000Y-141000000D03*
%TO.N,Net-(U3-O8)*%
X125610000Y-66110000D03*
%TO.N,Net-(U3-O7)*%
X127240700Y-67380000D03*
%TO.N,Net-(U3-O6)*%
X127497700Y-68650000D03*
%TO.N,Net-(U3-O5)*%
X127922300Y-70000000D03*
%TO.N,Net-(U3-O4)*%
X128000000Y-71190000D03*
%TO.N,Net-(U3-O3)*%
X128000000Y-72460000D03*
%TO.N,W2*%
X116810000Y-118178400D03*
%TO.N,G*%
X89500000Y-125500000D03*
%TO.N,Y2*%
X86000000Y-123000000D03*
X119987500Y-107919000D03*
X119987500Y-119000000D03*
%TO.N,COOL_Y_6*%
X134650000Y-68650000D03*
%TO.N,HEAT{slash}REV_W2_7*%
X134420000Y-69920000D03*
X144000000Y-96209400D03*
%TO.N,HEAT_W_5*%
X135000000Y-67500000D03*
%TO.N,DC_11*%
X113500000Y-108000000D03*
%TO.N,CS_9*%
X135500000Y-111020000D03*
%TO.N,SCK_13*%
X114740000Y-112000000D03*
%TO.N,TFT_LED*%
X115451771Y-113825000D03*
%TO.N,SCL*%
X160627700Y-98840000D03*
X160062700Y-113000000D03*
%TO.N,SDA*%
X159140000Y-115000000D03*
X159500000Y-96300000D03*
%TO.N,LIGHT_SENS*%
X167000000Y-95285000D03*
%TO.N,LED_FAN*%
X154000000Y-93760000D03*
%TO.N,LED_HEAT*%
X154500000Y-91220000D03*
%TO.N,TFT_REST*%
X137017670Y-110402330D03*
%TD*%
D35*
%TO.N,GND*%
X179125000Y-136400000D02*
X177745000Y-137780000D01*
X162600000Y-139100000D02*
X167275000Y-139100000D01*
D36*
X179225000Y-141900000D02*
X177875000Y-140550000D01*
D35*
X180385000Y-135140000D02*
X179125000Y-136400000D01*
D36*
X181960000Y-143240000D02*
X180565000Y-143240000D01*
X177745000Y-137780000D02*
X176425000Y-139100000D01*
X177875000Y-140550000D02*
X176425000Y-139100000D01*
D35*
X183755000Y-131770000D02*
X180385000Y-135140000D01*
D36*
X193350000Y-83550000D02*
X193400000Y-83500000D01*
X179125000Y-136400000D02*
X177745000Y-137780000D01*
X177745000Y-137780000D02*
X176425000Y-139100000D01*
D35*
X161600000Y-142500000D02*
X167275000Y-142500000D01*
D36*
X182010000Y-135140000D02*
X180385000Y-135140000D01*
X192000000Y-83550000D02*
X193350000Y-83550000D01*
D35*
X177745000Y-137780000D02*
X176425000Y-139100000D01*
D36*
X180565000Y-143240000D02*
X179225000Y-141900000D01*
X181960000Y-139230000D02*
X181920000Y-139230000D01*
D35*
X161500000Y-142400000D02*
X157000000Y-142400000D01*
X186500000Y-131770000D02*
X183755000Y-131770000D01*
D36*
X180385000Y-135140000D02*
X179125000Y-136400000D01*
X177875000Y-140550000D02*
X176425000Y-139100000D01*
D37*
X167275000Y-139100000D02*
X176425000Y-139100000D01*
D36*
X181790000Y-139100000D02*
X176425000Y-139100000D01*
X181920000Y-139230000D02*
X181790000Y-139100000D01*
X182010000Y-136400000D02*
X179125000Y-136400000D01*
X181990000Y-137780000D02*
X177745000Y-137780000D01*
X181960000Y-140550000D02*
X177875000Y-140550000D01*
X181960000Y-141900000D02*
X179225000Y-141900000D01*
X161500000Y-142400000D02*
X161600000Y-142500000D01*
D35*
X161500000Y-140200000D02*
X162600000Y-139100000D01*
D36*
X179225000Y-141900000D02*
X177875000Y-140550000D01*
X177875000Y-140550000D02*
X176425000Y-139100000D01*
X129500000Y-64840000D02*
X131042400Y-64840000D01*
D35*
X161500000Y-142400000D02*
X161500000Y-140200000D01*
D36*
X179125000Y-136400000D02*
X177745000Y-137780000D01*
X177745000Y-137780000D02*
X176425000Y-139100000D01*
D35*
%TO.N,+5V*%
X167275000Y-140800000D02*
X163200000Y-140800000D01*
X133000000Y-139500000D02*
X138300000Y-139500000D01*
D36*
X123500000Y-64840000D02*
X122000000Y-64840000D01*
X163200000Y-140800000D02*
X163000000Y-141000000D01*
X138300000Y-139500000D02*
X139300000Y-138500000D01*
%TO.N,3.3V*%
X178460000Y-124500000D02*
X179580000Y-124500000D01*
X140000000Y-68360000D02*
X141301700Y-68360000D01*
X169038300Y-69261700D02*
X142203400Y-69261700D01*
X142203400Y-69261700D02*
X141301700Y-68360000D01*
X173960000Y-129000000D02*
X178460000Y-124500000D01*
X170800000Y-67500000D02*
X169038300Y-69261700D01*
D35*
%TO.N,Net-(D7-+)*%
X182000000Y-129000000D02*
X181500000Y-129500000D01*
X185487000Y-115300000D02*
X185487000Y-128987000D01*
X181000000Y-132000000D02*
X164000000Y-132000000D01*
D36*
X181000000Y-106000000D02*
X182000000Y-107000000D01*
D35*
X190500000Y-129500000D02*
X190000000Y-129000000D01*
X190300000Y-143200000D02*
X190500000Y-143000000D01*
X186500000Y-143200000D02*
X190300000Y-143200000D01*
X163500000Y-135500000D02*
X163700000Y-135700000D01*
X181500000Y-129500000D02*
X181500000Y-131500000D01*
X185500000Y-129000000D02*
X182000000Y-129000000D01*
X181000000Y-106000000D02*
X185487000Y-110487000D01*
X181500000Y-131500000D02*
X181000000Y-132000000D01*
X163700000Y-135700000D02*
X167275000Y-135700000D01*
X164000000Y-132000000D02*
X163500000Y-132500000D01*
D36*
X185487000Y-128987000D02*
X185500000Y-129000000D01*
D35*
X190500000Y-143000000D02*
X190500000Y-129500000D01*
X185487000Y-110487000D02*
X185487000Y-115300000D01*
X190000000Y-129000000D02*
X185500000Y-129000000D01*
X163500000Y-132500000D02*
X163500000Y-135500000D01*
D36*
%TO.N,Net-(U3-O8)*%
X125610000Y-66110000D02*
X122000000Y-66110000D01*
%TO.N,Net-(U3-O7)*%
X127240700Y-67380000D02*
X122000000Y-67380000D01*
%TO.N,Net-(U3-O6)*%
X127497700Y-68650000D02*
X122000000Y-68650000D01*
%TO.N,Net-(U3-O5)*%
X127922300Y-70000000D02*
X123537400Y-70000000D01*
X123537400Y-70000000D02*
X123457400Y-69920000D01*
X123457400Y-69920000D02*
X122000000Y-69920000D01*
%TO.N,Net-(U3-O4)*%
X128000000Y-71190000D02*
X122000000Y-71190000D01*
%TO.N,Net-(U3-O3)*%
X128000000Y-72460000D02*
X122000000Y-72460000D01*
D35*
%TO.N,VAC-C*%
X82000000Y-146500000D02*
X74000000Y-138500000D01*
X186500000Y-135580000D02*
X183500000Y-138580000D01*
X183500000Y-138580000D02*
X183500000Y-146500000D01*
X183500000Y-146500000D02*
X82000000Y-146500000D01*
X74000000Y-138500000D02*
X74000000Y-124000000D01*
X74000000Y-124000000D02*
X80000000Y-118000000D01*
%TO.N,Net-(D8-K)*%
X160600000Y-135600000D02*
X157000000Y-135600000D01*
X153000000Y-138500000D02*
X149000000Y-138500000D01*
X167275000Y-137400000D02*
X162400000Y-137400000D01*
X162400000Y-137400000D02*
X160600000Y-135600000D01*
D36*
X157000000Y-135600000D02*
X155900000Y-135600000D01*
D35*
X155900000Y-135600000D02*
X153000000Y-138500000D01*
%TO.N,W2*%
X82000000Y-104000000D02*
X83500000Y-105500000D01*
X83500000Y-115000000D02*
X88000000Y-119500000D01*
X80000000Y-104000000D02*
X82000000Y-104000000D01*
X115500000Y-119500000D02*
X116810000Y-118190000D01*
X116810000Y-118190000D02*
X116810000Y-118178400D01*
X88000000Y-119500000D02*
X115500000Y-119500000D01*
X83500000Y-105500000D02*
X83500000Y-115000000D01*
%TO.N,W*%
X86500000Y-80500000D02*
X85000000Y-82000000D01*
X114500000Y-83500000D02*
X111500000Y-80500000D01*
X83000000Y-97000000D02*
X80000000Y-97000000D01*
X111500000Y-80500000D02*
X86500000Y-80500000D01*
X85000000Y-82000000D02*
X85000000Y-95000000D01*
X119245000Y-83500000D02*
X114500000Y-83500000D01*
X85000000Y-95000000D02*
X83000000Y-97000000D01*
X122500000Y-80245000D02*
X119245000Y-83500000D01*
%TO.N,PUMP*%
X82500000Y-113500000D02*
X82500000Y-114000000D01*
X116500000Y-120500000D02*
X120215000Y-116785000D01*
X80000000Y-111000000D02*
X82500000Y-113500000D01*
X82500000Y-114000000D02*
X82500000Y-116000000D01*
X87000000Y-120500000D02*
X116500000Y-120500000D01*
X120215000Y-116785000D02*
X122500000Y-116785000D01*
X82500000Y-116000000D02*
X87000000Y-120500000D01*
%TO.N,Y*%
X83500000Y-100500000D02*
X80000000Y-100500000D01*
X113500000Y-84500000D02*
X111000000Y-82000000D01*
X87000000Y-97000000D02*
X83500000Y-100500000D01*
X87000000Y-83500000D02*
X87000000Y-97000000D01*
X117620000Y-84500000D02*
X113500000Y-84500000D01*
X111000000Y-82000000D02*
X88500000Y-82000000D01*
X88500000Y-82000000D02*
X87000000Y-83500000D01*
X122500000Y-89380000D02*
X117620000Y-84500000D01*
%TO.N,G*%
X117420000Y-131000000D02*
X122500000Y-125920000D01*
X89500000Y-125500000D02*
X101000000Y-125500000D01*
X101000000Y-125500000D02*
X106500000Y-131000000D01*
X106500000Y-131000000D02*
X117420000Y-131000000D01*
%TO.N,Y2*%
X86500000Y-123500000D02*
X102000000Y-123500000D01*
X86000000Y-123000000D02*
X86500000Y-123500000D01*
X102000000Y-123500000D02*
X107500000Y-129000000D01*
X120000000Y-119025000D02*
X119987500Y-119012500D01*
X107500000Y-129000000D02*
X116000000Y-129000000D01*
X119987500Y-119012500D02*
X119987500Y-119000000D01*
X120256500Y-107650000D02*
X119987500Y-107919000D01*
X120000000Y-125000000D02*
X120000000Y-119025000D01*
X116000000Y-129000000D02*
X120000000Y-125000000D01*
X122500000Y-107650000D02*
X120256500Y-107650000D01*
%TO.N,RLY-C*%
X84500000Y-124500000D02*
X84500000Y-119000000D01*
X121000000Y-120500000D02*
X122500000Y-119000000D01*
X123249800Y-124129800D02*
X121370200Y-124129800D01*
X122500000Y-119000000D02*
X122825000Y-119000000D01*
X121000000Y-123759600D02*
X121000000Y-120500000D01*
X125040000Y-125920000D02*
X123249800Y-124129800D01*
X116500000Y-130000000D02*
X107000000Y-130000000D01*
X121370200Y-124129800D02*
X121000000Y-123759600D01*
X84500000Y-119000000D02*
X80000000Y-114500000D01*
X121000000Y-123759600D02*
X121000000Y-125500000D01*
X107000000Y-130000000D02*
X101500000Y-124500000D01*
X122825000Y-119000000D02*
X125040000Y-116785000D01*
X121000000Y-125500000D02*
X116500000Y-130000000D01*
X101500000Y-124500000D02*
X84500000Y-124500000D01*
D36*
%TO.N,Net-(BZ1-+)*%
X190125000Y-84500000D02*
X186080000Y-84500000D01*
X186080000Y-84500000D02*
X181000000Y-89580000D01*
%TO.N,Net-(D9-Pad2)*%
X71730000Y-84500000D02*
X76310000Y-89080000D01*
X76310000Y-89080000D02*
X79000000Y-89080000D01*
%TO.N,Net-(D10-Pad2)*%
X75780000Y-83080000D02*
X71730000Y-79030000D01*
X82500000Y-83080000D02*
X75780000Y-83080000D01*
%TO.N,Net-(D11-Pad2)*%
X73750000Y-75580000D02*
X71730000Y-73560000D01*
X79000000Y-75580000D02*
X73750000Y-75580000D01*
%TO.N,COOL_Y_6*%
X173000000Y-90760000D02*
X169740000Y-87500000D01*
X147741700Y-87500000D02*
X141301700Y-81060000D01*
X134650000Y-68650000D02*
X131042400Y-68650000D01*
X169740000Y-87500000D02*
X147741700Y-87500000D01*
X141301700Y-81060000D02*
X140000000Y-81060000D01*
%TO.N,FAN_G_4*%
X171392700Y-75064400D02*
X141301700Y-75064400D01*
X138480000Y-75980000D02*
X137500000Y-75000000D01*
X173000000Y-75520000D02*
X171848300Y-75520000D01*
X137500000Y-67000000D02*
X136610000Y-66110000D01*
X137500000Y-75000000D02*
X137500000Y-67000000D01*
X141301700Y-75064400D02*
X140386100Y-75980000D01*
X171848300Y-75520000D02*
X171392700Y-75064400D01*
X140000000Y-75980000D02*
X138480000Y-75980000D01*
X136610000Y-66110000D02*
X131042400Y-66110000D01*
%TO.N,HEAT{slash}REV_W2_7*%
X134420000Y-69920000D02*
X131042400Y-69920000D01*
X172190000Y-97570000D02*
X173000000Y-98380000D01*
X160508600Y-97045900D02*
X161032700Y-97570000D01*
X161032700Y-97570000D02*
X172190000Y-97570000D01*
X144000000Y-96209400D02*
X144836500Y-97045900D01*
X144836500Y-97045900D02*
X160508600Y-97045900D01*
%TO.N,COOL-STAGE2_Y2_39*%
X129500000Y-77000000D02*
X134000000Y-77000000D01*
X135460000Y-81960000D02*
X141460000Y-81960000D01*
X134500000Y-77500000D02*
X134500000Y-81000000D01*
X148180000Y-88680000D02*
X162860000Y-88680000D01*
X129310000Y-71190000D02*
X129000000Y-71500000D01*
X129000000Y-76500000D02*
X129500000Y-77000000D01*
X131042400Y-71190000D02*
X129310000Y-71190000D01*
X129000000Y-71500000D02*
X129000000Y-76500000D01*
X141460000Y-81960000D02*
X148180000Y-88680000D01*
X134000000Y-77000000D02*
X134500000Y-77500000D01*
X134500000Y-81000000D02*
X135460000Y-81960000D01*
%TO.N,HEAT_W_5*%
X170140000Y-83140000D02*
X166500000Y-79500000D01*
X166500000Y-79500000D02*
X142281700Y-79500000D01*
X135000000Y-67500000D02*
X134880000Y-67380000D01*
X173000000Y-83140000D02*
X170140000Y-83140000D01*
X142281700Y-79500000D02*
X141301700Y-78520000D01*
X141301700Y-78520000D02*
X140000000Y-78520000D01*
X134880000Y-67380000D02*
X131042400Y-67380000D01*
%TO.N,PUMP_40*%
X138500000Y-80000000D02*
X138000000Y-79500000D01*
X147640000Y-86140000D02*
X141500000Y-80000000D01*
X141500000Y-80000000D02*
X138500000Y-80000000D01*
X132460000Y-72460000D02*
X131042400Y-72460000D01*
X138000000Y-79500000D02*
X138000000Y-78000000D01*
X162860000Y-86140000D02*
X147640000Y-86140000D01*
X138000000Y-78000000D02*
X132460000Y-72460000D01*
%TO.N,MOSI_12*%
X91500000Y-105310000D02*
X110490000Y-105310000D01*
X112500000Y-108500000D02*
X113500000Y-109500000D01*
X112500000Y-106000000D02*
X112500000Y-108500000D01*
X137960000Y-109500000D02*
X140000000Y-111540000D01*
X110500000Y-105290000D02*
X111790000Y-105290000D01*
X111790000Y-105290000D02*
X112500000Y-106000000D01*
X113500000Y-109500000D02*
X137960000Y-109500000D01*
X110490000Y-105310000D02*
X110500000Y-105320000D01*
%TO.N,TOUCH_IRQ*%
X152668300Y-97570000D02*
X161558300Y-106460000D01*
X115087500Y-96087500D02*
X136087500Y-96087500D01*
X136087500Y-96087500D02*
X137570000Y-97570000D01*
X110530000Y-85000000D02*
X112000000Y-85000000D01*
X112000000Y-85000000D02*
X113000000Y-86000000D01*
X110500000Y-84970000D02*
X110530000Y-85000000D01*
X113000000Y-86000000D02*
X113000000Y-94000000D01*
X137570000Y-97570000D02*
X152668300Y-97570000D01*
X113000000Y-94000000D02*
X115087500Y-96087500D01*
X161558300Y-106460000D02*
X162860000Y-106460000D01*
%TO.N,DC_11*%
X114500000Y-109000000D02*
X140000000Y-109000000D01*
X113500000Y-108000000D02*
X114500000Y-109000000D01*
X110500000Y-107880000D02*
X110620000Y-108000000D01*
%TO.N,MISO_21*%
X113953700Y-101173700D02*
X132164300Y-101173700D01*
X135870500Y-104879900D02*
X154898200Y-104879900D01*
X154898200Y-104879900D02*
X161558300Y-111540000D01*
X110500000Y-97720000D02*
X113953700Y-101173700D01*
X91500000Y-97690000D02*
X110490000Y-97690000D01*
X162860000Y-111540000D02*
X161558300Y-111540000D01*
X132164300Y-101173700D02*
X135870500Y-104879900D01*
X110490000Y-97690000D02*
X110500000Y-97700000D01*
%TO.N,CS_9*%
X112460000Y-111000000D02*
X110500000Y-112960000D01*
X121039400Y-111000000D02*
X112460000Y-111000000D01*
X121059400Y-111020000D02*
X121039400Y-111000000D01*
X135500000Y-111020000D02*
X121059400Y-111020000D01*
%TO.N,SCK_13*%
X117240000Y-114500000D02*
X137000000Y-114500000D01*
X91500000Y-102770000D02*
X110490000Y-102770000D01*
X137000000Y-114500000D02*
X137420000Y-114080000D01*
X137420000Y-114080000D02*
X140000000Y-114080000D01*
X110490000Y-95150000D02*
X110500000Y-95160000D01*
X91500000Y-95150000D02*
X110490000Y-95150000D01*
X110490000Y-102770000D02*
X110500000Y-102780000D01*
X114740000Y-112000000D02*
X117240000Y-114500000D01*
%TO.N,TFT_LED*%
X137057500Y-114980200D02*
X138694600Y-116617300D01*
X138694600Y-116617300D02*
X139996300Y-116617300D01*
X110490000Y-100230000D02*
X110500000Y-100240000D01*
X115451771Y-114008371D02*
X116423600Y-114980200D01*
X91500000Y-100230000D02*
X110490000Y-100230000D01*
X115451771Y-113825000D02*
X115451771Y-114008371D01*
X116423600Y-114980200D02*
X137057500Y-114980200D01*
%TO.N,SCL*%
X160062700Y-113000000D02*
X140562700Y-132500000D01*
X160627700Y-98840000D02*
X162860000Y-98840000D01*
X140562700Y-132500000D02*
X77500000Y-132500000D01*
%TO.N,SDA*%
X159140000Y-115000000D02*
X159244265Y-115104265D01*
X158959928Y-115104265D02*
X141164193Y-132900000D01*
X159244265Y-115104265D02*
X158959928Y-115104265D01*
X140819193Y-133245000D02*
X79295000Y-133245000D01*
X141164193Y-132900000D02*
X140819193Y-133245000D01*
X159500000Y-96300000D02*
X162860000Y-96300000D01*
X79295000Y-133245000D02*
X77500000Y-135040000D01*
%TO.N,Net-(Q7-G)*%
X194000000Y-85000000D02*
X194000000Y-82800000D01*
X193350000Y-82150000D02*
X189650000Y-82150000D01*
X193550000Y-85450000D02*
X194000000Y-85000000D01*
X194000000Y-82800000D02*
X193350000Y-82150000D01*
X186920000Y-79420000D02*
X184500000Y-79420000D01*
X192000000Y-85450000D02*
X193550000Y-85450000D01*
X189650000Y-82150000D02*
X186920000Y-79420000D01*
%TO.N,BUZZER*%
X140000000Y-91220000D02*
X141301700Y-91220000D01*
X184500000Y-89580000D02*
X179418300Y-94661700D01*
X179418300Y-94661700D02*
X144743400Y-94661700D01*
X144743400Y-94661700D02*
X141301700Y-91220000D01*
%TO.N,LIGHT_SENS*%
X142302000Y-95285000D02*
X141301700Y-96285300D01*
X141301700Y-96285300D02*
X141301700Y-96300000D01*
X167000000Y-95285000D02*
X142302000Y-95285000D01*
X141301700Y-96300000D02*
X140000000Y-96300000D01*
%TO.N,LED_FAN*%
X162860000Y-93760000D02*
X154000000Y-93760000D01*
%TO.N,LED_HEAT*%
X154500000Y-91220000D02*
X162860000Y-91220000D01*
%TO.N,TFT_REST*%
X137017670Y-110402330D02*
X136600000Y-110402330D01*
X136582330Y-110420000D02*
X110500000Y-110420000D01*
X136600000Y-110402330D02*
X136582330Y-110420000D01*
%TO.N,T_CS_47*%
X114347500Y-96487500D02*
X135487500Y-96487500D01*
X137000000Y-102000000D02*
X137696500Y-102696500D01*
X137696500Y-102696500D02*
X155254800Y-102696500D01*
X161558300Y-109000000D02*
X162860000Y-109000000D01*
X155254800Y-102696500D02*
X161558300Y-109000000D01*
X91500000Y-92610000D02*
X110490000Y-92610000D01*
X135500000Y-96500000D02*
X137000000Y-98000000D01*
X110490000Y-92610000D02*
X110500000Y-92620000D01*
X137000000Y-98000000D02*
X137000000Y-102000000D01*
X110500000Y-92640000D02*
X114347500Y-96487500D01*
%TD*%
M02*
