%TF.GenerationSoftware,KiCad,Pcbnew,9.0.6-9.0.6~ubuntu22.04.1*%
%TF.CreationDate,2025-12-06T14:01:41-06:00*%
%TF.ProjectId,ESP32-DevKitC3-Simple-Thermostat-PCB,45535033-322d-4446-9576-4b697443332d,rev?*%
%TF.SameCoordinates,Original*%
%TF.FileFunction,Copper,L1,Top*%
%TF.FilePolarity,Positive*%
%FSLAX46Y46*%
G04 Gerber Fmt 4.6, Leading zero omitted, Abs format (unit mm)*
G04 Created by KiCad (PCBNEW 9.0.6-9.0.6~ubuntu22.04.1) date 2025-12-06 14:01:41*
%MOMM*%
%LPD*%
G01*
G04 APERTURE LIST*
G04 Aperture macros list*
%AMRoundRect*
0 Rectangle with rounded corners*
0 $1 Rounding radius*
0 $2 $3 $4 $5 $6 $7 $8 $9 X,Y pos of 4 corners*
0 Add a 4 corners polygon primitive as box body*
4,1,4,$2,$3,$4,$5,$6,$7,$8,$9,$2,$3,0*
0 Add four circle primitives for the rounded corners*
1,1,$1+$1,$2,$3*
1,1,$1+$1,$4,$5*
1,1,$1+$1,$6,$7*
1,1,$1+$1,$8,$9*
0 Add four rect primitives between the rounded corners*
20,1,$1+$1,$2,$3,$4,$5,0*
20,1,$1+$1,$4,$5,$6,$7,0*
20,1,$1+$1,$6,$7,$8,$9,0*
20,1,$1+$1,$8,$9,$2,$3,0*%
G04 Aperture macros list end*
%TA.AperFunction,NonConductor*%
%ADD10C,0.100000*%
%TD*%
%TA.AperFunction,ComponentPad*%
%ADD11C,1.600000*%
%TD*%
%TA.AperFunction,ComponentPad*%
%ADD12R,1.700000X1.700000*%
%TD*%
%TA.AperFunction,ComponentPad*%
%ADD13C,1.700000*%
%TD*%
%TA.AperFunction,ComponentPad*%
%ADD14C,6.000000*%
%TD*%
%TA.AperFunction,ComponentPad*%
%ADD15R,2.300000X2.300000*%
%TD*%
%TA.AperFunction,ComponentPad*%
%ADD16C,2.300000*%
%TD*%
%TA.AperFunction,ComponentPad*%
%ADD17R,1.500000X1.500000*%
%TD*%
%TA.AperFunction,ComponentPad*%
%ADD18C,1.500000*%
%TD*%
%TA.AperFunction,ComponentPad*%
%ADD19R,1.800000X1.800000*%
%TD*%
%TA.AperFunction,ComponentPad*%
%ADD20C,1.800000*%
%TD*%
%TA.AperFunction,SMDPad,CuDef*%
%ADD21RoundRect,0.150000X0.587500X0.150000X-0.587500X0.150000X-0.587500X-0.150000X0.587500X-0.150000X0*%
%TD*%
%TA.AperFunction,ComponentPad*%
%ADD22RoundRect,0.250001X-0.949999X0.949999X-0.949999X-0.949999X0.949999X-0.949999X0.949999X0.949999X0*%
%TD*%
%TA.AperFunction,ComponentPad*%
%ADD23C,2.400000*%
%TD*%
%TA.AperFunction,ComponentPad*%
%ADD24R,2.200000X2.200000*%
%TD*%
%TA.AperFunction,ComponentPad*%
%ADD25O,2.200000X2.200000*%
%TD*%
%TA.AperFunction,ComponentPad*%
%ADD26R,2.000000X2.000000*%
%TD*%
%TA.AperFunction,ComponentPad*%
%ADD27C,2.000000*%
%TD*%
%TA.AperFunction,ComponentPad*%
%ADD28RoundRect,0.250000X0.550000X0.550000X-0.550000X0.550000X-0.550000X-0.550000X0.550000X-0.550000X0*%
%TD*%
%TA.AperFunction,ComponentPad*%
%ADD29R,2.400000X2.400000*%
%TD*%
%TA.AperFunction,ComponentPad*%
%ADD30R,2.000000X1.200000*%
%TD*%
%TA.AperFunction,ComponentPad*%
%ADD31O,2.000000X1.200000*%
%TD*%
%TA.AperFunction,SMDPad,CuDef*%
%ADD32RoundRect,0.250000X-2.050000X-0.300000X2.050000X-0.300000X2.050000X0.300000X-2.050000X0.300000X0*%
%TD*%
%TA.AperFunction,SMDPad,CuDef*%
%ADD33RoundRect,0.250002X-4.449998X-5.149998X4.449998X-5.149998X4.449998X5.149998X-4.449998X5.149998X0*%
%TD*%
%TA.AperFunction,SMDPad,CuDef*%
%ADD34RoundRect,0.250000X-1.400000X-1.000000X1.400000X-1.000000X1.400000X1.000000X-1.400000X1.000000X0*%
%TD*%
%TA.AperFunction,SMDPad,CuDef*%
%ADD35R,2.900000X5.400000*%
%TD*%
%TA.AperFunction,ComponentPad*%
%ADD36RoundRect,0.250001X-0.949999X-0.949999X0.949999X-0.949999X0.949999X0.949999X-0.949999X0.949999X0*%
%TD*%
%TA.AperFunction,ViaPad*%
%ADD37C,0.600000*%
%TD*%
%TA.AperFunction,Conductor*%
%ADD38C,0.500000*%
%TD*%
%TA.AperFunction,Conductor*%
%ADD39C,0.200000*%
%TD*%
%TA.AperFunction,Conductor*%
%ADD40C,1.000000*%
%TD*%
G04 APERTURE END LIST*
D10*
X27081139Y-113918861D02*
G75*
G02*
X23918861Y-113918861I-1581139J0D01*
G01*
X23918861Y-113918861D02*
G75*
G02*
X27081139Y-113918861I1581139J0D01*
G01*
X152581139Y-31918861D02*
G75*
G02*
X149418861Y-31918861I-1581139J0D01*
G01*
X149418861Y-31918861D02*
G75*
G02*
X152581139Y-31918861I1581139J0D01*
G01*
X153081139Y-113918861D02*
G75*
G02*
X149918861Y-113918861I-1581139J0D01*
G01*
X149918861Y-113918861D02*
G75*
G02*
X153081139Y-113918861I1581139J0D01*
G01*
X26500000Y-31500000D02*
G75*
G02*
X23337722Y-31500000I-1581139J0D01*
G01*
X23337722Y-31500000D02*
G75*
G02*
X26500000Y-31500000I1581139J0D01*
G01*
D11*
%TO.P,R11,1*%
%TO.N,Net-(D9-Pad2)*%
X34500000Y-56080000D03*
%TO.P,R11,2*%
%TO.N,LED_FAN*%
X34500000Y-45920000D03*
%TD*%
D12*
%TO.P,J6,1,TX*%
%TO.N,LD_TX*%
X80620000Y-31500000D03*
D13*
%TO.P,J6,2,RX*%
%TO.N,LD_RX*%
X78080000Y-31500000D03*
%TO.P,J6,3,OUT*%
%TO.N,MOTION*%
X75540000Y-31500000D03*
%TO.P,J6,4,GND*%
%TO.N,GND*%
X73000000Y-31500000D03*
%TO.P,J6,5,VCC*%
%TO.N,+5V*%
X70460000Y-31500000D03*
%TD*%
D14*
%TO.P,H3,1*%
%TO.N,GND*%
X151000000Y-114000000D03*
%TD*%
D11*
%TO.P,R10,1*%
%TO.N,GND*%
X85920000Y-31500000D03*
%TO.P,R10,2*%
%TO.N,LIGHT_SENS*%
X96080000Y-31500000D03*
%TD*%
D15*
%TO.P,K1,1*%
%TO.N,Net-(D1-A)*%
X60375000Y-33700000D03*
D16*
%TO.P,K1,2*%
%TO.N,VAC-C*%
X50215000Y-33700000D03*
%TO.P,K1,3*%
%TO.N,G*%
X42595000Y-33700000D03*
%TO.P,K1,5*%
%TO.N,+5V*%
X60375000Y-41320000D03*
%TD*%
D17*
%TO.P,Q3,1,E*%
%TO.N,GND*%
X72270000Y-58000000D03*
D18*
%TO.P,Q3,2,B*%
%TO.N,Net-(Q3-B)*%
X74810000Y-58000000D03*
%TO.P,Q3,3,C*%
%TO.N,Net-(D3-A)*%
X77350000Y-58000000D03*
%TD*%
%TO.P,R12,1*%
%TO.N,3.3V*%
X126300000Y-34500000D03*
%TO.P,R12,2*%
%TO.N,LIGHT_SENS*%
X129700000Y-34500000D03*
%TD*%
D11*
%TO.P,R8,1*%
%TO.N,BUZZER*%
X140000000Y-56580000D03*
%TO.P,R8,2*%
%TO.N,Net-(Q7-G)*%
X140000000Y-46420000D03*
%TD*%
D19*
%TO.P,D10,1*%
%TO.N,GND*%
X29770000Y-46030000D03*
D20*
%TO.P,D10,2*%
%TO.N,Net-(D10-Pad2)*%
X27230000Y-46030000D03*
%TD*%
D21*
%TO.P,Q7,1,G*%
%TO.N,Net-(Q7-G)*%
X147500000Y-52450000D03*
%TO.P,Q7,2,S*%
%TO.N,GND*%
X147500000Y-50550000D03*
%TO.P,Q7,3,D*%
%TO.N,Net-(BZ1-+)*%
X145625000Y-51500000D03*
%TD*%
D15*
%TO.P,K6,1*%
%TO.N,Net-(D6-A)*%
X60375000Y-96200000D03*
D16*
%TO.P,K6,2*%
%TO.N,VAC-C*%
X50215000Y-96200000D03*
%TO.P,K6,3*%
%TO.N,PUMP*%
X42595000Y-96200000D03*
%TO.P,K6,5*%
%TO.N,+5V*%
X60375000Y-103820000D03*
%TD*%
D22*
%TO.P,J2,1*%
%TO.N,G*%
X35500000Y-60500000D03*
D23*
%TO.P,J2,2*%
%TO.N,W*%
X35500000Y-64000000D03*
%TO.P,J2,3*%
%TO.N,Y*%
X35500000Y-67500000D03*
%TO.P,J2,4*%
%TO.N,W2*%
X35500000Y-71000000D03*
%TO.P,J2,5*%
%TO.N,Y2*%
X35500000Y-74500000D03*
%TO.P,J2,6*%
%TO.N,PUMP*%
X35500000Y-78000000D03*
%TO.P,J2,7*%
%TO.N,unconnected-(J2-Pad7)*%
X35500000Y-81500000D03*
%TO.P,J2,8*%
%TO.N,VAC-C*%
X35500000Y-85000000D03*
%TO.P,J2,9*%
%TO.N,VAC-R*%
X35500000Y-88500000D03*
%TD*%
D24*
%TO.P,D4,1,K*%
%TO.N,+5V*%
X89500000Y-68000000D03*
D25*
%TO.P,D4,2,A*%
%TO.N,Net-(D4-A)*%
X81880000Y-68000000D03*
%TD*%
D12*
%TO.P,J1,1*%
%TO.N,FAN_G_4*%
X128500000Y-42520000D03*
D13*
%TO.P,J1,2*%
%TO.N,+5V*%
X128500000Y-45060000D03*
%TO.P,J1,3*%
%TO.N,GND*%
X128500000Y-47600000D03*
%TO.P,J1,4*%
%TO.N,HEAT_W_5*%
X128500000Y-50140000D03*
%TO.P,J1,5*%
%TO.N,+5V*%
X128500000Y-52680000D03*
%TO.P,J1,6*%
%TO.N,unconnected-(J1-Pad6)*%
X128500000Y-55220000D03*
%TO.P,J1,7*%
%TO.N,COOL_Y_6*%
X128500000Y-57760000D03*
%TO.P,J1,8*%
%TO.N,+5V*%
X128500000Y-60300000D03*
%TO.P,J1,9*%
%TO.N,GND*%
X128500000Y-62840000D03*
%TO.P,J1,10*%
%TO.N,HEAT{slash}REV_W2_7*%
X128500000Y-65380000D03*
%TO.P,J1,11*%
%TO.N,+5V*%
X128500000Y-67920000D03*
%TO.P,J1,12*%
%TO.N,GND*%
X128500000Y-70460000D03*
%TO.P,J1,13*%
%TO.N,COOL-STAGE2_Y2_39*%
X128500000Y-73000000D03*
%TO.P,J1,14*%
%TO.N,+5V*%
X128500000Y-75540000D03*
%TO.P,J1,15*%
%TO.N,GND*%
X128500000Y-78080000D03*
%TO.P,J1,16*%
%TO.N,PUMP_40*%
X128500000Y-80620000D03*
%TO.P,J1,17*%
%TO.N,+5V*%
X128500000Y-83160000D03*
%TO.P,J1,18*%
%TO.N,GND*%
X128500000Y-85700000D03*
%TD*%
D14*
%TO.P,H2,1*%
%TO.N,GND*%
X25000000Y-114000000D03*
%TD*%
D19*
%TO.P,D11,1*%
%TO.N,GND*%
X29770000Y-40560000D03*
D20*
%TO.P,D11,2*%
%TO.N,Net-(D11-Pad2)*%
X27230000Y-40560000D03*
%TD*%
D11*
%TO.P,C6,1*%
%TO.N,GND*%
X146500000Y-59500000D03*
%TO.P,C6,2*%
%TO.N,Net-(D7-+)*%
X144000000Y-59500000D03*
%TD*%
%TO.P,R13,1*%
%TO.N,Net-(D10-Pad2)*%
X38000000Y-50080000D03*
%TO.P,R13,2*%
%TO.N,LED_HEAT*%
X38000000Y-39920000D03*
%TD*%
%TO.P,R7,1*%
%TO.N,DS18B20_41*%
X124920000Y-91500000D03*
%TO.P,R7,2*%
%TO.N,3.3V*%
X135080000Y-91500000D03*
%TD*%
D17*
%TO.P,Q4,1,E*%
%TO.N,GND*%
X72460000Y-68000000D03*
D18*
%TO.P,Q4,2,B*%
%TO.N,Net-(Q4-B)*%
X75000000Y-68000000D03*
%TO.P,Q4,3,C*%
%TO.N,Net-(D4-A)*%
X77540000Y-68000000D03*
%TD*%
D24*
%TO.P,D3,1,K*%
%TO.N,+5V*%
X89000000Y-58000000D03*
D25*
%TO.P,D3,2,A*%
%TO.N,Net-(D3-A)*%
X81380000Y-58000000D03*
%TD*%
D24*
%TO.P,D2,1,K*%
%TO.N,+5V*%
X89000000Y-48000000D03*
D25*
%TO.P,D2,2,A*%
%TO.N,Net-(D2-A)*%
X81380000Y-48000000D03*
%TD*%
D17*
%TO.P,Q5,1,E*%
%TO.N,GND*%
X72310000Y-86500000D03*
D18*
%TO.P,Q5,2,B*%
%TO.N,Net-(Q5-B)*%
X74850000Y-86500000D03*
%TO.P,Q5,3,C*%
%TO.N,Net-(D5-A)*%
X77390000Y-86500000D03*
%TD*%
D15*
%TO.P,K5,1*%
%TO.N,Net-(D5-A)*%
X60375000Y-83700000D03*
D16*
%TO.P,K5,2*%
%TO.N,VAC-C*%
X50215000Y-83700000D03*
%TO.P,K5,3*%
%TO.N,Y2*%
X42595000Y-83700000D03*
%TO.P,K5,5*%
%TO.N,+5V*%
X60375000Y-91320000D03*
%TD*%
D11*
%TO.P,R1,1*%
%TO.N,Net-(Q1-B)*%
X74730000Y-42500000D03*
%TO.P,R1,2*%
%TO.N,FAN_G_4*%
X84890000Y-42500000D03*
%TD*%
D24*
%TO.P,D5,1,K*%
%TO.N,+5V*%
X89500000Y-86500000D03*
D25*
%TO.P,D5,2,A*%
%TO.N,Net-(D5-A)*%
X81880000Y-86500000D03*
%TD*%
D26*
%TO.P,BZ1,1,-*%
%TO.N,+5V*%
X138629200Y-37000000D03*
D27*
%TO.P,BZ1,2,+*%
%TO.N,Net-(BZ1-+)*%
X143629200Y-37000000D03*
%TD*%
D15*
%TO.P,K2,1*%
%TO.N,Net-(D2-A)*%
X60280000Y-46000000D03*
D16*
%TO.P,K2,2*%
%TO.N,VAC-C*%
X50120000Y-46000000D03*
%TO.P,K2,3*%
%TO.N,W*%
X42500000Y-46000000D03*
%TO.P,K2,5*%
%TO.N,+5V*%
X60280000Y-53620000D03*
%TD*%
D11*
%TO.P,R6,1*%
%TO.N,Net-(Q6-B)*%
X74840000Y-100000000D03*
%TO.P,R6,2*%
%TO.N,PUMP_40*%
X85000000Y-100000000D03*
%TD*%
D14*
%TO.P,H1,1*%
%TO.N,GND*%
X25000000Y-31500000D03*
%TD*%
D11*
%TO.P,R5,1*%
%TO.N,Net-(Q5-B)*%
X74650000Y-90500000D03*
%TO.P,R5,2*%
%TO.N,COOL-STAGE2_Y2_39*%
X84810000Y-90500000D03*
%TD*%
%TO.P,R3,1*%
%TO.N,Net-(Q3-B)*%
X74730000Y-62000000D03*
%TO.P,R3,2*%
%TO.N,COOL_Y_6*%
X84890000Y-62000000D03*
%TD*%
D28*
%TO.P,C8,1*%
%TO.N,+5V*%
X88500000Y-106500000D03*
D11*
%TO.P,C8,2*%
%TO.N,GND*%
X85000000Y-106500000D03*
%TD*%
D29*
%TO.P,D7,1,+*%
%TO.N,Net-(D7-+)*%
X142000000Y-110200000D03*
D23*
%TO.P,D7,2,1*%
%TO.N,VAC-R*%
X142000000Y-106390000D03*
%TO.P,D7,3,2*%
%TO.N,VAC-C*%
X142000000Y-102580000D03*
%TO.P,D7,4,-*%
%TO.N,GND*%
X142000000Y-98770000D03*
%TD*%
D30*
%TO.P,U1,1,3V3*%
%TO.N,3.3V*%
X95500000Y-35360000D03*
D31*
%TO.P,U1,2,3V3*%
X95500000Y-37900000D03*
%TO.P,U1,3,CHIP_PU*%
%TO.N,unconnected-(U1-CHIP_PU-Pad3)*%
X95500000Y-40440000D03*
%TO.P,U1,4,GPIO4/ADC1_CH3*%
%TO.N,FAN_G_4*%
X95500000Y-42980000D03*
%TO.P,U1,5,GPIO5/ADC1_CH4*%
%TO.N,HEAT_W_5*%
X95500000Y-45520000D03*
%TO.P,U1,6,GPIO6/ADC1_CH5*%
%TO.N,COOL_Y_6*%
X95500000Y-48060000D03*
%TO.P,U1,7,GPIO7/ADC1_CH6*%
%TO.N,HEAT{slash}REV_W2_7*%
X95500000Y-50600000D03*
%TO.P,U1,8,GPIO15/ADC2_CH4/32K_P*%
%TO.N,LD_RX*%
X95500000Y-53140000D03*
%TO.P,U1,9,GPIO16/ADC2_CH5/32K_N*%
%TO.N,LD_TX*%
X95500000Y-55680000D03*
%TO.P,U1,10,GPIO17/ADC2_CH6*%
%TO.N,BUZZER*%
X95500000Y-58220000D03*
%TO.P,U1,11,GPIO18/ADC2_CH7*%
%TO.N,MOTION*%
X95500000Y-60760000D03*
%TO.P,U1,12,GPIO8/ADC1_CH7*%
%TO.N,LIGHT_SENS*%
X95500000Y-63300000D03*
%TO.P,U1,13,GPIO3/ADC1_CH2*%
%TO.N,unconnected-(U1-GPIO3{slash}ADC1_CH2-Pad13)*%
X95500000Y-65840000D03*
%TO.P,U1,14,GPIO46*%
%TO.N,unconnected-(U1-GPIO46-Pad14)*%
X95500000Y-68380000D03*
%TO.P,U1,15,GPIO9/ADC1_CH8*%
%TO.N,CS_9*%
X95500000Y-70920000D03*
%TO.P,U1,16,GPIO10/ADC1_CH9*%
%TO.N,TFT_REST*%
X95500000Y-73460000D03*
%TO.P,U1,17,GPIO11/ADC2_CH0*%
%TO.N,DC_11*%
X95500000Y-76000000D03*
%TO.P,U1,18,GPIO12/ADC2_CH1*%
%TO.N,MOSI_12*%
X95500000Y-78540000D03*
%TO.P,U1,19,GPIO13/ADC2_CH2*%
%TO.N,SCK_13*%
X95500000Y-81080000D03*
%TO.P,U1,20,GPIO14/ADC2_CH3*%
%TO.N,TFT_LED*%
X95496320Y-83617280D03*
%TO.P,U1,21,5V*%
%TO.N,+5V*%
X95496320Y-86157280D03*
%TO.P,U1,22,GND*%
%TO.N,GND*%
X95496320Y-88697280D03*
%TO.P,U1,23,GND*%
X118360000Y-88700000D03*
%TO.P,U1,24,GND*%
X118360000Y-86160000D03*
%TO.P,U1,25,GPIO19/USB_D-*%
%TO.N,unconnected-(U1-GPIO19{slash}USB_D--Pad25)*%
X118360000Y-83620000D03*
%TO.P,U1,26,GPIO20/USB_D+*%
%TO.N,unconnected-(U1-GPIO20{slash}USB_D+-Pad26)*%
X118360000Y-81080000D03*
%TO.P,U1,27,GPIO21*%
%TO.N,MISO_21*%
X118360000Y-78540000D03*
%TO.P,U1,28,GPIO47*%
%TO.N,T_CS_47*%
X118360000Y-76000000D03*
%TO.P,U1,29,GPIO48*%
%TO.N,TOUCH_IRQ*%
X118360000Y-73460000D03*
%TO.P,U1,30,GPIO45*%
%TO.N,unconnected-(U1-GPIO45-Pad30)*%
X118360000Y-70920000D03*
%TO.P,U1,31,GPIO0*%
%TO.N,unconnected-(U1-GPIO0-Pad31)*%
X118360000Y-68380000D03*
%TO.P,U1,32,GPIO35*%
%TO.N,SCL*%
X118360000Y-65840000D03*
%TO.P,U1,33,GPIO36*%
%TO.N,SDA*%
X118360000Y-63300000D03*
%TO.P,U1,34,GPIO37*%
%TO.N,LED_FAN*%
X118360000Y-60760000D03*
%TO.P,U1,35,GPIO38*%
%TO.N,LED_HEAT*%
X118360000Y-58220000D03*
%TO.P,U1,36,GPIO39/MTCK*%
%TO.N,COOL-STAGE2_Y2_39*%
X118360000Y-55680000D03*
%TO.P,U1,37,GPIO40/MTDO*%
%TO.N,PUMP_40*%
X118360000Y-53140000D03*
%TO.P,U1,38,GPIO41/MTDI*%
%TO.N,DS18B20_41*%
X118360000Y-50600000D03*
%TO.P,U1,39,GPIO42/MTMS*%
%TO.N,unconnected-(U1-GPIO42{slash}MTMS-Pad39)*%
X118360000Y-48060000D03*
%TO.P,U1,40,GPIO2/ADC1_CH1*%
%TO.N,LED_COOL*%
X118360000Y-45520000D03*
%TO.P,U1,41,GPIO1/ADC1_CH0*%
%TO.N,unconnected-(U1-GPIO1{slash}ADC1_CH0-Pad41)*%
X118360000Y-42980000D03*
%TO.P,U1,42,GPIO44/U0RXD*%
%TO.N,unconnected-(U1-GPIO44{slash}U0RXD-Pad42)*%
X118360000Y-40440000D03*
%TO.P,U1,43,GPIO43/U0TXD*%
%TO.N,unconnected-(U1-GPIO43{slash}U0TXD-Pad43)*%
X118360000Y-37900000D03*
%TO.P,U1,44,GND*%
%TO.N,GND*%
X118360000Y-35360000D03*
%TD*%
D32*
%TO.P,U2,1,VIN*%
%TO.N,Net-(D7-+)*%
X122775000Y-102700000D03*
%TO.P,U2,2,OUT*%
%TO.N,Net-(D8-K)*%
X122775000Y-104400000D03*
%TO.P,U2,3,GND*%
%TO.N,GND*%
X122775000Y-106100000D03*
D33*
X131925000Y-106100000D03*
D32*
%TO.P,U2,4,FB*%
%TO.N,+5V*%
X122775000Y-107800000D03*
%TO.P,U2,5,~{ON}/OFF*%
%TO.N,GND*%
X122775000Y-109500000D03*
%TD*%
D17*
%TO.P,Q1,1,E*%
%TO.N,GND*%
X72270000Y-38000000D03*
D18*
%TO.P,Q1,2,B*%
%TO.N,Net-(Q1-B)*%
X74810000Y-38000000D03*
%TO.P,Q1,3,C*%
%TO.N,Net-(D1-A)*%
X77350000Y-38000000D03*
%TD*%
D24*
%TO.P,D1,1,K*%
%TO.N,+5V*%
X89500000Y-38000000D03*
D25*
%TO.P,D1,2,A*%
%TO.N,Net-(D1-A)*%
X81880000Y-38000000D03*
%TD*%
D17*
%TO.P,Q6,1,E*%
%TO.N,GND*%
X72380000Y-96000000D03*
D18*
%TO.P,Q6,2,B*%
%TO.N,Net-(Q6-B)*%
X74920000Y-96000000D03*
%TO.P,Q6,3,C*%
%TO.N,Net-(D6-A)*%
X77460000Y-96000000D03*
%TD*%
D12*
%TO.P,J3,1*%
%TO.N,DS18B20_41*%
X126920000Y-96000000D03*
D13*
%TO.P,J3,2*%
%TO.N,3.3V*%
X129460000Y-96000000D03*
%TO.P,J3,3*%
%TO.N,GND*%
X132000000Y-96000000D03*
%TD*%
D11*
%TO.P,R9,1*%
%TO.N,Net-(BZ1-+)*%
X136500000Y-56580000D03*
%TO.P,R9,2*%
%TO.N,+5V*%
X136500000Y-46420000D03*
%TD*%
D24*
%TO.P,D6,1,K*%
%TO.N,+5V*%
X89500000Y-96000000D03*
D25*
%TO.P,D6,2,A*%
%TO.N,Net-(D6-A)*%
X81880000Y-96000000D03*
%TD*%
D11*
%TO.P,R14,1*%
%TO.N,Net-(D11-Pad2)*%
X34500000Y-42580000D03*
%TO.P,R14,2*%
%TO.N,LED_COOL*%
X34500000Y-32420000D03*
%TD*%
%TO.P,R2,1*%
%TO.N,Net-(Q2-B)*%
X74730000Y-52000000D03*
%TO.P,R2,2*%
%TO.N,HEAT_W_5*%
X84890000Y-52000000D03*
%TD*%
D12*
%TO.P,J5,1*%
%TO.N,+5V*%
X33000000Y-94420000D03*
D13*
%TO.P,J5,2*%
%TO.N,GND*%
X33000000Y-96960000D03*
%TO.P,J5,3*%
%TO.N,SCL*%
X33000000Y-99500000D03*
%TO.P,J5,4*%
%TO.N,SDA*%
X33000000Y-102040000D03*
%TD*%
D15*
%TO.P,K4,1*%
%TO.N,Net-(D4-A)*%
X60375000Y-71200000D03*
D16*
%TO.P,K4,2*%
%TO.N,VAC-C*%
X50215000Y-71200000D03*
%TO.P,K4,3*%
%TO.N,W2*%
X42595000Y-71200000D03*
%TO.P,K4,5*%
%TO.N,+5V*%
X60375000Y-78820000D03*
%TD*%
D15*
%TO.P,K3,1*%
%TO.N,Net-(D3-A)*%
X60280000Y-58500000D03*
D16*
%TO.P,K3,2*%
%TO.N,VAC-C*%
X50120000Y-58500000D03*
%TO.P,K3,3*%
%TO.N,Y*%
X42500000Y-58500000D03*
%TO.P,K3,5*%
%TO.N,+5V*%
X60280000Y-66120000D03*
%TD*%
D11*
%TO.P,C9,1*%
%TO.N,+5V*%
X79500000Y-107500000D03*
%TO.P,C9,2*%
%TO.N,GND*%
X79500000Y-105000000D03*
%TD*%
D17*
%TO.P,Q2,1,E*%
%TO.N,GND*%
X72270000Y-48000000D03*
D18*
%TO.P,Q2,2,B*%
%TO.N,Net-(Q2-B)*%
X74810000Y-48000000D03*
%TO.P,Q2,3,C*%
%TO.N,Net-(D2-A)*%
X77350000Y-48000000D03*
%TD*%
D34*
%TO.P,D8,1,K*%
%TO.N,Net-(D8-K)*%
X112500000Y-102600000D03*
%TO.P,D8,2,A*%
%TO.N,GND*%
X112500000Y-109400000D03*
%TD*%
D14*
%TO.P,H4,1*%
%TO.N,GND*%
X151000000Y-31500000D03*
%TD*%
D11*
%TO.P,R4,1*%
%TO.N,Net-(Q4-B)*%
X74920000Y-72000000D03*
%TO.P,R4,2*%
%TO.N,HEAT{slash}REV_W2_7*%
X85080000Y-72000000D03*
%TD*%
D35*
%TO.P,L1,1,1*%
%TO.N,+5V*%
X94800000Y-105500000D03*
%TO.P,L1,2,2*%
%TO.N,Net-(D8-K)*%
X104500000Y-105500000D03*
%TD*%
D36*
%TO.P,C5,1*%
%TO.N,Net-(D7-+)*%
X140987200Y-74000000D03*
D23*
%TO.P,C5,2*%
%TO.N,GND*%
X148487200Y-74000000D03*
%TD*%
D19*
%TO.P,D9,1*%
%TO.N,GND*%
X29770000Y-51500000D03*
D20*
%TO.P,D9,2*%
%TO.N,Net-(D9-Pad2)*%
X27230000Y-51500000D03*
%TD*%
D12*
%TO.P,J4,1*%
%TO.N,+5V*%
X66000000Y-85040000D03*
D13*
%TO.P,J4,2*%
%TO.N,GND*%
X66000000Y-82500000D03*
%TO.P,J4,3*%
%TO.N,CS_9*%
X66000000Y-79960000D03*
%TO.P,J4,4*%
%TO.N,TFT_REST*%
X66000000Y-77420000D03*
%TO.P,J4,5*%
%TO.N,DC_11*%
X66000000Y-74880000D03*
%TO.P,J4,6*%
%TO.N,MOSI_12*%
X66000000Y-72340000D03*
%TO.P,J4,7*%
%TO.N,SCK_13*%
X66000000Y-69800000D03*
%TO.P,J4,8*%
%TO.N,TFT_LED*%
X66000000Y-67260000D03*
%TO.P,J4,9*%
%TO.N,MISO_21*%
X66000000Y-64720000D03*
%TO.P,J4,10*%
%TO.N,SCK_13*%
X66000000Y-62180000D03*
%TO.P,J4,11*%
%TO.N,T_CS_47*%
X66000000Y-59640000D03*
%TO.P,J4,12*%
%TO.N,MOSI_23*%
X66000000Y-57100000D03*
%TO.P,J4,13*%
%TO.N,MISO_21*%
X66000000Y-54560000D03*
%TO.P,J4,14*%
%TO.N,TOUCH_IRQ*%
X66000000Y-52020000D03*
%TD*%
D37*
%TO.N,GND*%
X147500000Y-49000000D03*
%TO.N,+5V*%
X118500000Y-108000000D03*
%TO.N,COOL_Y_6*%
X90000000Y-52000000D03*
%TO.N,COOL-STAGE2_Y2_39*%
X125000000Y-56000000D03*
%TO.N,PUMP_40*%
X121500000Y-82500000D03*
%TO.N,MOSI_12*%
X74000000Y-78540000D03*
%TO.N,TOUCH_IRQ*%
X112430000Y-57070000D03*
%TO.N,DC_11*%
X69500000Y-76000000D03*
%TO.N,MISO_21*%
X114604500Y-65482500D03*
%TO.N,SCK_13*%
X78500000Y-81022500D03*
%TO.N,TFT_LED*%
X92000000Y-65737800D03*
%TO.N,SCL*%
X55271400Y-68646100D03*
X48552500Y-97010000D03*
%TO.N,SDA*%
X43600000Y-101155000D03*
X52480000Y-65275000D03*
%TO.N,T_CS_47*%
X73650000Y-74650000D03*
%TD*%
D38*
%TO.N,GND*%
X118100000Y-106100000D02*
X122775000Y-106100000D01*
X117000000Y-107200000D02*
X118100000Y-106100000D01*
X117000000Y-109400000D02*
X112500000Y-109400000D01*
X142000000Y-98770000D02*
X139255000Y-98770000D01*
D39*
X117000000Y-109400000D02*
X117100000Y-109500000D01*
X147500000Y-50550000D02*
X147500000Y-49000000D01*
D38*
X117100000Y-109500000D02*
X122775000Y-109500000D01*
D40*
X122775000Y-106100000D02*
X131925000Y-106100000D01*
D38*
X139255000Y-98770000D02*
X131925000Y-106100000D01*
X117000000Y-109400000D02*
X117000000Y-107200000D01*
%TO.N,+5V*%
X88500000Y-106500000D02*
X93800000Y-106500000D01*
D39*
X93800000Y-106500000D02*
X94800000Y-105500000D01*
X118700000Y-107800000D02*
X118500000Y-108000000D01*
D38*
X122775000Y-107800000D02*
X118700000Y-107800000D01*
D39*
%TO.N,3.3V*%
X133960000Y-91500000D02*
X135080000Y-91500000D01*
X129460000Y-96000000D02*
X133960000Y-91500000D01*
X97703400Y-34458300D02*
X96801700Y-35360000D01*
X126300000Y-34500000D02*
X126258300Y-34458300D01*
X95500000Y-35360000D02*
X96801700Y-35360000D01*
X126258300Y-34458300D02*
X97703400Y-34458300D01*
D38*
%TO.N,Net-(D7-+)*%
X119200000Y-102700000D02*
X122775000Y-102700000D01*
X119000000Y-99500000D02*
X119000000Y-102500000D01*
X145800000Y-110200000D02*
X146000000Y-110000000D01*
X137000000Y-96500000D02*
X137000000Y-98500000D01*
X140987000Y-82300000D02*
X140987000Y-95987200D01*
X146000000Y-110000000D02*
X146000000Y-96500000D01*
X119000000Y-102500000D02*
X119200000Y-102700000D01*
X119500000Y-99000000D02*
X119000000Y-99500000D01*
D39*
X140987000Y-95987200D02*
X141000000Y-96000000D01*
D38*
X146000000Y-96500000D02*
X145500000Y-96000000D01*
X141000000Y-96000000D02*
X137500000Y-96000000D01*
X144000000Y-59500000D02*
X140987000Y-62512800D01*
X137000000Y-98500000D02*
X136500000Y-99000000D01*
D39*
X140987200Y-82299800D02*
X140987200Y-74000000D01*
D38*
X136500000Y-99000000D02*
X119500000Y-99000000D01*
X145500000Y-96000000D02*
X141000000Y-96000000D01*
X137500000Y-96000000D02*
X137000000Y-96500000D01*
X142000000Y-110200000D02*
X145800000Y-110200000D01*
D39*
X140987000Y-82300000D02*
X140987200Y-82299800D01*
D38*
X140987000Y-62512800D02*
X140987000Y-82300000D01*
D39*
%TO.N,Net-(D1-A)*%
X77350000Y-36000000D02*
X77350000Y-38000000D01*
X60375000Y-33700000D02*
X75200000Y-33700000D01*
X75200000Y-33700000D02*
X77350000Y-35850000D01*
X77350000Y-35850000D02*
X77350000Y-36000000D01*
X81880000Y-38000000D02*
X77350000Y-38000000D01*
%TO.N,Net-(D2-A)*%
X77350000Y-48000000D02*
X76298300Y-49051700D01*
X76298300Y-49051700D02*
X64783400Y-49051700D01*
X60280000Y-46000000D02*
X61731700Y-46000000D01*
X64783400Y-49051700D02*
X61731700Y-46000000D01*
X77850000Y-48000000D02*
X81380000Y-48000000D01*
%TO.N,Net-(D3-A)*%
X76274200Y-59075800D02*
X68721700Y-59075800D01*
X68080900Y-58435000D02*
X61796700Y-58435000D01*
X81380000Y-58000000D02*
X77350000Y-58000000D01*
X68721700Y-59075800D02*
X68080900Y-58435000D01*
X61796700Y-58435000D02*
X61731700Y-58500000D01*
X77350000Y-58000000D02*
X76274200Y-59075800D01*
X60280000Y-58500000D02*
X61731700Y-58500000D01*
%TO.N,Net-(D4-A)*%
X61956700Y-71070000D02*
X67150200Y-71070000D01*
X75947300Y-69592700D02*
X77540000Y-68000000D01*
X68627500Y-69592700D02*
X75947300Y-69592700D01*
X60375000Y-71200000D02*
X61826700Y-71200000D01*
X81880000Y-68000000D02*
X77540000Y-68000000D01*
X61826700Y-71200000D02*
X61956700Y-71070000D01*
X67150200Y-71070000D02*
X68627500Y-69592700D01*
%TO.N,Net-(D5-A)*%
X81880000Y-86500000D02*
X77390000Y-86500000D01*
X77390000Y-88110000D02*
X77390000Y-86500000D01*
X60700000Y-83700000D02*
X60375000Y-83700000D01*
X65500000Y-88500000D02*
X60700000Y-83700000D01*
X77000000Y-88500000D02*
X65500000Y-88500000D01*
X77000000Y-88500000D02*
X77390000Y-88110000D01*
%TO.N,Net-(D6-A)*%
X81880000Y-96000000D02*
X77460000Y-96000000D01*
X77460000Y-97000000D02*
X77460000Y-96000000D01*
X76960000Y-97500000D02*
X77460000Y-97000000D01*
X60375000Y-96200000D02*
X61826700Y-96200000D01*
X63126700Y-97500000D02*
X76960000Y-97500000D01*
X61826700Y-96200000D02*
X63126700Y-97500000D01*
D38*
%TO.N,VAC-C*%
X52000000Y-113500000D02*
X139000000Y-113500000D01*
X50215000Y-96200000D02*
X50215000Y-83700000D01*
X139000000Y-113500000D02*
X139000000Y-105580000D01*
X50215000Y-70215000D02*
X50120000Y-70120000D01*
X35500000Y-85000000D02*
X36700000Y-86200000D01*
X50215000Y-71200000D02*
X50215000Y-70215000D01*
X139000000Y-105580000D02*
X142000000Y-102580000D01*
X50215000Y-83700000D02*
X50215000Y-71200000D01*
X36700000Y-86200000D02*
X47715000Y-86200000D01*
X50215000Y-96200000D02*
X50215000Y-111715000D01*
X50215000Y-111715000D02*
X52000000Y-113500000D01*
X47715000Y-86200000D02*
X50215000Y-83700000D01*
X50120000Y-70120000D02*
X50120000Y-58500000D01*
%TO.N,Net-(D8-K)*%
X122775000Y-104400000D02*
X117900000Y-104400000D01*
X108500000Y-105500000D02*
X104500000Y-105500000D01*
X116100000Y-102600000D02*
X112500000Y-102600000D01*
D39*
X112500000Y-102600000D02*
X111400000Y-102600000D01*
D38*
X111400000Y-102600000D02*
X108500000Y-105500000D01*
X117900000Y-104400000D02*
X116100000Y-102600000D01*
%TO.N,W2*%
X42395000Y-71000000D02*
X42595000Y-71200000D01*
D39*
%TO.N,Net-(BZ1-+)*%
X145625000Y-51500000D02*
X141580000Y-51500000D01*
X141580000Y-51500000D02*
X136500000Y-56580000D01*
%TO.N,Net-(D9-Pad2)*%
X27230000Y-51500000D02*
X31810000Y-56080000D01*
X31810000Y-56080000D02*
X34500000Y-56080000D01*
%TO.N,Net-(D10-Pad2)*%
X31280000Y-50080000D02*
X27230000Y-46030000D01*
X38000000Y-50080000D02*
X31280000Y-50080000D01*
%TO.N,Net-(D11-Pad2)*%
X29250000Y-42580000D02*
X27230000Y-40560000D01*
X34500000Y-42580000D02*
X29250000Y-42580000D01*
%TO.N,COOL_Y_6*%
X97500000Y-52000000D02*
X97500000Y-48500000D01*
X90000000Y-52000000D02*
X115050000Y-52000000D01*
X97060000Y-48060000D02*
X95500000Y-48060000D01*
X125291500Y-54551500D02*
X128500000Y-57760000D01*
X97500000Y-48500000D02*
X97060000Y-48060000D01*
X117601500Y-54551500D02*
X125291500Y-54551500D01*
X115050000Y-52000000D02*
X117601500Y-54551500D01*
%TO.N,FAN_G_4*%
X95500000Y-42980000D02*
X96801700Y-42980000D01*
X97717200Y-42064500D02*
X96801700Y-42980000D01*
X126892800Y-42064500D02*
X97717200Y-42064500D01*
X95500000Y-42980000D02*
X85370000Y-42980000D01*
X85370000Y-42980000D02*
X84890000Y-42500000D01*
X128500000Y-42520000D02*
X127348300Y-42520000D01*
X127348300Y-42520000D02*
X126892800Y-42064500D01*
%TO.N,HEAT{slash}REV_W2_7*%
X128500000Y-65380000D02*
X121880000Y-72000000D01*
X121880000Y-72000000D02*
X85080000Y-72000000D01*
%TO.N,COOL-STAGE2_Y2_39*%
X84810000Y-90500000D02*
X120000000Y-90500000D01*
X119981700Y-56000000D02*
X119661700Y-55680000D01*
X125000000Y-56000000D02*
X119981700Y-56000000D01*
X120500000Y-81000000D02*
X128500000Y-73000000D01*
X119661700Y-55680000D02*
X118360000Y-55680000D01*
X120000000Y-90500000D02*
X120500000Y-90000000D01*
X120500000Y-90000000D02*
X120500000Y-81000000D01*
%TO.N,HEAT_W_5*%
X128500000Y-50140000D02*
X127658100Y-49298100D01*
X88500000Y-52000000D02*
X91000000Y-49500000D01*
X91000000Y-48718300D02*
X94198300Y-45520000D01*
X91000000Y-49500000D02*
X91000000Y-48718300D01*
X127658100Y-49298100D02*
X100579800Y-49298100D01*
X84890000Y-52000000D02*
X88500000Y-52000000D01*
X95500000Y-45520000D02*
X96801700Y-45520000D01*
X94198300Y-45520000D02*
X95500000Y-45520000D01*
X100579800Y-49298100D02*
X96801700Y-45520000D01*
%TO.N,PUMP_40*%
X126620000Y-82500000D02*
X128500000Y-80620000D01*
X121500000Y-82500000D02*
X126620000Y-82500000D01*
%TO.N,DS18B20_41*%
X126920000Y-93500000D02*
X124920000Y-91500000D01*
X126920000Y-96000000D02*
X126920000Y-93500000D01*
%TO.N,MOSI_12*%
X74000000Y-78540000D02*
X95500000Y-78540000D01*
%TO.N,TOUCH_IRQ*%
X112430000Y-57070000D02*
X112360000Y-57000000D01*
X93000000Y-57000000D02*
X91500000Y-55500000D01*
X112360000Y-57000000D02*
X93000000Y-57000000D01*
X69480000Y-55500000D02*
X66000000Y-52020000D01*
X91500000Y-55500000D02*
X69480000Y-55500000D01*
%TO.N,DC_11*%
X69500000Y-76000000D02*
X95500000Y-76000000D01*
%TO.N,MISO_21*%
X113842000Y-64720000D02*
X114604500Y-65482500D01*
X66000000Y-64720000D02*
X113842000Y-64720000D01*
%TO.N,CS_9*%
X68140000Y-73610000D02*
X68000000Y-73750000D01*
X93778300Y-70500000D02*
X71250000Y-70500000D01*
X71250000Y-70500000D02*
X68140000Y-73610000D01*
X68000000Y-73750000D02*
X68000000Y-77960000D01*
X95500000Y-70920000D02*
X94198300Y-70920000D01*
X68000000Y-77960000D02*
X66000000Y-79960000D01*
X94198300Y-70920000D02*
X93778300Y-70500000D01*
%TO.N,SCK_13*%
X78500000Y-81022500D02*
X94140800Y-81022500D01*
X94198300Y-81080000D02*
X95500000Y-81080000D01*
X94140800Y-81022500D02*
X94198300Y-81080000D01*
%TO.N,TFT_LED*%
X92000000Y-65737800D02*
X67522200Y-65737800D01*
X67522200Y-65737800D02*
X66000000Y-67260000D01*
%TO.N,SCL*%
X117058300Y-65840000D02*
X118360000Y-65840000D01*
X71861200Y-66138800D02*
X90718800Y-66138800D01*
X90718800Y-66138800D02*
X91580000Y-67000000D01*
X48552500Y-97010000D02*
X46062500Y-99500000D01*
X69353900Y-68646100D02*
X71861200Y-66138800D01*
X91580000Y-67000000D02*
X115898300Y-67000000D01*
X55271400Y-68646100D02*
X69353900Y-68646100D01*
X115898300Y-67000000D02*
X117058300Y-65840000D01*
X46062500Y-99500000D02*
X33000000Y-99500000D01*
%TO.N,SDA*%
X118360000Y-63300000D02*
X117058300Y-63300000D01*
X116148900Y-64209400D02*
X81058900Y-64209400D01*
X33000000Y-102040000D02*
X42715000Y-102040000D01*
X42715000Y-102040000D02*
X43600000Y-101155000D01*
X81058900Y-64209400D02*
X80394400Y-63544900D01*
X117058300Y-63300000D02*
X116148900Y-64209400D01*
X80394400Y-63544900D02*
X54210100Y-63544900D01*
X54210100Y-63544900D02*
X52480000Y-65275000D01*
%TO.N,Net-(Q7-G)*%
X143420000Y-46420000D02*
X140000000Y-46420000D01*
X149000000Y-48000000D02*
X145000000Y-48000000D01*
X149050000Y-52450000D02*
X149500000Y-52000000D01*
X147500000Y-52450000D02*
X149050000Y-52450000D01*
X145000000Y-48000000D02*
X143420000Y-46420000D01*
X149500000Y-52000000D02*
X149500000Y-48500000D01*
X149500000Y-48500000D02*
X149000000Y-48000000D01*
%TO.N,BUZZER*%
X95500000Y-58220000D02*
X96801700Y-58220000D01*
X127349800Y-59120200D02*
X127268700Y-59201300D01*
X137459800Y-59120200D02*
X127349800Y-59120200D01*
X97783000Y-59201300D02*
X96801700Y-58220000D01*
X140000000Y-56580000D02*
X137459800Y-59120200D01*
X127268700Y-59201300D02*
X97783000Y-59201300D01*
%TO.N,LIGHT_SENS*%
X96080000Y-31500000D02*
X129000000Y-31500000D01*
X129000000Y-31500000D02*
X129700000Y-32200000D01*
X129700000Y-32200000D02*
X129700000Y-34500000D01*
%TO.N,LED_FAN*%
X93990000Y-59490000D02*
X90500000Y-56000000D01*
X97530000Y-60760000D02*
X96260000Y-59490000D01*
X69327300Y-56000000D02*
X66617300Y-53290000D01*
X41570000Y-49500000D02*
X37990000Y-45920000D01*
X96260000Y-59490000D02*
X93990000Y-59490000D01*
X37990000Y-45920000D02*
X34500000Y-45920000D01*
X118360000Y-60760000D02*
X97530000Y-60760000D01*
X63402200Y-53290000D02*
X59612200Y-49500000D01*
X59612200Y-49500000D02*
X41570000Y-49500000D01*
X66617300Y-53290000D02*
X63402200Y-53290000D01*
X90500000Y-56000000D02*
X69327300Y-56000000D01*
%TO.N,LED_HEAT*%
X83308700Y-54411500D02*
X113249800Y-54411500D01*
X113249800Y-54411500D02*
X117058300Y-58220000D01*
X117058300Y-58220000D02*
X118360000Y-58220000D01*
X61110050Y-49833400D02*
X78730600Y-49833400D01*
X78730600Y-49833400D02*
X83308700Y-54411500D01*
X51196650Y-39920000D02*
X61110050Y-49833400D01*
X38000000Y-39920000D02*
X51196650Y-39920000D01*
%TO.N,LED_COOL*%
X41080000Y-39000000D02*
X68000000Y-39000000D01*
X34500000Y-32420000D02*
X41080000Y-39000000D01*
X73011100Y-44011100D02*
X115549400Y-44011100D01*
X115549400Y-44011100D02*
X117058300Y-45520000D01*
X68000000Y-39000000D02*
X73011100Y-44011100D01*
X117058300Y-45520000D02*
X118360000Y-45520000D01*
%TO.N,TFT_REST*%
X66000000Y-77371300D02*
X66000000Y-77420000D01*
%TO.N,T_CS_47*%
X117058300Y-76000000D02*
X118360000Y-76000000D01*
X73650000Y-74650000D02*
X115708300Y-74650000D01*
X115708300Y-74650000D02*
X117058300Y-76000000D01*
%TD*%
M02*
