M48
; DRILL file {KiCad 9.0.7-9.0.7~ubuntu22.04.1} date 2026-01-25T20:20:49-0600
; FORMAT={-:-/ absolute / inch / decimal}
; #@! TF.CreationDate,2026-01-25T20:20:49-06:00
; #@! TF.GenerationSoftware,Kicad,Pcbnew,9.0.7-9.0.7~ubuntu22.04.1
; #@! TF.FileFunction,Plated,1,4,PTH
FMAT,2
INCH
; #@! TA.AperFunction,Plated,PTH,ViaDrill
T1C0.0118
; #@! TA.AperFunction,Plated,PTH,ComponentDrill
T2C0.0315
; #@! TA.AperFunction,Plated,PTH,ComponentDrill
T3C0.0354
; #@! TA.AperFunction,Plated,PTH,ComponentDrill
T4C0.0394
; #@! TA.AperFunction,Plated,PTH,ComponentDrill
T5C0.0433
; #@! TA.AperFunction,Plated,PTH,ComponentDrill
T6C0.0472
; #@! TA.AperFunction,Plated,PTH,ComponentDrill
T7C0.0512
; #@! TA.AperFunction,Plated,PTH,ComponentDrill
T8C0.1260
%
G90
G05
T1
X2.0472Y-4.0157
X2.0866Y-3.8386
X2.5Y-2.2638
X2.7362Y-2.9921
X2.8996Y-2.939
X2.9134Y-3.0921
X3.0906Y-3.1899
X3.5433Y-2.0472
X3.622Y-2.5881
X4.4264Y-2.2469
X4.512Y-2.5781
X4.6654Y-4.252
X4.7835Y-3.248
X4.9213Y-2.2047
X5.4118Y-4.1823
X5.4118Y-4.2343
X5.4118Y-4.2874
X5.4118Y-4.3402
X5.413Y-4.1252
X5.4138Y-4.0213
X5.4138Y-4.0709
X5.8071Y-1.9291
T2
X1.3583Y-1.2764
X1.3583Y-1.6764
X1.3583Y-1.8079
X1.3583Y-2.2079
X1.4961Y-1.5717
X1.4961Y-1.9717
X2.8453Y-1.4961
X2.8453Y-1.8898
X2.8453Y-2.2835
X2.8469Y-3.4055
X2.8496Y-3.7795
X2.8528Y-2.6772
X2.939Y-3.563
X2.9421Y-1.6732
X2.9421Y-2.0472
X2.9421Y-2.4409
X2.9453Y-1.4961
X2.9453Y-1.8898
X2.9453Y-2.2835
X2.9465Y-3.937
X2.9469Y-3.4055
X2.9496Y-2.8346
X2.9496Y-3.7795
X2.9528Y-2.6772
X3.0453Y-1.4961
X3.0453Y-1.8898
X3.0453Y-2.2835
X3.0469Y-3.4055
X3.0496Y-3.7795
X3.0528Y-2.6772
X3.1299Y-4.1339
X3.1299Y-4.2323
X3.339Y-3.563
X3.3421Y-1.6732
X3.3421Y-2.0472
X3.3421Y-2.4409
X3.3465Y-3.937
X3.3465Y-4.1929
X3.3496Y-2.8346
X3.3827Y-1.2402
X3.4843Y-4.1929
X3.7597Y-3.292
X3.7597Y-3.392
X3.7597Y-3.492
X3.7598Y-1.3921
X3.7598Y-1.4921
X3.7598Y-1.5921
X3.7598Y-1.6921
X3.7598Y-1.7921
X3.7598Y-1.8921
X3.7598Y-1.9921
X3.7598Y-2.0921
X3.7598Y-2.1921
X3.7598Y-2.2921
X3.7598Y-2.3921
X3.7598Y-2.4921
X3.7598Y-2.5921
X3.7598Y-2.6921
X3.7598Y-2.7921
X3.7598Y-2.8921
X3.7598Y-2.9921
X3.7598Y-3.0921
X3.7598Y-3.1921
X3.7827Y-1.2402
X4.6598Y-1.3921
X4.6598Y-1.4921
X4.6598Y-1.5921
X4.6598Y-1.6921
X4.6598Y-1.7921
X4.6598Y-1.8921
X4.6598Y-1.9921
X4.6598Y-2.0921
X4.6598Y-2.1921
X4.6598Y-2.2921
X4.6598Y-2.3921
X4.6598Y-2.4921
X4.6598Y-2.5921
X4.6598Y-2.6921
X4.6598Y-2.7921
X4.6598Y-2.8921
X4.6598Y-2.9921
X4.6598Y-3.0921
X4.6598Y-3.1921
X4.6598Y-3.2921
X4.6598Y-3.3921
X4.6598Y-3.4921
X4.8386Y-1.3583
X4.9181Y-3.6024
X4.9724Y-1.3583
X5.3181Y-3.6024
X5.374Y-1.8276
X5.374Y-2.2276
X5.5118Y-1.8276
X5.5118Y-2.2276
X5.6693Y-2.3425
X5.7677Y-2.3425
T3
X1.072Y-1.5969
X1.072Y-1.8122
X1.072Y-2.0276
X1.172Y-1.5969
X1.172Y-1.8122
X1.172Y-2.0276
T4
X1.2992Y-3.7173
X1.2992Y-3.8173
X1.2992Y-3.9173
X1.2992Y-4.0173
X1.4862Y-4.2555
X1.5862Y-4.2555
X1.6862Y-4.2555
X2.5984Y-2.048
X2.5984Y-2.148
X2.5984Y-2.248
X2.5984Y-2.348
X2.5984Y-2.448
X2.5984Y-2.548
X2.5984Y-2.648
X2.5984Y-2.748
X2.5984Y-2.848
X2.5984Y-2.948
X2.5984Y-3.048
X2.5984Y-3.148
X2.5984Y-3.248
X2.5984Y-3.348
X2.7906Y-1.2402
X2.8906Y-1.2402
X2.9906Y-1.2402
X3.0906Y-1.2402
X3.1906Y-1.2402
X4.9969Y-3.7795
X5.0591Y-1.674
X5.0591Y-1.774
X5.0591Y-1.874
X5.0591Y-1.974
X5.0591Y-2.074
X5.0591Y-2.174
X5.0591Y-2.274
X5.0591Y-2.374
X5.0591Y-2.474
X5.0591Y-2.574
X5.0591Y-2.674
X5.0591Y-2.774
X5.0591Y-2.874
X5.0591Y-2.974
X5.0591Y-3.074
X5.0591Y-3.174
X5.0591Y-3.274
X5.0591Y-3.374
X5.0969Y-3.7795
X5.1969Y-3.7795
X5.4578Y-1.4567
X5.6547Y-1.4567
T5
X3.2039Y-1.8898
X3.2039Y-2.2835
X3.2236Y-1.4961
X3.2236Y-2.6772
X3.2236Y-3.4055
X3.2236Y-3.7795
X3.5039Y-1.8898
X3.5039Y-2.2835
X3.5236Y-1.4961
X3.5236Y-2.6772
X3.5236Y-3.4055
X3.5236Y-3.7795
T6
X1.3976Y-2.3819
X1.3976Y-2.5197
X1.3976Y-2.6575
X1.3976Y-2.7953
X1.3976Y-2.9331
X1.3976Y-3.0709
X1.3976Y-3.2087
X1.3976Y-3.3465
X1.3976Y-3.4843
X5.5507Y-2.9134
X5.5906Y-3.8886
X5.5906Y-4.0386
X5.5906Y-4.1886
X5.5906Y-4.3386
X5.846Y-2.9134
T7
X1.6732Y-1.811
X1.6732Y-2.3031
X1.677Y-1.3268
X1.677Y-2.8031
X1.677Y-3.2953
X1.677Y-3.7874
X1.9732Y-1.811
X1.9732Y-2.3031
X1.977Y-1.3268
X1.977Y-2.8031
X1.977Y-3.2953
X1.977Y-3.7874
X2.3732Y-1.811
X2.3732Y-2.111
X2.3732Y-2.3031
X2.3732Y-2.6031
X2.377Y-1.3268
X2.377Y-1.6268
X2.377Y-2.8031
X2.377Y-3.1031
X2.377Y-3.2953
X2.377Y-3.5953
X2.377Y-3.7874
X2.377Y-4.0874
T8
X0.9843Y-1.2402
X0.9843Y-4.4882
X5.9449Y-1.2402
X5.9449Y-4.4882
M30
